<svg width="239" height="226" viewBox="0 0 239 226" fill="none" xmlns="http://www.w3.org/2000/svg">
<path d="M8.6205 219.264C11.8545 219.264 13.7025 217.482 14.7585 215.656L12.0745 214.358C11.4585 215.568 10.1385 216.492 8.6205 216.492C5.9585 216.492 4.0225 214.446 4.0225 211.674C4.0225 208.902 5.9585 206.856 8.6205 206.856C10.1385 206.856 11.4585 207.802 12.0745 208.99L14.7585 207.67C13.7245 205.844 11.8545 204.084 8.6205 204.084C4.2205 204.084 0.8105 207.164 0.8105 211.674C0.8105 216.184 4.2205 219.264 8.6205 219.264ZM25.726 219V212.136C25.726 209.078 23.504 208.11 21.084 208.11C19.412 208.11 17.74 208.638 16.442 209.782L17.498 211.652C18.4 210.816 19.456 210.398 20.6 210.398C22.008 210.398 22.932 211.102 22.932 212.18V213.61C22.228 212.774 20.974 212.312 19.566 212.312C17.872 212.312 15.87 213.258 15.87 215.744C15.87 218.12 17.872 219.264 19.566 219.264C20.952 219.264 22.206 218.758 22.932 217.9V219H25.726ZM20.688 217.372C19.588 217.372 18.686 216.8 18.686 215.81C18.686 214.776 19.588 214.204 20.688 214.204C21.59 214.204 22.47 214.512 22.932 215.128V216.448C22.47 217.064 21.59 217.372 20.688 217.372ZM31.2913 219V211.982C31.7533 211.3 32.9853 210.772 33.9093 210.772C34.2173 210.772 34.4813 210.794 34.6793 210.838V208.11C33.3593 208.11 32.0393 208.88 31.2913 209.826V208.374H28.4973V219H31.2913ZM46.5451 219V204.326H43.7291V209.738C42.8931 208.66 41.7051 208.11 40.4511 208.11C37.7451 208.11 35.7431 210.222 35.7431 213.698C35.7431 217.24 37.7671 219.264 40.4511 219.264C41.7271 219.264 42.8931 218.692 43.7291 217.636V219H46.5451ZM41.3091 216.778C39.7251 216.778 38.6251 215.524 38.6251 213.698C38.6251 211.85 39.7251 210.596 41.3091 210.596C42.2551 210.596 43.2671 211.102 43.7291 211.806V215.568C43.2671 216.272 42.2551 216.778 41.3091 216.778ZM68.6946 219L63.0406 204.326H59.1246L53.4486 219H57.0126L57.9366 216.514H64.2286L65.1306 219H68.6946ZM63.3706 213.764H58.7946L61.0826 207.45L63.3706 213.764ZM80.1037 219V204.326H77.2877V209.738C76.4517 208.66 75.2637 208.11 74.0097 208.11C71.3037 208.11 69.3017 210.222 69.3017 213.698C69.3017 217.24 71.3257 219.264 74.0097 219.264C75.2857 219.264 76.4517 218.692 77.2877 217.636V219H80.1037ZM74.8677 216.778C73.2837 216.778 72.1837 215.524 72.1837 213.698C72.1837 211.85 73.2837 210.596 74.8677 210.596C75.8137 210.596 76.8257 211.102 77.2877 211.806V215.568C76.8257 216.272 75.8137 216.778 74.8677 216.778ZM92.9943 219V204.326H90.1783V209.738C89.3423 208.66 88.1543 208.11 86.9003 208.11C84.1943 208.11 82.1923 210.222 82.1923 213.698C82.1923 217.24 84.2163 219.264 86.9003 219.264C88.1763 219.264 89.3423 218.692 90.1783 217.636V219H92.9943ZM87.7583 216.778C86.1743 216.778 85.0743 215.524 85.0743 213.698C85.0743 211.85 86.1743 210.596 87.7583 210.596C88.7043 210.596 89.7163 211.102 90.1783 211.806V215.568C89.7163 216.272 88.7043 216.778 87.7583 216.778ZM100.759 219.264C102.409 219.264 104.081 218.758 105.137 217.79L103.905 215.986C103.223 216.646 101.969 217.042 101.067 217.042C99.2629 217.042 98.1849 215.92 98.0089 214.578H105.907V213.962C105.907 210.486 103.751 208.11 100.583 208.11C97.3489 208.11 95.0829 210.596 95.0829 213.676C95.0829 217.086 97.5249 219.264 100.759 219.264ZM103.201 212.686H97.9649C98.0969 211.63 98.8449 210.332 100.583 210.332C102.431 210.332 103.135 211.674 103.201 212.686ZM118.045 219V204.326H115.229V209.738C114.393 208.66 113.205 208.11 111.951 208.11C109.245 208.11 107.243 210.222 107.243 213.698C107.243 217.24 109.267 219.264 111.951 219.264C113.227 219.264 114.393 218.692 115.229 217.636V219H118.045ZM112.809 216.778C111.225 216.778 110.125 215.524 110.125 213.698C110.125 211.85 111.225 210.596 112.809 210.596C113.755 210.596 114.767 211.102 115.229 211.806V215.568C114.767 216.272 113.755 216.778 112.809 216.778ZM131.725 219.264C135.685 219.264 137.599 217.24 137.599 214.556C137.599 209.078 129.173 210.64 129.173 208.308C129.173 207.428 129.921 206.834 131.263 206.834C132.759 206.834 134.343 207.34 135.531 208.44L137.269 206.152C135.817 204.81 133.881 204.106 131.549 204.106C128.095 204.106 125.983 206.13 125.983 208.572C125.983 214.094 134.431 212.312 134.431 214.908C134.431 215.744 133.595 216.536 131.879 216.536C129.855 216.536 128.249 215.634 127.215 214.556L125.521 216.932C126.885 218.318 128.909 219.264 131.725 219.264ZM149.602 219V208.374H146.808V215.568C146.324 216.184 145.466 216.778 144.388 216.778C143.2 216.778 142.43 216.294 142.43 214.82V208.374H139.636V215.92C139.636 217.988 140.736 219.264 143.068 219.264C144.806 219.264 146.082 218.472 146.808 217.658V219H149.602ZM157.326 219.264C159.504 219.264 160.824 218.318 161.528 217.328L159.702 215.634C159.196 216.338 158.426 216.778 157.458 216.778C155.764 216.778 154.576 215.524 154.576 213.676C154.576 211.828 155.764 210.596 157.458 210.596C158.426 210.596 159.196 210.992 159.702 211.74L161.528 210.024C160.824 209.056 159.504 208.11 157.326 208.11C154.048 208.11 151.694 210.42 151.694 213.676C151.694 216.954 154.048 219.264 157.326 219.264ZM168.305 219.264C170.483 219.264 171.803 218.318 172.507 217.328L170.681 215.634C170.175 216.338 169.405 216.778 168.437 216.778C166.743 216.778 165.555 215.524 165.555 213.676C165.555 211.828 166.743 210.596 168.437 210.596C169.405 210.596 170.175 210.992 170.681 211.74L172.507 210.024C171.803 209.056 170.483 208.11 168.305 208.11C165.027 208.11 162.673 210.42 162.673 213.676C162.673 216.954 165.027 219.264 168.305 219.264ZM179.327 219.264C180.977 219.264 182.649 218.758 183.705 217.79L182.473 215.986C181.791 216.646 180.537 217.042 179.635 217.042C177.831 217.042 176.753 215.92 176.577 214.578H184.475V213.962C184.475 210.486 182.319 208.11 179.151 208.11C175.917 208.11 173.651 210.596 173.651 213.676C173.651 217.086 176.093 219.264 179.327 219.264ZM181.769 212.686H176.533C176.665 211.63 177.413 210.332 179.151 210.332C180.999 210.332 181.703 211.674 181.769 212.686ZM190.321 219.264C193.269 219.264 194.919 217.79 194.919 215.854C194.919 211.564 188.627 212.884 188.627 211.3C188.627 210.706 189.287 210.244 190.299 210.244C191.597 210.244 192.807 210.794 193.445 211.476L194.567 209.562C193.511 208.726 192.081 208.11 190.277 208.11C187.483 208.11 185.921 209.672 185.921 211.454C185.921 215.634 192.235 214.204 192.235 215.964C192.235 216.624 191.663 217.108 190.453 217.108C189.133 217.108 187.549 216.382 186.779 215.656L185.569 217.614C186.691 218.648 188.473 219.264 190.321 219.264ZM200.41 219V210.816H202.566V208.374H200.41V207.802C200.41 206.812 200.96 206.306 201.73 206.306C202.236 206.306 202.61 206.46 202.896 206.746L203.952 205.096C203.27 204.37 202.192 204.106 201.18 204.106C199.046 204.106 197.594 205.536 197.594 207.802V208.374H195.834V210.816H197.594V219H200.41ZM214.141 219V208.374H211.347V215.568C210.863 216.184 210.005 216.778 208.927 216.778C207.739 216.778 206.969 216.294 206.969 214.82V208.374H204.175V215.92C204.175 217.988 205.275 219.264 207.607 219.264C209.345 219.264 210.621 218.472 211.347 217.658V219H214.141ZM219.709 219V204.326H216.915V219H219.709ZM225.274 219V204.326H222.48V219H225.274ZM227.67 223.158C228.022 223.246 228.726 223.312 229.056 223.312C230.882 223.268 232.29 222.74 233.082 220.738L238.076 208.374H235.062L232.29 215.766L229.518 208.374H226.526L230.838 219.154L230.442 220.056C230.178 220.628 229.694 220.826 228.968 220.826C228.704 220.826 228.33 220.76 228.088 220.65L227.67 223.158Z" fill="#22215B"/>
<path d="M106.382 184.208C108.126 184.208 109.582 183.472 110.574 182.368V178.512H105.582V179.696H109.246V181.872C108.718 182.4 107.662 183.024 106.382 183.024C104.046 183.024 102.27 181.2 102.27 178.672C102.27 176.128 104.046 174.336 106.382 174.336C107.662 174.336 108.798 174.944 109.47 175.808L110.526 175.152C109.582 173.984 108.27 173.152 106.382 173.152C103.342 173.152 100.894 175.36 100.894 178.672C100.894 181.984 103.342 184.208 106.382 184.208ZM113.884 184V178.528C114.236 177.904 115.244 177.296 115.98 177.296C116.172 177.296 116.316 177.312 116.46 177.344V176.112C115.404 176.112 114.508 176.704 113.884 177.52V176.272H112.684V184H113.884ZM121.454 184.192C122.718 184.192 123.758 183.776 124.526 183.008L123.95 182.224C123.342 182.848 122.446 183.2 121.566 183.2C119.902 183.2 118.878 181.984 118.782 180.528H125.038V180.224C125.038 177.904 123.662 176.08 121.326 176.08C119.118 176.08 117.518 177.888 117.518 180.128C117.518 182.544 119.166 184.192 121.454 184.192ZM123.854 179.648H118.782C118.846 178.464 119.662 177.072 121.31 177.072C123.07 177.072 123.838 178.496 123.854 179.648ZM133.013 184V178.688C133.013 176.816 131.653 176.08 130.021 176.08C128.757 176.08 127.765 176.496 126.933 177.36L127.493 178.192C128.181 177.456 128.933 177.12 129.861 177.12C130.981 177.12 131.813 177.712 131.813 178.752V180.144C131.189 179.424 130.309 179.088 129.253 179.088C127.941 179.088 126.549 179.904 126.549 181.632C126.549 183.312 127.941 184.192 129.253 184.192C130.293 184.192 131.173 183.824 131.813 183.12V184H133.013ZM129.685 183.328C128.565 183.328 127.781 182.624 127.781 181.648C127.781 180.656 128.565 179.952 129.685 179.952C130.533 179.952 131.349 180.272 131.813 180.912V182.368C131.349 183.008 130.533 183.328 129.685 183.328ZM137.371 184.192C138.075 184.192 138.507 183.984 138.811 183.696L138.459 182.8C138.299 182.976 137.979 183.12 137.643 183.12C137.115 183.12 136.859 182.704 136.859 182.128V177.328H138.427V176.272H136.859V174.16H135.659V176.272H134.379V177.328H135.659V182.384C135.659 183.536 136.235 184.192 137.371 184.192Z" fill="#22215B"/>
<circle opacity="0.07" cx="119" cy="65" r="65" fill="#22215B"/>
<path d="M160.5 32C167.956 32 174 25.9558 174 18.5C174 11.0442 167.956 5 160.5 5C153.044 5 147 11.0442 147 18.5C147 25.9558 153.044 32 160.5 32Z" fill="url(#paint0_linear)" stroke="white" stroke-width="2"/>
<path d="M164.67 14.8516C164.821 14.728 164.999 14.631 165.194 14.5662C165.39 14.5014 165.598 14.47 165.808 14.474C166.018 14.4779 166.224 14.517 166.416 14.5891C166.608 14.6612 166.781 14.7649 166.926 14.8941C167.218 15.1556 167.377 15.505 167.368 15.8658C167.359 16.2267 167.182 16.5697 166.876 16.82L159.773 22.6221C159.6 22.7638 159.391 22.8702 159.163 22.9335C158.934 22.9967 158.692 23.0152 158.454 22.9874C158.215 22.9596 157.988 22.8864 157.788 22.7732C157.588 22.66 157.42 22.5097 157.298 22.3337L154.339 18.0839C154.229 17.9307 154.156 17.7606 154.124 17.5832C154.092 17.4059 154.101 17.225 154.152 17.0508C154.203 16.8767 154.293 16.7128 154.419 16.5686C154.545 16.4245 154.703 16.3029 154.884 16.2109C155.065 16.119 155.266 16.0585 155.475 16.0329C155.684 16.0073 155.897 16.0171 156.101 16.0619C156.305 16.1066 156.497 16.1853 156.666 16.2934C156.834 16.4016 156.976 16.537 157.082 16.6919L159.017 19.4698L164.67 14.8516Z" fill="white"/>
<circle cx="158" cy="67" r="2" fill="#4CE364"/>
<circle cx="91" cy="103" r="2" fill="#FFC700"/>
<circle cx="87" cy="25" r="2" fill="#22215B"/>
<path d="M101.115 31H127.493L143.73 47.8637V91.7688C143.73 93.656 142.98 95.4658 141.646 96.8002C140.312 98.1347 138.502 98.8843 136.615 98.8843H101.115C99.2283 98.8843 97.4185 98.1347 96.0841 96.8002C94.7497 95.4658 94 93.656 94 91.7688V38.1155C94 36.2283 94.7497 34.4185 96.0841 33.0841C97.4185 31.7497 99.2283 31 101.115 31V31Z" fill="url(#paint1_linear)"/>
<path d="M130.879 89.3776C130.69 89.3776 130.509 89.3026 130.376 89.1691C130.242 89.0357 130.167 88.8547 130.167 88.666V88.2035C130.167 88.0148 130.242 87.8338 130.376 87.7004C130.509 87.5669 130.69 87.492 130.879 87.492H135.484C135.673 87.492 135.854 87.5669 135.987 87.7004C136.121 87.8338 136.196 88.0148 136.196 88.2035V88.666C136.196 88.8547 136.121 89.0357 135.987 89.1691C135.854 89.3026 135.673 89.3776 135.484 89.3776H130.879ZM117.996 89.3776C117.807 89.3776 117.626 89.3026 117.493 89.1691C117.359 89.0357 117.284 88.8547 117.284 88.666V88.2035C117.284 88.0148 117.359 87.8338 117.493 87.7004C117.626 87.5669 117.807 87.492 117.996 87.492H127.949C128.137 87.492 128.318 87.5669 128.452 87.7004C128.585 87.8338 128.66 88.0148 128.66 88.2035V88.666C128.66 88.8547 128.585 89.0357 128.452 89.1691C128.318 89.3026 128.137 89.3776 127.949 89.3776H117.996ZM117.996 85.9835C117.807 85.9835 117.626 85.9085 117.493 85.7751C117.359 85.6416 117.284 85.4606 117.284 85.2719V84.8094C117.284 84.6207 117.359 84.4397 117.493 84.3063C117.626 84.1728 117.807 84.0979 117.996 84.0979H135.484C135.673 84.0979 135.854 84.1728 135.987 84.3063C136.121 84.4397 136.196 84.6207 136.196 84.8094V85.2719C136.196 85.4606 136.121 85.6416 135.987 85.7751C135.854 85.9085 135.673 85.9835 135.484 85.9835H117.996ZM117.996 82.5889C117.807 82.5889 117.626 82.514 117.493 82.3805C117.359 82.2471 117.284 82.0661 117.284 81.8774V81.4149C117.284 81.2262 117.359 81.0452 117.493 80.9118C117.626 80.7783 117.807 80.7033 117.996 80.7033H124.182C124.371 80.7033 124.552 80.7783 124.685 80.9118C124.819 81.0452 124.894 81.2262 124.894 81.4149V81.877C124.894 82.0657 124.819 82.2467 124.685 82.3801C124.552 82.5135 124.371 82.5885 124.182 82.5885L117.996 82.5889ZM100.207 69.4698C100.019 69.4698 99.8376 69.3948 99.7041 69.2614C99.5707 69.1279 99.4957 68.947 99.4957 68.7582V68.2957C99.4957 68.107 99.5707 67.926 99.7041 67.7926C99.8376 67.6592 100.019 67.5842 100.207 67.5842H135.484C135.673 67.5842 135.854 67.6592 135.987 67.7926C136.121 67.926 136.196 68.107 136.196 68.2957V68.7582C136.196 68.947 136.121 69.1279 135.987 69.2614C135.854 69.3948 135.673 69.4698 135.484 69.4698H100.207ZM117.996 66.4528C117.807 66.4528 117.626 66.3779 117.493 66.2444C117.359 66.111 117.284 65.93 117.284 65.7413V65.2774C117.284 65.0887 117.359 64.9077 117.493 64.7743C117.626 64.6409 117.807 64.5659 117.996 64.5659H135.484C135.673 64.5659 135.854 64.6409 135.987 64.7743C136.121 64.9077 136.196 65.0887 136.196 65.2774V65.7399C136.196 65.9287 136.121 66.1096 135.987 66.2431C135.854 66.3765 135.673 66.4515 135.484 66.4515L117.996 66.4528ZM100.207 66.4528C100.019 66.4528 99.8376 66.3779 99.7041 66.2444C99.5707 66.111 99.4957 65.93 99.4957 65.7413V65.2774C99.4957 65.0887 99.5707 64.9077 99.7041 64.7743C99.8376 64.6409 100.019 64.5659 100.207 64.5659H113.248C113.436 64.5659 113.617 64.6409 113.751 64.7743C113.884 64.9077 113.959 65.0887 113.959 65.2774V65.7399C113.959 65.9287 113.884 66.1096 113.751 66.2431C113.617 66.3765 113.436 66.4515 113.248 66.4515L100.207 66.4528ZM100.207 63.0587C100.114 63.0587 100.021 63.0403 99.935 63.0046C99.8486 62.9688 99.7702 62.9164 99.7041 62.8503C99.6381 62.7843 99.5856 62.7058 99.5499 62.6195C99.5141 62.5332 99.4957 62.4406 99.4957 62.3472V61.8847C99.4957 61.696 99.5707 61.515 99.7041 61.3815C99.8376 61.2481 100.019 61.1731 100.207 61.1731H135.484C135.673 61.1731 135.854 61.2481 135.987 61.3815C136.121 61.515 136.196 61.696 136.196 61.8847V62.3472C136.196 62.4406 136.177 62.5332 136.141 62.6195C136.106 62.7058 136.053 62.7843 135.987 62.8503C135.921 62.9164 135.843 62.9688 135.756 63.0046C135.67 63.0403 135.577 63.0587 135.484 63.0587H100.207ZM100.207 59.6642C100.019 59.6642 99.8376 59.5892 99.7041 59.4558C99.5707 59.3224 99.4957 59.1414 99.4957 58.9527V58.4902C99.4957 58.3014 99.5707 58.1205 99.7041 57.987C99.8376 57.8536 100.019 57.7786 100.207 57.7786H115.287C115.476 57.7786 115.657 57.8536 115.79 57.987C115.924 58.1205 115.999 58.3014 115.999 58.4902V58.9527C115.999 59.1414 115.924 59.3224 115.79 59.4558C115.657 59.5892 115.476 59.6642 115.287 59.6642H100.207ZM130.879 53.6258C130.69 53.6258 130.509 53.5509 130.376 53.4174C130.242 53.284 130.167 53.103 130.167 52.9143V52.454C130.167 52.2653 130.242 52.0843 130.376 51.9509C130.509 51.8174 130.69 51.7425 130.879 51.7425H135.484C135.673 51.7425 135.854 51.8174 135.987 51.9509C136.121 52.0843 136.196 52.2653 136.196 52.454V52.9143C136.196 53.103 136.121 53.284 135.987 53.4174C135.854 53.5509 135.673 53.6258 135.484 53.6258H130.879ZM100.207 53.6258C100.019 53.6258 99.8376 53.5509 99.7041 53.4174C99.5707 53.284 99.4957 53.103 99.4957 52.9143V52.454C99.4957 52.2653 99.5707 52.0843 99.7041 51.9509C99.8376 51.8174 100.019 51.7425 100.207 51.7425H127.949C128.137 51.7425 128.318 51.8174 128.452 51.9509C128.585 52.0843 128.66 52.2653 128.66 52.454V52.9143C128.66 53.103 128.585 53.284 128.452 53.4174C128.318 53.5509 128.137 53.6258 127.949 53.6258H100.207ZM100.207 50.2318C100.019 50.2318 99.8376 50.1568 99.7041 50.0234C99.5707 49.8899 99.4957 49.7089 99.4957 49.5202V49.0595C99.4957 48.8708 99.5707 48.6898 99.7041 48.5563C99.8376 48.4229 100.019 48.3479 100.207 48.3479H135.484C135.673 48.3479 135.854 48.4229 135.987 48.5563C136.121 48.6898 136.196 48.8708 136.196 49.0595V49.522C136.196 49.7107 136.121 49.8917 135.987 50.0251C135.854 50.1586 135.673 50.2335 135.484 50.2335L100.207 50.2318ZM100.207 46.8372C100.019 46.8372 99.8384 46.7626 99.7051 46.6298C99.5717 46.4969 99.4964 46.3166 99.4957 46.1284V45.6654C99.4957 45.4767 99.5707 45.2957 99.7041 45.1623C99.8376 45.0288 100.019 44.9539 100.207 44.9539H125.467C125.656 44.9539 125.837 45.0288 125.97 45.1623C126.104 45.2957 126.179 45.4767 126.179 45.6654V46.1279C126.179 46.2214 126.16 46.3139 126.125 46.4002C126.089 46.4865 126.036 46.565 125.97 46.6311C125.904 46.6971 125.826 46.7495 125.74 46.7853C125.653 46.8211 125.561 46.8395 125.467 46.8395L100.207 46.8372Z" fill="#FEFEFF"/>
<path d="M127.53 31.0737L144 47.5607H135.065C134.075 47.5602 133.095 47.3647 132.181 46.9853C131.266 46.606 130.435 46.0502 129.736 45.3498C129.036 44.6494 128.481 43.818 128.103 42.9032C127.724 41.9883 127.53 41.0079 127.53 40.0179V31.0737Z" fill="#AABDEE"/>
<defs>
<linearGradient id="paint0_linear" x1="160.5" y1="-6.61" x2="160.5" y2="32" gradientUnits="userSpaceOnUse">
<stop stop-color="#22215B"/>
<stop offset="1" stop-color="#567DF4"/>
</linearGradient>
<linearGradient id="paint1_linear" x1="144" y1="99" x2="95.5" y2="31" gradientUnits="userSpaceOnUse">
<stop stop-color="#22215B"/>
<stop offset="1" stop-color="#567DF4"/>
</linearGradient>
</defs>
</svg>
