<svg width="21" height="30" viewBox="0 0 21 30" fill="none" xmlns="http://www.w3.org/2000/svg">
<path d="M8.73248 15.817C9.81427 14.7353 9.81444 12.9842 8.73248 11.9023C7.65076 10.8206 5.89968 10.8204 4.81778 11.9023C3.736 12.9841 3.73582 14.7352 4.81778 15.817C5.89951 16.8988 7.65058 16.8991 8.73248 15.817ZM6.77513 12.9411C7.28282 12.9411 7.69376 13.352 7.69376 13.8598C7.69376 14.6711 6.7056 15.0894 6.12555 14.5093C5.55203 13.9358 5.95436 12.9411 6.77513 12.9411Z" fill="white"/>
<path d="M14.2249 18.5414C12.6952 18.5414 11.4568 19.7793 11.4568 21.3095C11.4568 23.7754 14.4534 24.9957 16.1822 23.2669C17.9348 21.5145 16.6653 18.5414 14.2249 18.5414ZM14.8745 21.959C14.5163 22.3173 13.9335 22.3172 13.5753 21.959C13.2163 21.6001 13.2163 21.019 13.5753 20.6599C13.9343 20.3009 14.5154 20.3008 14.8745 20.6599C15.2335 21.019 15.2335 21.6 14.8745 21.959Z" fill="white"/>
<path d="M14.7682 13.3163C14.4071 12.9551 13.8216 12.9551 13.4604 13.3163L6.3146 20.4622C5.73027 21.0465 6.15213 22.0408 6.96846 22.0408C7.20514 22.0408 7.44176 21.9505 7.62237 21.7699L14.7682 14.624C15.1294 14.2629 15.1294 13.6774 14.7682 13.3163Z" fill="white"/>
<path d="M19.2976 5.52564L12.7142 0.720808C11.3988 -0.239141 9.63041 -0.240355 8.31369 0.717687L1.70715 5.52506C0.638194 6.3029 0 7.55651 0 8.87856V24.8931C0 27.3474 1.99671 29.3441 4.451 29.3441H16.5489C19.0033 29.3441 21 27.3474 21 24.8931V8.87567C21.0001 7.55599 20.3636 6.30365 19.2976 5.52564ZM19.1506 24.8931C19.1506 26.3276 17.9835 27.4946 16.549 27.4946H4.45106C3.0166 27.4946 1.84956 26.3276 1.84956 24.8931V8.87856C1.84956 8.1461 2.20316 7.45149 2.79541 7.02056L9.402 2.21324C10.0608 1.73382 10.9538 1.72572 11.6239 2.2148L18.2073 7.01958C18.798 7.45063 19.1506 8.14454 19.1506 8.87567V24.8931Z" fill="white"/>
<path d="M10.5414 6.27605C11.0803 6.27605 11.5171 5.83926 11.5171 5.30044C11.5171 4.76163 11.0803 4.32483 10.5414 4.32483C10.0026 4.32483 9.56583 4.76163 9.56583 5.30044C9.56583 5.83926 10.0026 6.27605 10.5414 6.27605Z" fill="white"/>
</svg>
