<svg width="166" height="166" viewBox="0 0 166 166" fill="none" xmlns="http://www.w3.org/2000/svg">
<path d="M83 166C66.5841 166 50.5369 161.132 36.8877 152.012C23.2384 142.892 12.6001 129.929 6.318 114.763C0.0359231 99.5965 -1.60775 82.9079 1.59482 66.8075C4.7974 50.7071 12.7024 35.9179 24.3101 24.3101L57.3205 57.3205C52.2416 62.3994 48.7828 68.8704 47.3815 75.915C45.9802 82.9597 46.6994 90.2617 49.4481 96.8976C52.1968 103.534 56.8516 109.205 62.8237 113.196C68.7959 117.186 75.8173 119.316 83 119.316V166Z" fill="#FFC700"/>
<path d="M139.068 144.2C123.78 158.206 103.803 165.983 83.0687 166L83.03 119.316C92.1022 119.309 100.843 115.906 107.532 109.778L139.068 144.2Z" fill="#22215B"/>
<path d="M24.3101 24.3101C35.1549 13.4654 48.7924 5.83744 63.7093 2.27288C78.6261 -1.29168 94.2389 -0.653481 108.815 4.11666C123.391 8.8868 136.361 17.6023 146.284 29.296C156.208 40.9898 162.697 55.2043 165.032 70.3624L118.893 77.4705C117.871 70.8381 115.032 64.6186 110.69 59.5021C106.348 54.3855 100.673 50.5721 94.2953 48.4849C87.9175 46.3978 81.0862 46.1185 74.5594 47.6782C68.0326 49.2379 62.0656 52.5754 57.3205 57.3205L24.3101 24.3101Z" fill="#22215B"/>
<path d="M165.021 70.2866C167.126 83.8724 165.825 97.7685 161.232 110.727C156.639 123.685 148.9 135.3 138.708 144.527L107.375 109.921C111.834 105.883 115.221 100.802 117.23 95.1317C119.24 89.4619 119.809 83.3817 118.888 77.4373L165.021 70.2866Z" fill="#22215B"/>
<path d="M22.184 107V104.972H23.312V104.096H22.184V98.996H20.816L17.384 104.144V104.972H21.188V107H22.184ZM21.188 104.096H18.38L21.188 99.92V104.096ZM27.3034 107.144C28.9114 107.144 30.1474 106.136 30.1474 104.504C30.1474 102.86 28.9354 101.948 27.6034 101.948C26.7994 101.948 26.1154 102.284 25.7314 102.668V99.884H29.6314V98.996H24.7354V103.316L25.4674 103.568C26.0074 103.04 26.6074 102.812 27.3154 102.812C28.3954 102.812 29.1514 103.484 29.1514 104.54C29.1514 105.512 28.3954 106.256 27.3034 106.256C26.3194 106.256 25.6234 105.872 25.0954 105.2L24.4834 105.86C25.0834 106.652 25.9474 107.144 27.3034 107.144ZM33.0615 102.824C34.2135 102.824 35.0055 101.984 35.0055 100.868C35.0055 99.74 34.2135 98.876 33.0615 98.876C31.9215 98.876 31.1415 99.74 31.1415 100.868C31.1415 101.984 31.9215 102.824 33.0615 102.824ZM32.9535 107L38.0775 98.996H37.4175L32.3055 107H32.9535ZM37.2375 107.144C38.3775 107.144 39.1695 106.304 39.1695 105.188C39.1695 104.06 38.3775 103.196 37.2375 103.196C36.0975 103.196 35.3175 104.06 35.3175 105.188C35.3175 106.304 36.0975 107.144 37.2375 107.144ZM33.0615 102.224C32.3535 102.224 31.8615 101.624 31.8615 100.868C31.8615 100.076 32.3535 99.488 33.0615 99.488C33.7815 99.488 34.2855 100.076 34.2855 100.868C34.2855 101.624 33.7815 102.224 33.0615 102.224ZM37.2375 106.544C36.5175 106.544 36.0255 105.944 36.0255 105.188C36.0255 104.396 36.5175 103.808 37.2375 103.808C37.9575 103.808 38.4615 104.396 38.4615 105.188C38.4615 105.944 37.9575 106.544 37.2375 106.544Z" fill="white"/>
<path d="M95.192 32.144C96.956 32.144 98.024 31.172 98.024 29.84C98.024 28.556 96.908 27.932 96.176 27.872C96.932 27.74 97.904 27.164 97.904 26.012C97.904 24.656 96.728 23.876 95.192 23.876C93.956 23.876 93.032 24.416 92.456 25.112L93.008 25.736C93.596 25.1 94.244 24.764 95.12 24.764C96.092 24.764 96.908 25.244 96.908 26.132C96.908 27.056 96.056 27.452 95.048 27.452C94.724 27.452 94.352 27.452 94.22 27.44V28.352C94.34 28.34 94.712 28.34 95.048 28.34C96.224 28.34 97.04 28.76 97.04 29.756C97.04 30.68 96.332 31.256 95.168 31.256C94.22 31.256 93.404 30.824 92.936 30.2L92.348 30.824C92.84 31.544 93.836 32.144 95.192 32.144ZM102.292 32.144C103.9 32.144 105.136 31.136 105.136 29.504C105.136 27.86 103.924 26.948 102.592 26.948C101.788 26.948 101.104 27.284 100.72 27.668V24.884H104.62V23.996H99.7237V28.316L100.456 28.568C100.996 28.04 101.596 27.812 102.304 27.812C103.384 27.812 104.14 28.484 104.14 29.54C104.14 30.512 103.384 31.256 102.292 31.256C101.308 31.256 100.612 30.872 100.084 30.2L99.4717 30.86C100.072 31.652 100.936 32.144 102.292 32.144ZM108.05 27.824C109.202 27.824 109.994 26.984 109.994 25.868C109.994 24.74 109.202 23.876 108.05 23.876C106.91 23.876 106.13 24.74 106.13 25.868C106.13 26.984 106.91 27.824 108.05 27.824ZM107.942 32L113.066 23.996H112.406L107.294 32H107.942ZM112.226 32.144C113.366 32.144 114.158 31.304 114.158 30.188C114.158 29.06 113.366 28.196 112.226 28.196C111.086 28.196 110.306 29.06 110.306 30.188C110.306 31.304 111.086 32.144 112.226 32.144ZM108.05 27.224C107.342 27.224 106.85 26.624 106.85 25.868C106.85 25.076 107.342 24.488 108.05 24.488C108.77 24.488 109.274 25.076 109.274 25.868C109.274 26.624 108.77 27.224 108.05 27.224ZM112.226 31.544C111.506 31.544 111.014 30.944 111.014 30.188C111.014 29.396 111.506 28.808 112.226 28.808C112.946 28.808 113.45 29.396 113.45 30.188C113.45 30.944 112.946 31.544 112.226 31.544Z" fill="white"/>
<path d="M118.132 124V115.996H117.256L115.252 118.06L115.852 118.672L117.136 117.316V124H118.132ZM122.678 124.144C124.286 124.144 125.522 123.136 125.522 121.504C125.522 119.86 124.31 118.948 122.978 118.948C122.174 118.948 121.49 119.284 121.106 119.668V116.884H125.006V115.996H120.11V120.316L120.842 120.568C121.382 120.04 121.982 119.812 122.69 119.812C123.77 119.812 124.526 120.484 124.526 121.54C124.526 122.512 123.77 123.256 122.678 123.256C121.694 123.256 120.998 122.872 120.47 122.2L119.858 122.86C120.458 123.652 121.322 124.144 122.678 124.144ZM128.437 119.824C129.589 119.824 130.381 118.984 130.381 117.868C130.381 116.74 129.589 115.876 128.437 115.876C127.297 115.876 126.517 116.74 126.517 117.868C126.517 118.984 127.297 119.824 128.437 119.824ZM128.329 124L133.453 115.996H132.793L127.681 124H128.329ZM132.613 124.144C133.753 124.144 134.545 123.304 134.545 122.188C134.545 121.06 133.753 120.196 132.613 120.196C131.473 120.196 130.693 121.06 130.693 122.188C130.693 123.304 131.473 124.144 132.613 124.144ZM128.437 119.224C127.729 119.224 127.237 118.624 127.237 117.868C127.237 117.076 127.729 116.488 128.437 116.488C129.157 116.488 129.661 117.076 129.661 117.868C129.661 118.624 129.157 119.224 128.437 119.224ZM132.613 123.544C131.893 123.544 131.401 122.944 131.401 122.188C131.401 121.396 131.893 120.808 132.613 120.808C133.333 120.808 133.837 121.396 133.837 122.188C133.837 122.944 133.333 123.544 132.613 123.544Z" fill="white"/>
</svg>
