<svg width="19" height="30" viewBox="0 0 19 30" fill="none" xmlns="http://www.w3.org/2000/svg">
<path d="M9.50001 14.9641C6.79218 14.9641 4.58917 17.1671 4.58917 19.875C4.58917 22.5828 6.79218 24.7858 9.50001 24.7858C12.2078 24.7858 14.4109 22.5828 14.4109 19.875C14.4109 17.1671 12.2078 14.9641 9.50001 14.9641ZM9.50001 22.9387C7.81062 22.9387 6.43626 21.5643 6.43626 19.875C6.43626 18.1856 7.81067 16.8112 9.50001 16.8112C11.1894 16.8112 12.5638 18.1856 12.5638 19.875C12.5638 21.5643 11.1894 22.9387 9.50001 22.9387Z" fill="#4CE364"/>
<path d="M17.8364 17.5313C17.1459 16.7289 17.1238 16.6848 17.0342 15.5799C16.9678 14.7609 16.8926 13.8325 16.2176 13.1575C15.5426 12.4825 14.6143 12.4073 13.7952 12.3409C12.6914 12.2514 12.6471 12.2301 11.8437 11.5386C11.6704 11.3894 11.4847 11.2298 11.2846 11.078L14.6973 8.62511C14.9386 8.4516 15.0817 8.17246 15.0817 7.87519V0.923546C15.0817 0.413518 14.6683 0 14.1582 0H4.84181C4.33172 0 3.91826 0.413518 3.91826 0.923546V7.87519C3.91826 8.17246 4.06135 8.4516 4.30274 8.62511L7.71536 11.078C7.18092 11.4834 6.68001 12.0075 6.3054 12.1629C5.50895 12.4932 3.82464 12.1154 2.78253 13.1575C1.74094 14.1991 2.11752 15.8852 1.78787 16.6805C1.48264 17.4166 0 18.374 0 19.8751C0 21.3735 1.48431 22.3378 1.78787 23.0696C2.11815 23.8665 1.74031 25.5504 2.78247 26.5926C3.82417 27.6342 5.51028 27.2574 6.3054 27.5872C7.041 27.8922 7.99912 29.3751 9.5 29.3751C10.9984 29.3751 11.9628 27.8907 12.6946 27.5872C13.491 27.257 15.1754 27.6347 16.2175 26.5926C17.2591 25.5511 16.8824 23.8651 17.2121 23.0697C17.5174 22.3336 19 21.376 19 19.8751C19 18.8834 18.3548 18.1337 17.8364 17.5313ZM5.76535 1.84709H13.2346V7.40164L9.5 10.086L5.76535 7.40164V1.84709ZM16.4363 21.014C15.4902 22.1134 15.3163 22.5018 15.1931 24.0209C15.1524 24.5227 15.1063 25.0915 14.9114 25.2865C14.7165 25.4813 14.1477 25.5274 13.6459 25.5681C12.1328 25.6907 11.7415 25.8625 10.6388 26.8115C9.54052 27.7566 9.45977 27.7569 8.36109 26.8115C7.26023 25.864 6.87026 25.6911 5.35409 25.5681C4.85225 25.5274 4.28341 25.4814 4.08848 25.2865C3.89361 25.0916 3.84749 24.5228 3.80686 24.021C3.68426 22.509 3.51323 22.1176 2.56359 21.014C1.61846 19.9159 1.61805 19.8349 2.56359 18.7362C3.51057 17.6357 3.68379 17.2465 3.80686 15.7293C3.84749 15.2274 3.89361 14.6586 4.08854 14.4637C4.28346 14.2688 4.8522 14.2227 5.35409 14.182C6.86714 14.0594 7.25844 13.8877 8.36109 12.9387C9.45948 11.9935 9.54023 11.9933 10.6388 12.9387C11.7397 13.8861 12.1297 14.0591 13.6459 14.182C14.1477 14.2227 14.7165 14.2688 14.9115 14.4637C15.1063 14.6585 15.1524 15.2274 15.1931 15.7292C15.3157 17.2412 15.4867 17.6326 16.4363 18.7362C17.3815 19.8343 17.3819 19.9153 16.4363 21.014Z" fill="#4CE364"/>
</svg>
