<svg width="28" height="31" viewBox="0 0 28 31" fill="none" xmlns="http://www.w3.org/2000/svg">
<path d="M27.9972 6.68551C27.9972 6.30191 28.1488 6.65377 24.2505 0.443017C24.0774 0.167358 23.7747 0 23.4493 0H4.55712C4.23163 0 3.92901 0.167358 3.75598 0.443017L0.153436 6.18261C-0.0532934 6.51201 0.00871953 6.16884 0.00871953 11.9107C0.00871953 13.9057 1.40469 15.5797 3.27087 16.0102V29.0749C3.27087 29.5973 3.69438 30.0208 4.21673 30.0208H23.7896C24.3121 30.0208 24.7355 29.5973 24.7355 29.0749V16.0102C26.6017 15.5797 27.9977 13.9057 27.9977 11.9107C27.9977 6.62965 28.0032 6.68451 27.9972 6.68551ZM8.42474 7.63132H13.0573V11.9107C13.0573 13.1879 12.0182 14.227 10.741 14.227C9.46383 14.227 8.42474 13.1879 8.42474 11.9107V7.63132ZM14.949 7.63132H19.5816V11.9107C19.5816 13.1879 18.5425 14.227 17.2653 14.227C15.9881 14.227 14.949 13.1879 14.949 11.9107V7.63132H14.949ZM5.08018 1.89172H22.9262L25.3413 5.7396H2.66499L5.08018 1.89172ZM1.90044 11.9107V7.63132H6.53302V11.9107C6.53302 13.1879 5.49394 14.227 4.21673 14.227C2.94355 14.227 1.90044 13.1919 1.90044 11.9107ZM16.8903 28.129H11.1161V21.1858H16.8904V28.129H16.8903ZM18.782 28.129V20.2399C18.782 19.7176 18.3586 19.2941 17.8362 19.2941H10.1703C9.64792 19.2941 9.22441 19.7176 9.22441 20.2399V28.129H5.16265V16.0113C6.08812 15.7978 6.89771 15.2781 7.47894 14.5651C9.16683 16.6354 12.3138 16.6374 14.0032 14.5651C15.6911 16.6354 18.8381 16.6374 20.5276 14.5651C21.1088 15.2781 21.9184 15.7978 22.8438 16.0113V28.129H18.782ZM26.106 11.9107C26.106 13.1879 25.0669 14.227 23.7896 14.227C22.5125 14.227 21.4734 13.1879 21.4734 11.9107V7.63132H26.1059V11.9107H26.106Z" fill="#22215B"/>
</svg>
