<svg width="335" height="360" viewBox="0 0 335 360" fill="none" xmlns="http://www.w3.org/2000/svg">
<path d="M0.478648 271.137C0.214298 271.137 0 270.923 0 270.66C0 270.398 0.214298 270.184 0.478648 270.184H43.9378C44.2021 270.184 44.4164 270.398 44.4164 270.66C44.4164 270.923 44.2021 271.137 43.9378 271.137H0.478648Z" fill="black"/>
<path d="M0.478648 280.341C0.214298 280.341 0 280.127 0 279.865C0 279.602 0.214298 279.388 0.478648 279.388H63.0837C63.3481 279.388 63.5624 279.602 63.5624 279.865C63.5624 280.127 63.3481 280.341 63.0837 280.341H0.478648Z" fill="black"/>
<path d="M61.5528 358.014C61.5528 358.716 60.9813 359.284 60.2764 359.284C59.5715 359.284 59 358.716 59 358.014C59 357.313 59.5715 356.745 60.2764 356.745C60.9813 356.745 61.5528 357.313 61.5528 358.014ZM61.5528 349.128C61.5528 349.829 60.9813 350.397 60.2764 350.397C59.5715 350.397 59 349.829 59 349.128C59 348.427 59.5715 347.858 60.2764 347.858C60.9813 347.858 61.5528 348.427 61.5528 349.128ZM61.5528 340.241C61.5528 340.942 60.9813 341.511 60.2764 341.511C59.5715 341.511 59 340.942 59 340.241C59 339.54 59.5715 338.971 60.2764 338.971C60.9813 338.971 61.5528 339.54 61.5528 340.241ZM61.5528 331.354C61.5528 332.055 60.9813 332.624 60.2764 332.624C59.5715 332.624 59 332.055 59 331.354C59 330.653 59.5715 330.085 60.2764 330.085C60.9813 330.085 61.5528 330.653 61.5528 331.354ZM61.5528 322.468C61.5528 323.169 60.9813 323.737 60.2764 323.737C59.5715 323.737 59 323.169 59 322.468C59 321.766 59.5715 321.198 60.2764 321.198C60.9813 321.198 61.5528 321.766 61.5528 322.468ZM61.5528 313.581C61.5528 314.282 60.9813 314.85 60.2764 314.85C59.5715 314.85 59 314.282 59 313.581C59 312.88 59.5715 312.311 60.2764 312.311C60.9813 312.311 61.5528 312.88 61.5528 313.581ZM70.4876 358.014C70.4876 358.716 69.9161 359.284 69.2112 359.284C68.5062 359.284 67.9348 358.716 67.9348 358.014C67.9348 357.313 68.5062 356.745 69.2112 356.745C69.9161 356.745 70.4876 357.313 70.4876 358.014ZM79.4223 358.014C79.4223 358.716 78.8509 359.284 78.1459 359.284C77.441 359.284 76.8695 358.716 76.8695 358.014C76.8695 357.313 77.441 356.745 78.1459 356.745C78.8509 356.745 79.4223 357.313 79.4223 358.014ZM70.4876 349.128C70.4876 349.829 69.9161 350.397 69.2112 350.397C68.5062 350.397 67.9348 349.829 67.9348 349.128C67.9348 348.427 68.5062 347.858 69.2112 347.858C69.9161 347.858 70.4876 348.427 70.4876 349.128ZM79.4223 349.128C79.4223 349.829 78.8509 350.397 78.1459 350.397C77.441 350.397 76.8695 349.829 76.8695 349.128C76.8695 348.427 77.441 347.858 78.1459 347.858C78.8509 347.858 79.4223 348.427 79.4223 349.128ZM70.4876 340.241C70.4876 340.942 69.9161 341.511 69.2112 341.511C68.5062 341.511 67.9348 340.942 67.9348 340.241C67.9348 339.54 68.5062 338.971 69.2112 338.971C69.9161 338.971 70.4876 339.54 70.4876 340.241ZM79.4223 340.241C79.4223 340.942 78.8509 341.511 78.1459 341.511C77.441 341.511 76.8695 340.942 76.8695 340.241C76.8695 339.54 77.441 338.971 78.1459 338.971C78.8509 338.971 79.4223 339.54 79.4223 340.241ZM70.4876 331.354C70.4876 332.055 69.9161 332.624 69.2112 332.624C68.5062 332.624 67.9348 332.055 67.9348 331.354C67.9348 330.653 68.5062 330.085 69.2112 330.085C69.9161 330.085 70.4876 330.653 70.4876 331.354ZM79.4223 331.354C79.4223 332.055 78.8509 332.624 78.1459 332.624C77.441 332.624 76.8695 332.055 76.8695 331.354C76.8695 330.653 77.441 330.085 78.1459 330.085C78.8509 330.085 79.4223 330.653 79.4223 331.354ZM70.4876 322.468C70.4876 323.169 69.9161 323.737 69.2112 323.737C68.5062 323.737 67.9348 323.169 67.9348 322.468C67.9348 321.766 68.5062 321.198 69.2112 321.198C69.9161 321.198 70.4876 321.766 70.4876 322.468ZM79.4223 322.468C79.4223 323.169 78.8509 323.737 78.1459 323.737C77.441 323.737 76.8695 323.169 76.8695 322.468C76.8695 321.766 77.441 321.198 78.1459 321.198C78.8509 321.198 79.4223 321.766 79.4223 322.468ZM70.4876 313.581C70.4876 314.282 69.9161 314.85 69.2112 314.85C68.5062 314.85 67.9348 314.282 67.9348 313.581C67.9348 312.88 68.5062 312.311 69.2112 312.311C69.9161 312.311 70.4876 312.88 70.4876 313.581ZM79.4223 313.581C79.4223 314.282 78.8509 314.85 78.1459 314.85C77.441 314.85 76.8695 314.282 76.8695 313.581C76.8695 312.88 77.441 312.311 78.1459 312.311C78.8509 312.311 79.4223 312.88 79.4223 313.581ZM88.3571 358.014C88.3571 358.716 87.7856 359.284 87.0807 359.284C86.3758 359.284 85.8043 358.716 85.8043 358.014C85.8043 357.313 86.3758 356.745 87.0807 356.745C87.7856 356.745 88.3571 357.313 88.3571 358.014ZM97.2919 358.014C97.2919 358.716 96.7204 359.284 96.0155 359.284C95.3105 359.284 94.7391 358.716 94.7391 358.014C94.7391 357.313 95.3105 356.745 96.0155 356.745C96.7204 356.745 97.2919 357.313 97.2919 358.014ZM88.3571 349.128C88.3571 349.829 87.7856 350.397 87.0807 350.397C86.3758 350.397 85.8043 349.829 85.8043 349.128C85.8043 348.427 86.3758 347.858 87.0807 347.858C87.7856 347.858 88.3571 348.427 88.3571 349.128ZM97.2919 349.128C97.2919 349.829 96.7204 350.397 96.0155 350.397C95.3105 350.397 94.7391 349.829 94.7391 349.128C94.7391 348.427 95.3105 347.858 96.0155 347.858C96.7204 347.858 97.2919 348.427 97.2919 349.128ZM88.3571 340.241C88.3571 340.942 87.7856 341.511 87.0807 341.511C86.3758 341.511 85.8043 340.942 85.8043 340.241C85.8043 339.54 86.3758 338.971 87.0807 338.971C87.7856 338.971 88.3571 339.54 88.3571 340.241ZM97.2919 340.241C97.2919 340.942 96.7204 341.511 96.0155 341.511C95.3105 341.511 94.7391 340.942 94.7391 340.241C94.7391 339.54 95.3105 338.971 96.0155 338.971C96.7204 338.971 97.2919 339.54 97.2919 340.241ZM88.3571 331.354C88.3571 332.055 87.7856 332.624 87.0807 332.624C86.3758 332.624 85.8043 332.055 85.8043 331.354C85.8043 330.653 86.3758 330.085 87.0807 330.085C87.7856 330.085 88.3571 330.653 88.3571 331.354ZM97.2919 331.354C97.2919 332.055 96.7204 332.624 96.0155 332.624C95.3105 332.624 94.7391 332.055 94.7391 331.354C94.7391 330.653 95.3105 330.085 96.0155 330.085C96.7204 330.085 97.2919 330.653 97.2919 331.354ZM88.3571 322.468C88.3571 323.169 87.7856 323.737 87.0807 323.737C86.3758 323.737 85.8043 323.169 85.8043 322.468C85.8043 321.766 86.3758 321.198 87.0807 321.198C87.7856 321.198 88.3571 321.766 88.3571 322.468ZM97.2919 322.468C97.2919 323.169 96.7204 323.737 96.0155 323.737C95.3105 323.737 94.7391 323.169 94.7391 322.468C94.7391 321.766 95.3105 321.198 96.0155 321.198C96.7204 321.198 97.2919 321.766 97.2919 322.468ZM88.3571 313.581C88.3571 314.282 87.7856 314.85 87.0807 314.85C86.3758 314.85 85.8043 314.282 85.8043 313.581C85.8043 312.88 86.3758 312.311 87.0807 312.311C87.7856 312.311 88.3571 312.88 88.3571 313.581ZM97.2919 313.581C97.2919 314.282 96.7204 314.85 96.0155 314.85C95.3105 314.85 94.7391 314.282 94.7391 313.581C94.7391 312.88 95.3105 312.311 96.0155 312.311C96.7204 312.311 97.2919 312.88 97.2919 313.581ZM106.227 358.014C106.227 358.716 105.655 359.284 104.95 359.284C104.245 359.284 103.674 358.716 103.674 358.014C103.674 357.313 104.245 356.745 104.95 356.745C105.655 356.745 106.227 357.313 106.227 358.014ZM115.161 358.014C115.161 358.716 114.59 359.284 113.885 359.284C113.18 359.284 112.609 358.716 112.609 358.014C112.609 357.313 113.18 356.745 113.885 356.745C114.59 356.745 115.161 357.313 115.161 358.014ZM106.227 349.128C106.227 349.829 105.655 350.397 104.95 350.397C104.245 350.397 103.674 349.829 103.674 349.128C103.674 348.427 104.245 347.858 104.95 347.858C105.655 347.858 106.227 348.427 106.227 349.128ZM115.161 349.128C115.161 349.829 114.59 350.397 113.885 350.397C113.18 350.397 112.609 349.829 112.609 349.128C112.609 348.427 113.18 347.858 113.885 347.858C114.59 347.858 115.161 348.427 115.161 349.128ZM106.227 340.241C106.227 340.942 105.655 341.511 104.95 341.511C104.245 341.511 103.674 340.942 103.674 340.241C103.674 339.54 104.245 338.971 104.95 338.971C105.655 338.971 106.227 339.54 106.227 340.241ZM115.161 340.241C115.161 340.942 114.59 341.511 113.885 341.511C113.18 341.511 112.609 340.942 112.609 340.241C112.609 339.54 113.18 338.971 113.885 338.971C114.59 338.971 115.161 339.54 115.161 340.241ZM106.227 331.354C106.227 332.055 105.655 332.624 104.95 332.624C104.245 332.624 103.674 332.055 103.674 331.354C103.674 330.653 104.245 330.085 104.95 330.085C105.655 330.085 106.227 330.653 106.227 331.354ZM115.161 331.354C115.161 332.055 114.59 332.624 113.885 332.624C113.18 332.624 112.609 332.055 112.609 331.354C112.609 330.653 113.18 330.085 113.885 330.085C114.59 330.085 115.161 330.653 115.161 331.354ZM106.227 322.468C106.227 323.169 105.655 323.737 104.95 323.737C104.245 323.737 103.674 323.169 103.674 322.468C103.674 321.766 104.245 321.198 104.95 321.198C105.655 321.198 106.227 321.766 106.227 322.468ZM115.161 322.468C115.161 323.169 114.59 323.737 113.885 323.737C113.18 323.737 112.609 323.169 112.609 322.468C112.609 321.766 113.18 321.198 113.885 321.198C114.59 321.198 115.161 321.766 115.161 322.468ZM106.227 313.581C106.227 314.282 105.655 314.85 104.95 314.85C104.245 314.85 103.674 314.282 103.674 313.581C103.674 312.88 104.245 312.311 104.95 312.311C105.655 312.311 106.227 312.88 106.227 313.581ZM115.161 313.581C115.161 314.282 114.59 314.85 113.885 314.85C113.18 314.85 112.609 314.282 112.609 313.581C112.609 312.88 113.18 312.311 113.885 312.311C114.59 312.311 115.161 312.88 115.161 313.581Z" fill="black"/>
<path d="M310.65 267.035C310.803 269.131 310.88 271.248 310.88 273.382C310.88 320.493 273.079 358.821 226 360L226 313.939C247.356 312.706 264.292 295.091 264.292 273.541C264.292 271.326 264.113 269.153 263.769 267.035H310.65Z" fill="#233067"/>
<path d="M286.939 275.026C291.43 280.416 288.459 288.372 277.547 297.094C259.956 311.155 251.093 330.518 250.95 355.225C258.78 352.654 266.184 348.979 272.954 344.326C273.565 335.763 275.324 327.941 278.79 320.509C283.19 311.072 290.111 302.928 300.044 296.327C303.313 294.155 306.262 291.875 308.891 289.489C309.893 284.217 310.402 278.832 310.402 273.382C310.402 271.417 310.336 269.459 310.204 267.511H296.299L284.777 273.07C285.609 273.649 286.335 274.302 286.939 275.026ZM263.393 283.387C263.03 283.562 262.625 283.239 262.719 282.848C263.444 279.824 263.813 276.707 263.813 273.541C263.813 272.803 263.793 272.067 263.753 271.334C263.741 271.104 263.895 270.899 264.12 270.845C272.215 268.918 280.135 269.84 284.777 273.07L263.393 283.387ZM282.776 272.977C278.355 270.687 271.644 270.113 264.729 271.681C264.757 272.299 264.771 272.919 264.771 273.541C264.771 276.444 264.467 279.307 263.87 282.099L282.776 272.977ZM282.776 272.977L295.981 266.606C296.046 266.575 296.117 266.559 296.189 266.559H310.65C310.901 266.559 311.11 266.751 311.128 267C311.282 269.117 311.359 271.245 311.359 273.382C311.359 278.946 310.835 284.442 309.802 289.823C309.782 289.923 309.731 290.015 309.655 290.084C306.96 292.543 303.933 294.888 300.575 297.119C290.79 303.621 283.986 311.63 279.658 320.91C276.216 328.291 274.482 336.075 273.893 344.62C273.884 344.764 273.808 344.896 273.689 344.978C266.61 349.87 258.842 353.703 250.616 356.335C250.307 356.434 249.991 356.204 249.991 355.882C249.98 330.581 258.968 310.723 276.947 296.352C287.498 287.919 290.265 280.509 286.202 275.634C285.329 274.587 284.166 273.697 282.776 272.977ZM235.161 312.849C234.756 316.285 234.078 320.028 233.01 324.497C230.137 336.518 232.766 356.684 237.909 358.409C238.725 358.276 239.538 358.132 240.347 357.976C241.059 357.533 241.811 356.824 242.597 355.84C244.408 353.575 245.333 349.472 245.575 343.333C245.761 338.627 245.626 334.675 245.045 323.643C244.851 319.951 244.749 317.861 244.656 315.563C244.558 313.131 244.494 310.928 244.465 308.846C241.546 310.555 238.424 311.901 235.161 312.849ZM245.412 308.004C245.434 310.321 245.501 312.775 245.612 315.525C245.705 317.818 245.807 319.905 246.001 323.594C246.583 334.659 246.719 338.623 246.532 343.37C246.282 349.698 245.32 353.963 243.346 356.433C242.468 357.531 241.611 358.33 240.771 358.834C240.723 358.863 240.671 358.883 240.616 358.894C239.731 359.065 238.843 359.223 237.952 359.367C237.882 359.379 237.81 359.374 237.742 359.355C234.694 358.477 232.519 353.127 231.486 345.286C230.535 338.07 230.745 329.856 232.079 324.277C233.171 319.707 233.85 315.909 234.246 312.425C234.268 312.233 234.404 312.074 234.591 312.021C238.151 311.018 241.544 309.529 244.682 307.604C245 307.409 245.409 307.634 245.412 308.004Z" fill="white"/>
<path d="M262.299 223.37C239.83 223.37 221.614 205.253 221.614 182.904C221.614 160.555 239.83 142.438 262.299 142.438C284.769 142.438 302.984 160.555 302.984 182.904C302.984 205.253 284.769 223.37 262.299 223.37ZM262.299 222.418C284.24 222.418 302.027 204.727 302.027 182.904C302.027 161.081 284.24 143.39 262.299 143.39C240.358 143.39 222.572 161.081 222.572 182.904C222.572 204.727 240.358 222.418 262.299 222.418Z" fill="#22215B"/>
<path d="M260.385 207.66C273.779 207.66 284.636 196.861 284.636 183.539C284.636 170.217 273.779 159.418 260.385 159.418C246.991 159.418 236.133 170.217 236.133 183.539C236.133 196.861 246.991 207.66 260.385 207.66Z" fill="#22215B"/>
<path d="M262.299 207.501C248.641 207.501 237.569 196.489 237.569 182.904C237.569 169.319 248.641 158.307 262.299 158.307C275.957 158.307 287.029 169.319 287.029 182.904C287.029 196.489 275.957 207.501 262.299 207.501Z" fill="black"/>
<path d="M262.299 206.549C275.429 206.549 286.072 195.963 286.072 182.904C286.072 169.845 275.429 159.259 262.299 159.259C249.17 159.259 238.526 169.845 238.526 182.904C238.526 195.963 249.17 206.549 262.299 206.549Z" fill="white"/>
<path d="M110.727 124.188C136.81 124.188 157.954 103.158 157.954 77.2156C157.954 51.2734 136.81 30.243 110.727 30.243C84.6448 30.243 63.5007 51.2734 63.5007 77.2156C63.5007 103.158 84.6448 124.188 110.727 124.188Z" fill="#FFC700"/>
<path d="M142.276 45.6841C145.629 48.0173 147.068 51.3977 146.166 55.3702C145.186 59.6922 141.497 64.5518 135.046 69.7082C118.458 82.9676 109.632 100.941 108.559 123.663C109.279 123.696 110.002 123.712 110.727 123.712C117.581 123.712 124.224 122.245 130.308 119.449C130.71 110.57 132.217 102.605 135.496 94.9013C139.733 84.9493 146.652 76.3645 156.822 69.4264C155.236 60.0736 150.808 51.497 144.199 44.7563L142.276 45.6841ZM102.869 64.6966C102.965 64.0875 103.069 63.4899 103.181 62.9024C104.733 54.7603 107.863 49.2792 113.027 46.6298C123.299 41.3599 135.717 41.1223 142.274 45.6825C142.274 45.683 142.275 45.6836 142.276 45.6841L102.869 64.6966ZM94.4784 68.745C94.3425 69.7423 94.225 70.7567 94.1244 71.7901C93.7685 75.4482 93.6703 78.1411 93.5798 84.0734C93.5046 89.0017 93.411 90.9795 93.0696 92.9117C92.6201 95.4556 91.7482 96.9509 90.1918 97.4539C84.694 99.2306 83.3526 107.268 86.0285 116.7C91.0006 119.784 96.5162 121.915 102.324 122.963C102.923 120.044 103.17 116.299 103.139 111.466C103.114 107.624 102.989 104.697 102.545 96.2573C102.351 92.5654 102.248 90.4747 102.155 88.1767C101.751 78.1784 101.902 70.8511 102.869 64.6966L94.4784 68.745ZM94.4784 68.745L78.7474 76.3347C78.387 76.5086 77.984 76.1915 78.0713 75.8026C81.6812 59.7223 88.4016 44.9607 98.2306 31.5214C98.2954 31.4328 98.3888 31.3692 98.4953 31.3412C101.608 30.5223 104.81 30.0175 108.067 29.8394C108.43 29.8195 108.682 30.1945 108.525 30.5209C103.354 41.227 99.7655 49.4851 97.0082 57.6719C96.9815 57.7514 96.9549 57.8309 96.9285 57.9105C95.7924 61.339 95.0003 64.9154 94.4784 68.745ZM113.466 47.4761C108.621 49.9616 105.636 55.1751 104.131 63.0296L140.277 45.5901C133.751 42.1849 122.721 42.728 113.466 47.4761ZM104.121 63.0797C102.895 69.5154 102.671 77.2178 103.112 88.1385C103.204 90.4316 103.307 92.5193 103.501 96.2076C103.945 104.663 104.072 107.597 104.096 111.46C104.129 116.608 103.85 120.55 103.163 123.615C103.108 123.863 102.867 124.024 102.615 123.981C96.456 122.931 90.6103 120.692 85.3637 117.41C85.264 117.347 85.1909 117.25 85.1584 117.138C82.291 107.197 83.6996 98.5508 89.896 96.5484C91.0319 96.1812 91.7321 94.9805 92.1268 92.7469C92.4558 90.8848 92.5483 88.9294 92.6226 84.059C92.7135 78.1013 92.8124 75.3904 93.1716 71.6984C93.2903 70.4776 93.4326 69.2826 93.6006 68.1102L104.131 63.0296C104.128 63.0463 104.125 63.063 104.121 63.0797ZM96.0193 57.6125C96.0462 57.5314 96.0733 57.4504 96.1005 57.3695C98.8099 49.3249 102.311 41.2266 107.308 30.8414C104.453 31.0467 101.644 31.5087 98.9045 32.2187C89.4035 45.2467 82.8447 59.5211 79.2263 75.0454L93.6006 68.1102C94.1299 64.4161 94.914 60.9479 96.0193 57.6125ZM140.277 45.5901L144.091 43.7504C144.275 43.6615 144.496 43.6991 144.64 43.8439C151.591 50.8317 156.225 59.7936 157.817 69.5722C157.847 69.7549 157.767 69.9381 157.613 70.0421C147.46 76.9053 140.579 85.4042 136.378 95.2725C133.113 102.942 131.63 110.888 131.252 119.779C131.244 119.956 131.138 120.115 130.977 120.19C124.695 123.123 117.821 124.664 110.727 124.664C109.826 124.664 108.928 124.639 108.033 124.59C107.771 124.575 107.57 124.355 107.581 124.094C108.565 100.881 117.524 82.4927 134.447 68.966C146.47 59.3557 148.35 51.0705 141.725 46.4628C141.272 46.1478 140.789 45.8568 140.277 45.5901Z" fill="white"/>
<path d="M166.57 139.082L134.956 170.526H132.461L166.57 136.601V139.082ZM166.57 148.389L144.313 170.526H141.818L166.57 145.908V148.389ZM166.57 157.696L153.67 170.526H151.175L166.57 155.215V157.696ZM166.57 167.003L163.028 170.526H160.533L166.57 164.522V167.003ZM166.57 129.509L125.331 170.526H122.836L166.57 127.028V129.509ZM166.57 119.936L115.706 170.526H113.211L166.57 117.455V119.936ZM166.57 110.363L106.081 170.526H103.587L166.57 107.882V110.363ZM166.57 100.79L96.4567 170.526H93.9618L166.57 98.3089V100.79ZM165.968 91.8152L87.4331 169.928V167.447L163.474 91.8152H165.968ZM156.344 91.8152L87.4331 160.355V157.874L153.849 91.8152H156.344ZM146.719 91.8152L87.4331 150.782V148.301L144.224 91.8152H146.719ZM137.094 91.8152L87.4331 141.209V138.728L134.6 91.8152H137.094ZM127.47 91.8152L87.4331 131.636V129.155L124.975 91.8152H127.47ZM117.845 91.8152L87.4331 122.063V119.582L115.35 91.8152H117.845ZM108.22 91.8152L87.4331 112.491V110.009L105.725 91.8152H108.22ZM98.5955 91.8152L87.4331 102.918V100.436L96.1007 91.8152H98.5955ZM88.9708 91.8152L87.4331 93.3446V91.8152H88.9708Z" fill="black"/>
<path d="M308.128 28.6653V43.2006C308.128 44.6528 308.995 45.4905 310.817 45.9464C312.289 46.3148 313.796 46.3903 317.413 46.3903C321.119 46.3903 322.663 46.4676 324.243 46.8629C326.449 47.415 327.656 48.5804 327.656 50.5321C327.656 52.48 326.453 53.674 324.253 54.279C322.662 54.7169 320.992 54.8365 317.421 54.8963C313.629 54.959 312.158 55.0529 310.725 55.4163C308.961 55.8637 308.128 56.6419 308.128 57.9545C308.128 59.2625 308.955 60.0657 310.699 60.5644C312.114 60.9693 313.577 61.1081 317.076 61.273C317.256 61.2815 317.338 61.2854 317.436 61.29C320.964 61.4577 322.674 61.6384 324.271 62.1421C326.462 62.8336 327.656 64.0895 327.656 66.0722C327.656 68.0608 326.452 69.3095 324.261 69.953C322.629 70.4324 320.681 70.5777 317.414 70.5856C317.095 70.5864 316.838 70.5862 316.268 70.5853C312.989 70.5799 311.664 70.6291 310.375 70.8824C308.827 71.1864 308.128 71.7279 308.128 72.625C308.128 73.6135 308.981 74.2525 310.8 74.6393C312.287 74.9555 313.823 75.0511 317.425 75.138C321.15 75.2279 322.683 75.3218 324.241 75.6488C326.439 76.11 327.656 77.0109 327.656 78.5551C327.656 80.1901 327.143 81.2867 326.15 81.9358C325.403 82.4239 324.57 82.6081 323.092 82.7381C322.993 82.7467 322.931 82.752 322.734 82.7686C320.926 82.9203 320.24 83.0957 319.792 83.6459C318.697 84.9921 318.336 86.913 318.736 89.4374C318.777 89.6972 318.598 89.9408 318.337 89.9817C318.076 90.0226 317.831 89.8452 317.79 89.5854C317.352 86.8157 317.763 84.6266 319.048 83.047C319.73 82.2083 320.564 81.9951 322.653 81.8198C322.849 81.8034 322.911 81.7981 323.007 81.7897C325.75 81.5484 326.698 80.9287 326.698 78.5551C326.698 77.5869 325.852 76.9598 324.044 76.5805C322.566 76.2704 321.06 76.1782 317.446 76.091C313.732 76.0014 312.169 75.904 310.6 75.5704C308.392 75.1009 307.17 74.1862 307.17 72.625C307.17 71.1633 308.247 70.3298 310.189 69.9483C311.566 69.6778 312.918 69.6276 316.27 69.6331C316.838 69.6341 317.094 69.6342 317.412 69.6335C320.589 69.6258 322.474 69.4852 323.99 69.0399C325.81 68.5051 326.698 67.5841 326.698 66.0722C326.698 64.5604 325.812 63.6272 323.981 63.0496C322.493 62.5803 320.83 62.4046 317.39 62.2411C317.292 62.2365 317.21 62.2326 317.031 62.2241C313.448 62.0553 311.95 61.9131 310.434 61.4795C308.322 60.8755 307.17 59.7569 307.17 57.9545C307.17 56.1339 308.345 55.0374 310.489 54.4936C312.023 54.1045 313.529 54.0084 317.156 53.9484C320.888 53.8859 322.514 53.7695 323.998 53.3613C325.822 52.8595 326.698 51.9901 326.698 50.5321C326.698 49.0799 325.831 48.2422 324.009 47.7862C322.537 47.4179 321.03 47.3424 317.413 47.3424C313.707 47.3424 312.163 47.2651 310.583 46.8698C308.377 46.3177 307.17 45.1523 307.17 43.2006V28.6653C307.17 25.5452 307.528 22.5904 308.194 19.8434H239.643C239.379 19.8434 239.165 19.6303 239.165 19.3673C239.165 19.1044 239.379 18.8913 239.643 18.8913H308.44C310.434 11.5967 314.639 5.85814 320.076 2.51857C326.989 -1.72703 333.839 -0.543769 334.653 5.60546C335.743 13.8483 327.781 18.5619 311.074 19.842L309.179 19.8434C308.496 22.5799 308.128 25.5354 308.128 28.6653ZM311.019 18.8913C327.236 17.6458 334.695 13.2266 333.704 5.72968C333.003 0.431709 326.988 -0.607266 320.579 3.3287C315.413 6.50195 311.389 11.9466 309.432 18.8913H311.019Z" fill="#22215B"/>
<path d="M318.142 101.884C316.115 101.884 314.472 100.25 314.472 98.2339C314.472 96.2181 316.115 94.584 318.142 94.584C320.168 94.584 321.811 96.2181 321.811 98.2339C321.811 100.25 320.168 101.884 318.142 101.884ZM318.142 100.932C319.64 100.932 320.854 99.7238 320.854 98.2339C320.854 96.7439 319.64 95.5361 318.142 95.5361C316.644 95.5361 315.429 96.7439 315.429 98.2339C315.429 99.7238 316.644 100.932 318.142 100.932Z" fill="#22215B"/>
<path d="M232.304 23.4902C230.277 23.4902 228.634 21.8561 228.634 19.8403C228.634 17.8245 230.277 16.1904 232.304 16.1904C234.331 16.1904 235.974 17.8245 235.974 19.8403C235.974 21.8561 234.331 23.4902 232.304 23.4902ZM232.304 22.5381C233.802 22.5381 235.016 21.3302 235.016 19.8403C235.016 18.3504 233.802 17.1425 232.304 17.1425C230.806 17.1425 229.592 18.3504 229.592 19.8403C229.592 21.3302 230.806 22.5381 232.304 22.5381Z" fill="#22215B"/>
<path d="M26.9158 67.5946V60.0503C19.4823 59.2959 12.1248 56.6553 6.43591 52.5814L13.2625 42.5474C18.117 45.9424 22.6681 47.9793 27.3709 48.7338V39.6806C15.1588 36.8892 8.93901 32.7398 8.93901 23.3848V23.2339C8.93901 14.3316 15.4622 8.1452 27.0675 7.31532V3.01505H34.956V7.54165C41.1758 8.22064 46.4096 10.3331 50.9607 13.4262L44.7409 23.5357C41.631 21.3478 37.9901 19.8389 34.5768 19.0091V27.7605C46.6371 30.5519 52.7053 34.8522 52.7053 44.2072V44.3581C52.7053 53.5622 45.5752 59.2204 34.8043 60.2012V67.5946H26.9158ZM27.4467 26.478V18.3301C23.73 18.6318 22.2889 20.1407 22.2889 22.1022V22.2531C22.2889 24.2147 23.3508 25.3463 27.4467 26.478ZM34.5009 49.1864C37.9901 48.8092 39.583 47.5267 39.583 45.3388V45.1879C39.583 43.151 38.4452 42.0193 34.5009 40.8877V49.1864Z" fill="#22215B"/>
<path d="M25.6397 64.7397V57.1953C18.2062 56.4409 10.8486 53.8004 5.15979 49.7264L11.9864 39.6924C16.8409 43.0874 21.392 45.1244 26.0948 45.8788V36.8256C13.8827 34.0342 7.66289 29.8848 7.66289 20.5298V20.3789C7.66289 11.4766 14.1861 5.29022 25.7914 4.46034V0.160065H33.6799V4.68667C39.8997 5.36566 45.1335 7.47808 49.6845 10.5713L43.4647 20.6807C40.3548 18.4928 36.714 16.984 33.3006 16.1541V24.9055C45.361 27.6969 51.4291 31.9972 51.4291 41.3522V41.5031C51.4291 50.7072 44.2991 56.3654 33.5282 57.3462V64.7397H25.6397ZM26.1706 23.623V15.4751C22.4539 15.7769 21.0127 17.2857 21.0127 19.2473V19.3981C21.0127 21.3597 22.0746 22.4913 26.1706 23.623ZM33.2248 46.3315C36.714 45.9542 38.3068 44.6717 38.3068 42.4838V42.333C38.3068 40.296 37.1691 39.1643 33.2248 38.0327V46.3315Z" fill="white"/>
<path d="M33.3683 64.5796V57.3448C33.3683 57.2628 33.4312 57.1943 33.5133 57.1868C44.5126 56.1852 51.2692 50.3814 51.2692 41.5017C51.2692 32.536 45.9816 28.0022 33.2641 25.0587C33.1919 25.042 33.1407 24.9779 33.1407 24.9041V16.1527C33.1407 16.0498 33.2377 15.9741 33.3382 15.9986C36.927 16.8711 40.4729 18.4105 43.417 20.4523L49.4688 10.616C44.7387 7.42882 39.5385 5.48454 33.6622 4.84304C33.5813 4.83421 33.52 4.76624 33.52 4.6853V0.317383H25.9506V4.45897C25.9506 4.5422 25.8859 4.61128 25.8025 4.61725C14.4795 5.42694 7.82208 11.3966 7.82208 20.3775C7.82208 29.2885 13.1422 33.7008 26.1302 36.6696C26.2026 36.6861 26.254 36.7503 26.254 36.8242V45.8774C26.254 45.9752 26.166 46.0497 26.069 46.0341C21.4383 45.2912 16.9101 43.3073 12.0273 39.9136L5.37863 49.686C10.9827 53.6611 18.2448 56.2839 25.6555 57.0361C25.7369 57.0443 25.7989 57.1125 25.7989 57.1939V64.5796H33.3683ZM33.6874 57.4894V64.7383C33.6874 64.8259 33.616 64.897 33.5279 64.897H25.6393C25.5512 64.897 25.4798 64.8259 25.4798 64.7383V57.337C18.0089 56.5545 10.6978 53.8867 5.06621 49.8538C4.99617 49.8037 4.97893 49.7072 5.0273 49.6361L11.8539 39.6021C11.9039 39.5286 12.0048 39.5102 12.0778 39.5612C16.9088 42.9398 21.3778 44.9259 25.9349 45.6904V36.9505C12.9086 33.9524 7.50299 29.4411 7.50299 20.5284C7.50299 11.2563 14.2421 5.17412 25.6315 4.31159V0.158691C25.6315 0.0710486 25.7029 0 25.791 0H33.6796C33.7677 0 33.8391 0.0710486 33.8391 0.158691V4.54334C39.7621 5.21217 45.0062 7.19822 49.7742 10.4389C49.8444 10.4866 49.8647 10.5806 49.8203 10.6527L43.6005 20.7621C43.5523 20.8404 43.4476 20.8619 43.3722 20.8089C40.4886 18.7802 37.0004 17.2411 33.4598 16.3555V24.7782C46.2165 27.7525 51.5883 32.3872 51.5883 41.3508C51.5883 50.5245 44.752 56.4361 33.6874 57.4894ZM26.3298 23.6216C26.3298 23.7266 26.2292 23.8026 26.1276 23.7745C22.1562 22.6773 20.8528 21.5548 20.8528 19.3968V19.2459C20.8528 17.0121 22.6132 15.6033 26.1573 15.3155C26.2502 15.308 26.3298 15.381 26.3298 15.4737V23.6216ZM26.0107 15.6469C22.7336 15.952 21.1719 17.2361 21.1719 19.2459V19.3968C21.1719 21.3438 22.3217 22.3685 26.0107 23.4122V15.6469ZM33.2417 46.4879C33.1473 46.4981 33.0649 46.4245 33.0649 46.3301V38.0313C33.0649 37.9257 33.1667 37.8496 33.2687 37.8788C37.1557 38.994 38.466 40.1384 38.466 42.3316V42.4825C38.466 44.7953 36.7586 46.1076 33.2417 46.4879ZM38.1469 42.4825V42.3316C38.1469 40.3496 36.9899 39.303 33.384 38.243V46.1522C36.6352 45.7649 38.1469 44.5662 38.1469 42.4825Z" fill="black"/>
<path d="M2.87195 215.912H16.5932V252.728H2.87195V215.912Z" fill="black"/>
<path d="M24.2516 200.043H37.9728V252.728H24.2516V200.043Z" fill="black"/>
<path d="M45.3121 225.433H59.0334V252.728H45.3121V225.433Z" fill="black"/>
<path d="M66.6918 241.303H80.413V252.728H66.6918V241.303Z" fill="black"/>
<path d="M0.638489 214.327H14.3597V251.143H0.638489V214.327ZM22.0181 198.457H35.7394V251.143H22.0181V198.457ZM43.0786 223.848H56.7999V251.143H43.0786V223.848ZM64.4583 239.717H78.1795V251.143H64.4583V239.717Z" fill="white"/>
<path d="M0.797737 214.484V250.983H14.1999V214.484H0.797737ZM0.638187 214.166H14.3594C14.4476 214.166 14.519 214.237 14.519 214.325V251.141C14.519 251.229 14.4476 251.3 14.3594 251.3H0.638187C0.55007 251.3 0.478638 251.229 0.478638 251.141V214.325C0.478638 214.237 0.55007 214.166 0.638187 214.166ZM22.1774 198.615V250.983H35.5795V198.615H22.1774ZM22.0178 198.297H35.7391C35.8272 198.297 35.8986 198.368 35.8986 198.456V251.141C35.8986 251.229 35.8272 251.3 35.7391 251.3H22.0178C21.9297 251.3 21.8583 251.229 21.8583 251.141V198.456C21.8583 198.368 21.9297 198.297 22.0178 198.297ZM43.2379 224.005V250.983H56.64V224.005H43.2379ZM43.0783 223.688H56.7996C56.8877 223.688 56.9591 223.759 56.9591 223.846V251.141C56.9591 251.229 56.8877 251.3 56.7996 251.3H43.0783C42.9902 251.3 42.9188 251.229 42.9188 251.141V223.846C42.9188 223.759 42.9902 223.688 43.0783 223.688ZM64.6175 239.874V250.983H78.0197V239.874H64.6175ZM64.458 239.557H78.1792C78.2673 239.557 78.3388 239.628 78.3388 239.716V251.141C78.3388 251.229 78.2673 251.3 78.1792 251.3H64.458C64.3699 251.3 64.2984 251.229 64.2984 251.141V239.716C64.2984 239.628 64.3699 239.557 64.458 239.557Z" fill="black"/>
<path d="M31.9097 136.884V168.939H59.6861C57.681 182.408 46.0088 192.743 31.9097 192.743C16.4011 192.743 3.82898 180.238 3.82898 164.813C3.82898 149.388 16.4011 136.884 31.9097 136.884Z" fill="#22215B"/>
<path d="M30.6331 134.345V166.4H58.4095C56.4044 179.869 44.7322 190.204 30.6331 190.204C15.1245 190.204 2.55237 177.699 2.55237 162.274C2.55237 146.849 15.1245 134.345 30.6331 134.345Z" fill="white"/>
<path d="M30.4736 134.504C15.1266 134.589 2.71204 146.99 2.71204 162.274C2.71204 177.612 15.2128 190.045 30.6332 190.045C44.4555 190.045 56.133 179.993 58.2241 166.559H30.6332C30.5451 166.559 30.4736 166.488 30.4736 166.4V134.504ZM30.7927 166.242H58.4096C58.507 166.242 58.5817 166.328 58.5675 166.423C56.5308 180.104 44.6765 190.363 30.6332 190.363C15.0365 190.363 2.39294 177.787 2.39294 162.274C2.39294 146.761 15.0365 134.186 30.6332 134.186C30.7213 134.186 30.7927 134.257 30.7927 134.345V166.242Z" fill="black"/>
<path d="M33.8243 131.171C49.3328 131.171 61.905 143.675 61.905 159.1C61.905 160.502 61.8011 161.88 61.6007 163.226H33.8243V131.171Z" fill="#4CE364"/>
<path d="M216.927 169.173L233.867 211.458L231.14 248.284C221.781 229.151 214.99 212.08 210.768 197.071C210.417 195.821 210.094 194.575 209.801 193.334C206.13 201.548 199.742 214.14 198.043 220.222C193.428 236.751 206.337 260.059 203.782 262.754H125.725C130.799 237.513 139.734 220.222 133.892 210.317C125.662 196.364 120.838 182.637 127.044 170.8C131.688 161.944 132.729 152.485 133.892 145.608C134.361 142.83 146.462 139.466 154.263 138.532C154.833 137.068 155.744 138.237 156.412 137.176C158.5 133.857 158.83 128.953 157.401 122.466L172.398 97.4249C179.605 95.5084 183.208 100.509 183.208 112.427C183.208 125.407 185.919 128.652 187.466 134.41C191.447 134.79 211.455 142.296 213.341 145.608C215.93 151.281 219.737 154.003 216.927 169.173V169.173Z" fill="white"/>
<path d="M213.661 146.281L241.744 205.885C243.583 235.897 238.676 246.424 227.024 237.466C209.545 224.03 214.99 212.08 210.768 197.071C209.536 192.692 211.557 180.844 211.044 176.565" fill="white"/>
<path d="M213.517 146.348C213.48 146.269 213.514 146.175 213.594 146.137C213.674 146.1 213.769 146.134 213.806 146.214L241.889 205.818C242.825 220.906 242.056 231.061 239.588 236.356C237.087 241.723 232.826 242.127 226.927 237.592C221.539 233.45 218.067 229.268 215.946 224.667C214.051 220.557 213.407 217.192 212.666 209.754C212.04 203.477 211.647 200.785 210.615 197.114C210.082 195.221 210.094 192.2 210.472 186.85C210.504 186.387 210.538 185.926 210.587 185.266C210.99 179.854 211.07 178.121 210.886 176.584C210.875 176.497 210.938 176.418 211.025 176.407C211.113 176.397 211.192 176.459 211.203 176.546C211.391 178.114 211.31 179.846 210.906 185.289C210.856 185.949 210.823 186.41 210.79 186.872C210.415 192.179 210.404 195.186 210.922 197.028C211.961 200.723 212.356 203.427 212.983 209.722C213.721 217.127 214.36 220.466 216.236 224.535C218.335 229.087 221.773 233.229 227.122 237.341C232.875 241.763 236.894 241.382 239.299 236.223C241.736 230.994 242.502 220.889 241.587 205.925L213.517 146.348Z" fill="black"/>
<path d="M222.741 199.358C226.709 197.498 232.075 201.156 233.086 201.765C234.932 202.877 226.013 205.528 223.265 207.538C221.195 209.051 219.391 212.437 217.854 217.695C218.351 204.906 218.774 201.217 222.741 199.358Z" fill="#22215B"/>
<path d="M83.2369 166.953L79.1247 105.325C80.9901 102.859 82.1344 100.621 82.5577 98.61C84.0003 91.7546 82.9549 86.5723 80.7626 83.1816C78.9232 80.4784 72.2996 78.4921 70.3791 78.4921C69.1552 78.4921 68.9028 81.8552 70.3791 83.1897C70.5747 83.3664 73.4744 84.6176 72.9232 85.7206C72.2381 87.0917 68.8867 89.6025 62.8689 93.253L66.9617 107.145C60.0903 160.655 58.8083 190.209 63.1156 195.809C67.4229 201.409 74.13 191.79 83.2369 166.953Z" fill="white"/>
<path d="M83.3959 166.943C78.8288 179.438 74.8706 188.062 71.5073 192.885C68.1017 197.769 65.2287 198.818 62.9887 195.906C58.6411 190.253 59.921 160.727 66.799 107.157L62.7156 93.2976C62.6953 93.2287 62.724 93.1549 62.7856 93.1175C68.771 89.4866 72.1147 86.9817 72.7801 85.65C72.8297 85.5508 72.8438 85.4498 72.8251 85.3423C72.7605 84.9706 72.3161 84.5362 71.5943 84.0746C71.233 83.8436 70.312 83.3437 70.2716 83.3071C68.7782 81.9572 68.8917 78.3334 70.3789 78.3334C71.4314 78.3334 73.6345 78.8806 75.6596 79.6755C78.128 80.6444 80.0377 81.8335 80.8966 83.0957C83.3236 86.8495 84.0643 92.2242 82.7136 98.6425C82.2877 100.666 81.145 102.909 79.2876 105.373L83.3959 166.943ZM78.9653 105.335C80.8494 102.781 81.9834 100.563 82.4013 98.5775C83.7357 92.2362 83.0067 86.9462 80.6302 83.2705C79.8188 82.078 77.9558 80.9181 75.5425 79.9708C73.5514 79.1892 71.3837 78.6508 70.3789 78.6508C69.2712 78.6508 69.17 81.8825 70.4862 83.0723C70.4932 83.0786 71.3767 83.5582 71.7669 83.8077C72.5622 84.3163 73.0542 84.7972 73.1395 85.2883C73.1696 85.4614 73.146 85.6309 73.0659 85.7913C72.3651 87.1936 69.0405 89.6894 63.0562 93.3251L67.1146 107.1C60.2587 160.594 58.9759 190.166 63.2421 195.713C65.3094 198.4 67.9436 197.439 71.2451 192.705C74.5861 187.913 78.531 179.32 83.0753 166.93L78.9653 105.335Z" fill="black"/>
<path d="M55.8445 88.2991L96.2258 81.2171C96.8332 81.1106 97.4125 81.514 97.5196 82.1182C97.6267 82.7224 97.2211 83.2985 96.6136 83.405L56.2324 90.487C53.8061 90.4189 52.5707 90.2596 52.5263 90.009C52.4819 89.7585 53.588 89.1885 55.8445 88.2991Z" fill="white"/>
<path d="M52.6835 89.9813C52.7041 90.0975 53.999 90.2648 56.2207 90.3278L96.586 83.2486C97.1066 83.1573 97.4543 82.6634 97.3625 82.1456C97.2707 81.6277 96.7742 81.2819 96.2535 81.3732L55.8882 88.4524C53.8222 89.2674 52.6629 89.8651 52.6835 89.9813ZM96.1981 81.0607C96.8923 80.9389 97.5543 81.4 97.6767 82.0905C97.7991 82.781 97.3356 83.4394 96.6414 83.5612L56.2601 90.6432C53.6069 90.5719 52.4374 90.4211 52.3692 90.0364C52.301 89.6518 53.3481 89.1122 55.7857 88.1514L96.1981 81.0607Z" fill="black"/>
<path d="M76.3758 95.7213C76.3758 92.2642 79.811 91.5689 80.229 90.4381C75.6047 90.3299 73.1636 87.7786 72.7851 86.6484C72.3536 85.3596 76.5164 85.9095 83.2608 85.4675C85.9551 85.4675 84.6452 95.3982 82.1011 100.262" fill="white"/>
<path d="M74.8284 89.0598C73.693 88.3315 72.8694 87.4022 72.6337 86.6985C72.4556 86.1664 72.848 85.868 73.7231 85.7211C74.3904 85.609 75.2132 85.57 77.2052 85.5299C80.2304 85.4689 81.3459 85.4339 83.2608 85.3088C84.6662 85.3088 85.1522 87.5713 84.8041 91.0565C84.4817 94.2846 83.4825 97.9648 82.2426 100.335C82.2019 100.413 82.1056 100.443 82.0274 100.402C81.9493 100.362 81.9189 100.266 81.9595 100.188C83.1792 97.8569 84.1679 94.2153 84.4866 91.0251C84.8153 87.7341 84.3625 85.6262 83.2713 85.6258C81.3604 85.7511 80.2417 85.7862 77.2116 85.8472C75.2387 85.8869 74.4214 85.9257 73.7762 86.034C73.0678 86.1529 72.8443 86.3229 72.9365 86.5982C73.1466 87.2257 73.9223 88.1009 75.0014 88.7931C76.3948 89.687 78.1647 90.2311 80.2328 90.2795C80.3421 90.2821 80.4165 90.3908 80.3788 90.4929C80.3151 90.6651 80.1951 90.8282 80.0172 90.9984C79.7737 91.2313 78.5566 92.0855 78.4214 92.1907C77.1758 93.1596 76.5353 94.1931 76.5353 95.7213C76.5353 95.8089 76.4639 95.88 76.3758 95.88C76.2877 95.88 76.2162 95.8089 76.2162 95.7213C76.2162 94.0819 76.9088 92.9644 78.2249 91.9407C78.377 91.8223 79.5731 90.9828 79.796 90.7696C79.862 90.7065 79.9171 90.6462 79.9617 90.588C77.9471 90.4997 76.2112 89.9469 74.8284 89.0598Z" fill="black"/>
<path d="M71.3619 83.2637C66.7616 87.0204 63.8861 88.533 62.7353 87.8016C61.5845 87.0702 63.49 84.422 68.4517 79.857C69.3638 79.0785 69.9937 78.646 70.3414 78.5592L71.3619 83.2637Z" fill="white"/>
<path d="M71.2601 83.1416C71.3282 83.086 71.4287 83.0958 71.4846 83.1635C71.5405 83.2313 71.5307 83.3312 71.4626 83.3869C66.7956 87.198 63.8915 88.7256 62.6488 87.9358C61.9618 87.4992 62.1702 86.566 63.171 85.1751C64.1314 83.8403 65.8546 82.0302 68.3473 79.737C69.279 78.9418 69.9212 78.5008 70.3021 78.4057C70.3875 78.3844 70.4742 78.436 70.4956 78.5211C70.5171 78.6061 70.4652 78.6923 70.3797 78.7136C70.0651 78.7921 69.4474 79.2163 68.5595 79.974C66.0859 82.2498 64.3755 84.0463 63.4305 85.3598C62.5258 86.6171 62.3568 87.3736 62.8206 87.6684C63.8795 88.3414 66.7265 86.8438 71.2601 83.1416Z" fill="black"/>
<path d="M84.2366 168.197C85.1822 150.12 85.1822 139.632 84.2366 136.732C83.291 133.832 82.1064 132.383 80.6827 132.386C81.314 127.087 81.4503 123.947 81.0914 122.964C80.5532 121.491 64.6284 118.507 64.0106 123.785C63.6941 126.49 64.2921 129.174 64.0106 131.728C63.8367 133.307 61.1176 132.386 60.1618 135.129C48.5516 168.451 58.5884 199.355 62.0342 203.835C66.3415 209.435 88.4459 205.41 128.347 191.76L135.449 144.571L84.2366 168.197Z" fill="white"/>
<path d="M135.382 144.427C135.497 144.374 135.626 144.47 135.607 144.595L128.505 191.784C88.3929 205.596 66.2842 209.621 61.9075 203.931C59.6206 200.958 56.5778 191.058 55.2936 180.316C53.5238 165.514 54.8186 149.979 60.0111 135.077C60.3692 134.049 60.9689 133.447 61.8588 133.036C62.0032 132.969 62.1532 132.907 62.3321 132.84C62.4302 132.803 62.7489 132.687 62.7751 132.678C63.5317 132.398 63.7998 132.185 63.8521 131.711C63.9657 130.679 63.9524 129.847 63.8426 127.9C63.7278 125.863 63.7163 124.928 63.8522 123.767C64.1412 121.297 67.5502 120.354 72.5914 120.684C76.6406 120.95 80.9266 122.048 81.2414 122.91C81.6089 123.917 81.4793 127.005 80.8614 132.234C82.2941 132.346 83.462 133.842 84.3884 136.683C85.3385 139.597 85.3431 149.997 84.4097 167.942L135.382 144.427ZM84.3038 168.34C84.1947 168.391 84.0711 168.308 84.0773 168.188C85.0214 150.141 85.0214 139.653 84.0849 136.781C83.1584 133.939 82.0156 132.542 80.683 132.544C81.1516 127.102 81.2876 123.966 80.9415 123.019C80.6941 122.341 76.4604 121.256 72.5704 121.001C67.6923 120.681 64.4288 121.584 64.1691 123.803C64.036 124.941 64.0474 125.863 64.1612 127.882C64.272 129.847 64.2855 130.691 64.1693 131.745C64.0998 132.376 63.7457 132.658 62.8861 132.975C62.8583 132.986 62.5409 133.101 62.4451 133.137C62.273 133.201 62.1298 133.26 61.9934 133.323C61.1776 133.701 60.6405 134.239 60.3126 135.181C55.1369 150.035 53.8461 165.521 55.6104 180.279C56.8885 190.969 59.9163 200.82 62.1609 203.738C66.3955 209.244 88.465 205.23 128.204 191.642L135.248 144.839L84.3038 168.34Z" fill="black"/>
<path d="M62.0343 203.835C66.3416 209.434 88.446 205.41 128.347 191.76L135.449 144.571C127.177 168.089 118.957 183.094 110.789 189.586C96.7598 200.736 70.368 208.91 62.0343 203.835Z" fill="#22215B"/>
<path d="M213.341 145.608C208.51 154.874 207.308 163.462 206.045 173.337C205.01 181.426 202.752 198.068 209.924 193.756C207.329 200.799 200.113 212.81 198.043 220.222C193.428 236.751 206.045 256.354 203.782 262.754C202.564 266.199 183.208 275.012 172.398 262.754C172.398 266.147 166.914 270.26 159.501 270.26C147.362 270.26 118.877 275.798 125.725 254.307C132.573 232.816 139.734 220.222 133.892 210.317C125.662 196.364 120.838 182.637 127.044 170.8C131.688 161.944 129.523 153.745 130.685 146.868C131.848 139.991 146.462 139.466 154.263 138.532C154.833 137.068 155.744 138.237 156.412 137.176C158.5 133.857 158.83 128.953 157.401 122.466L172.398 97.4249C179.605 95.5084 183.208 100.509 183.208 112.427C183.208 125.407 185.919 128.652 187.466 134.41C191.447 134.79 211.455 142.296 213.341 145.608Z" fill="white"/>
<path d="M201.129 139.056C195.385 136.715 189.413 134.755 187.451 134.568C187.037 133.425 186.73 132.483 186.25 131.13C186.174 130.917 185.812 129.907 185.712 129.624C183.826 124.302 183.048 120.109 183.048 112.427C183.048 100.633 179.537 95.7252 172.502 97.5618L157.57 122.494C158.991 128.987 158.655 133.91 156.547 137.26C156.279 137.686 155.986 137.821 155.503 137.851C154.841 137.884 154.643 137.994 154.411 138.59C153.84 138.743 153.357 138.797 152.792 138.857C152.288 138.911 149.735 139.171 148.991 139.251C147.423 139.418 146.123 139.574 144.877 139.75C136.304 140.959 131.494 143.043 130.843 146.894C130.525 148.772 130.451 150.35 130.417 154.047C130.381 157.998 130.3 159.813 129.961 162.148C129.506 165.269 128.636 168.108 127.186 170.874C121.651 181.428 124.38 193.877 134.029 210.237C136.707 214.777 136.836 219.967 134.854 227.51C134.068 230.502 133.048 233.622 131.186 238.896C131.27 238.66 129.396 243.945 128.846 245.518C127.911 248.19 127.119 250.523 126.361 252.852C126.197 253.356 126.036 253.857 125.877 254.355C123.718 261.131 124.957 265.526 129.108 268.037C132.488 270.081 137.581 270.834 144.71 270.733C146.855 270.702 148.862 270.612 152.135 270.422C156.827 270.149 157.813 270.101 159.501 270.101C166.326 270.101 172.238 266.364 172.238 262.754C172.238 262.608 172.421 262.539 172.518 262.649C177.295 268.067 184.149 269.791 191.66 268.486C197.382 267.492 202.962 264.594 203.631 262.701C204.103 261.367 203.941 259.374 203.203 256.42C202.901 255.211 202.514 253.87 201.945 252.027C201.792 251.529 200.711 248.081 200.385 247.018C198.235 239.99 197.121 234.932 196.897 229.815C196.746 226.366 197.057 223.163 197.89 220.18C198.753 217.089 200.391 213.354 203.367 207.338C203.571 206.926 203.785 206.495 204.029 206.004C207.808 198.415 208.694 196.579 209.623 194.108C207.37 195.284 205.913 194.395 205.22 191.785C204.634 189.58 204.582 186.214 204.937 181.795C205.07 180.142 205.253 178.41 205.498 176.399C205.559 175.895 205.623 175.38 205.698 174.79C205.727 174.562 205.757 174.332 205.795 174.034C205.789 174.081 205.866 173.476 205.887 173.317C206.757 166.517 207.295 163.073 208.2 159.208C209.345 154.312 210.908 149.946 213.159 145.613C212.22 144.149 207.568 141.681 201.129 139.056ZM201.25 138.762C207.887 141.468 212.599 143.981 213.48 145.529C211.223 150.014 209.657 154.379 208.51 159.28C207.609 163.131 207.072 166.567 206.203 173.357C206.183 173.516 206.105 174.121 206.111 174.074C206.073 174.372 206.044 174.602 206.015 174.83C205.94 175.42 205.876 175.933 205.815 176.437C205.57 178.445 205.388 180.172 205.255 181.821C204.903 186.205 204.954 189.543 205.528 191.704C206.209 194.269 207.568 194.987 209.841 193.62C209.074 196.524 208.306 198.131 204.315 206.145C204.071 206.635 203.857 207.066 203.654 207.478C200.686 213.476 199.053 217.199 198.197 220.265C197.374 223.214 197.066 226.384 197.216 229.801C197.438 234.885 198.548 239.921 200.691 246.926C201.016 247.988 202.096 251.435 202.25 251.934C202.821 253.781 203.209 255.128 203.513 256.344C204.265 259.354 204.431 261.396 203.933 262.807C203.213 264.84 197.54 267.787 191.714 268.799C184.237 270.098 177.382 268.429 172.536 263.146C172.141 266.835 166.241 270.418 159.501 270.418C157.822 270.418 156.838 270.466 152.153 270.739C148.876 270.929 146.866 271.02 144.714 271.05C137.529 271.152 132.388 270.392 128.942 268.308C124.655 265.715 123.373 261.165 125.573 254.259C125.732 253.76 125.893 253.259 126.058 252.754C126.816 250.423 127.609 248.088 128.544 245.414C129.095 243.839 130.969 238.554 130.885 238.791C132.744 233.524 133.762 230.411 134.545 227.43C136.508 219.96 136.381 214.851 133.754 210.397C129.206 202.686 126.255 195.986 124.898 189.799C123.346 182.718 123.928 176.399 126.903 170.727C128.335 167.994 129.196 165.19 129.645 162.102C129.982 159.787 130.062 157.981 130.098 154.044C130.132 150.33 130.207 148.742 130.528 146.842C131.213 142.79 136.119 140.664 144.832 139.435C146.082 139.259 147.386 139.103 148.957 138.935C149.701 138.855 152.255 138.595 152.758 138.541C153.282 138.486 153.735 138.435 154.15 138.386C154.424 137.733 154.739 137.572 155.388 137.539C155.872 137.51 156.071 137.419 156.276 137.092C158.339 133.814 158.666 128.951 157.245 122.5C157.239 122.474 162.244 114.088 172.261 97.3438C179.693 95.3207 183.367 100.42 183.367 112.427C183.367 120.072 184.139 124.23 186.013 129.518C186.113 129.801 186.475 130.81 186.551 131.025C187.017 132.339 187.321 133.269 187.592 134.264C189.698 134.513 195.579 136.451 201.25 138.762Z" fill="black"/>
<path d="M162.728 132.092C158.734 133.123 158.283 128.855 158.203 127.743C158.085 126.119 157.818 124.36 157.401 122.466L172.398 97.4251C179.605 95.5086 181.333 106.725 174.733 117.196C169.393 126.44 165.391 131.406 162.728 132.092Z" fill="#22215B"/>
<path d="M166.25 246.698C168.013 246.698 169.441 245.277 169.441 243.524C169.441 241.771 168.013 240.35 166.25 240.35C164.488 240.35 163.059 241.771 163.059 243.524C163.059 245.277 164.488 246.698 166.25 246.698Z" fill="#22215B"/>
<path d="M184.556 109.645C192.768 103.446 198.841 95.5794 198.841 86.8712C198.841 60.4462 187.634 54.6814 172.045 54.6814C156.457 54.6814 139.958 62.6113 139.958 79.0911C139.958 95.5708 139.099 107.592 141.009 119.784C141.925 125.628 155.252 124.378 168.88 118.582" fill="white"/>
<path d="M184.652 109.771C184.582 109.824 184.482 109.81 184.429 109.741C184.376 109.671 184.389 109.571 184.46 109.518C193.484 102.707 198.681 94.8843 198.681 86.8712C198.681 74.2803 196.146 65.9432 191.176 60.9789C186.835 56.6439 180.699 54.8401 172.045 54.8401C163.973 54.8401 156.083 56.9523 150.245 60.8382C143.759 65.155 140.117 71.3812 140.117 79.0911C140.117 82.374 140.09 85.1418 140.021 90.1074C139.807 105.497 139.925 110.991 140.966 118.409C141.03 118.861 141.097 119.311 141.167 119.759C142.021 125.209 154.66 124.457 168.818 118.436C168.899 118.402 168.992 118.439 169.027 118.52C169.062 118.601 169.024 118.694 168.943 118.728C154.595 124.83 141.758 125.594 140.852 119.808C140.781 119.358 140.714 118.907 140.65 118.453C139.606 111.013 139.488 105.509 139.702 90.1031C139.771 85.1388 139.798 82.3722 139.798 79.0911C139.798 71.2707 143.496 64.9479 150.067 60.5744C155.961 56.6514 163.913 54.5227 172.045 54.5227C180.776 54.5227 186.991 56.3498 191.402 60.7549C196.441 65.7882 199 74.2041 199 86.8712C199 95.001 193.749 102.905 184.652 109.771Z" fill="black"/>
<path d="M209.972 193.944C206.301 202.158 199.742 214.14 198.043 220.222C195.119 230.694 200.75 206.977 203.629 202.829C206.509 198.681 205.34 195.017 205.882 193.361C205.926 193.229 205.252 191.066 205.295 190.937C206.422 187.526 208.036 186.995 208.385 186.995C208.851 189.013 210.265 195.185 209.972 193.944Z" fill="#22215B"/>
<path d="M159.549 87.3718C160.431 87.3718 161.145 86.6613 161.145 85.7849C161.145 84.9085 160.431 84.198 159.549 84.198C158.668 84.198 157.954 84.9085 157.954 85.7849C157.954 86.6613 158.668 87.3718 159.549 87.3718Z" fill="black"/>
<path d="M142.318 87.3718C143.199 87.3718 143.914 86.6613 143.914 85.7849C143.914 84.9085 143.199 84.198 142.318 84.198C141.437 84.198 140.723 84.9085 140.723 85.7849C140.723 86.6613 141.437 87.3718 142.318 87.3718Z" fill="black"/>
<path d="M147.851 100.369C147.938 100.383 147.997 100.465 147.983 100.551C147.969 100.638 147.886 100.696 147.8 100.682L141.016 99.5717C140.904 99.5535 140.847 99.4294 140.905 99.3333L149.727 84.751C149.772 84.6759 149.87 84.6516 149.946 84.6968C150.021 84.742 150.045 84.8395 150 84.9146L141.3 99.2965L147.851 100.369Z" fill="black"/>
<path d="M145.249 67.2944C147.068 73.7526 155.827 77.4888 171.526 78.503C175.758 78.7764 174.764 94.4429 177.755 95.7745C178.643 96.1702 180.563 84.3712 183.291 83.6305C186.02 82.8898 188.192 86.6429 188.192 93.0822C188.192 99.5215 184.405 102.134 183.291 105.926C182.549 108.454 182.549 111.446 183.291 114.902C196.361 109.204 202.896 101.732 202.896 92.4845C202.896 78.614 206.966 70.0749 192 56.7045C182.022 47.791 170.609 46.2766 157.76 52.1613C149.174 47.3956 142.699 47.908 138.335 53.6985C131.789 62.3841 132.039 71.7838 139.991 76.9816C141.409 70.8621 143.162 67.6331 145.249 67.2944Z" fill="#22215B"/>
<path d="M182.086 85.6015C182.748 83.2437 183.997 82.4077 185.833 83.0937C188.588 84.1226 189.46 91.7294 186.949 95.2747C185.274 97.6382 183.653 98.0074 182.086 96.3823" fill="white"/>
<path d="M182.239 85.6442C182.215 85.7286 182.127 85.7779 182.043 85.7543C181.958 85.7308 181.908 85.6432 181.932 85.5588C182.617 83.1188 183.956 82.2229 185.889 82.9451C188.815 84.038 189.596 91.8128 187.079 95.366C185.353 97.8033 183.617 98.1986 181.97 96.4921C181.909 96.4288 181.911 96.3284 181.975 96.2677C182.039 96.207 182.14 96.2091 182.201 96.2723C183.69 97.8161 185.196 97.473 186.818 95.1832C189.229 91.7796 188.473 84.2491 185.777 83.2422C184.038 82.5925 182.878 83.3685 182.239 85.6442Z" fill="black"/>
<path d="M183.068 89.9739C183.023 90.049 182.925 90.0732 182.849 90.028C182.774 89.9827 182.749 89.8852 182.795 89.8101C183.882 88.0158 184.746 87.3124 185.421 87.8187C185.491 87.8715 185.505 87.971 185.452 88.0409C185.399 88.1109 185.299 88.1248 185.229 88.072C184.79 87.743 184.059 88.3374 183.068 89.9739Z" fill="black"/>
<path d="M184.094 85.6874C184.023 85.6351 184.009 85.5356 184.061 85.4653C184.114 85.395 184.214 85.3804 184.284 85.4327C186.169 86.8272 186.639 89.5755 185.723 93.6551C185.704 93.7406 185.619 93.7945 185.533 93.7754C185.447 93.7563 185.393 93.6714 185.412 93.5859C186.303 89.6151 185.854 86.9898 184.094 85.6874Z" fill="black"/>
<path d="M141.56 110.14C141.502 110.075 141.508 109.974 141.574 109.916C141.64 109.858 141.741 109.864 141.799 109.93C143.559 111.91 145.758 111.667 148.471 109.155C148.536 109.095 148.637 109.099 148.697 109.163C148.757 109.227 148.753 109.328 148.689 109.387C145.858 112.008 143.457 112.274 141.56 110.14Z" fill="black"/>
<path d="M202.514 87.1291C210.639 87.1291 218.627 73.5697 218.627 64.5721C218.627 55.5745 207.475 47.3816 199.35 47.3816C191.225 47.3816 188.588 57.7689 188.588 66.7665C188.588 75.7641 194.389 87.1291 202.514 87.1291Z" fill="#22215B"/>
<path d="M154.93 224.107C169.005 211.322 193.133 179.251 190.537 151.268C189.798 143.292 190.197 138.447 191.735 136.732C193.795 134.435 211.099 151.901 209.679 163.305C208.733 170.908 205.705 173.206 200.595 170.199C205.032 175.216 206.91 180.193 206.232 185.13C205.214 192.537 183.661 213.388 154.93 224.107Z" fill="white"/>
<path d="M190.872 203.254C199.652 196.044 205.553 188.898 206.074 185.109C206.745 180.221 204.883 175.288 200.475 170.304C200.355 170.168 200.52 169.97 200.676 170.062C205.671 173.001 208.587 170.788 209.521 163.285C210.149 158.237 207.072 151.457 201.887 144.979C197.598 139.62 192.775 135.811 191.854 136.837C190.358 138.506 189.961 143.324 190.696 151.253C191.886 164.084 187.578 178.617 179.124 193.465C172.509 205.081 163.581 216.306 155.643 223.668C168.574 218.74 180.919 211.427 190.872 203.254ZM206.39 185.152C205.854 189.047 199.915 196.24 191.075 203.499C180.898 211.856 168.23 219.314 154.986 224.255C154.821 224.317 154.693 224.107 154.822 223.99C162.884 216.667 172.079 205.192 178.846 193.308C187.271 178.512 191.562 164.039 190.379 151.282C189.634 143.26 190.036 138.388 191.616 136.626C192.772 135.337 197.682 139.216 202.137 144.782C207.37 151.32 210.479 158.17 209.837 163.324C208.927 170.639 206.05 173.157 201.288 170.759C205.341 175.584 207.045 180.383 206.39 185.152Z" fill="black"/>
<path d="M159.731 226.246C159.033 225.916 132.571 191.08 138.544 172.442C142.526 160.017 144.887 154.005 145.628 154.405L150.304 147.149L149.548 139.241C134.719 147.939 126.326 153.878 124.368 157.058C122.41 160.238 123.389 164.595 127.305 170.13C120.673 172.721 117.358 176.925 117.358 182.743C117.358 191.47 121.745 213.485 159.731 226.246Z" fill="white"/>
<path d="M124.232 156.976C126.209 153.763 134.609 147.819 149.466 139.104C149.567 139.045 149.695 139.11 149.706 139.226L150.463 147.134C150.465 147.157 148.898 149.61 145.762 154.491C145.717 154.561 145.625 154.585 145.551 154.545C145.344 154.433 144.552 155.866 143.45 158.672C142.271 161.674 140.686 166.281 138.696 172.491C136.094 180.612 139.403 192.418 146.777 206.135C149.413 211.039 152.416 215.879 155.418 220.231C156.552 221.876 157.623 223.356 158.502 224.508C159.198 225.419 159.743 226.076 159.8 226.103C159.981 226.189 159.87 226.46 159.68 226.397C142.523 220.633 130.982 212.619 124.169 203.074C119.239 196.166 117.198 189.076 117.198 182.743C117.198 176.911 120.494 172.676 127.058 170.056C123.206 164.554 122.253 160.19 124.232 156.976ZM155.154 220.411C152.146 216.05 149.137 211.199 146.495 206.284C139.084 192.497 135.755 180.623 138.392 172.394C140.384 166.179 141.971 161.567 143.153 158.557C144.297 155.643 145.028 154.244 145.552 154.229L150.14 147.109L149.412 139.504C134.747 148.117 126.432 154.009 124.504 157.141C122.587 160.255 123.552 164.55 127.435 170.038C127.494 170.123 127.459 170.24 127.363 170.277C120.789 172.846 117.517 176.995 117.517 182.743C117.517 189.013 119.539 196.039 124.429 202.89C131.122 212.268 142.421 220.168 159.192 225.896C158.407 224.958 156.809 222.809 155.154 220.411Z" fill="black"/>
<path d="M157.596 157.176L159.337 162.667C149.364 180.878 144.378 193.3 144.378 199.933C144.378 206.566 147.914 214.771 154.985 224.549L162.978 216.871C159.787 203.9 158.573 194.304 159.337 188.082C160.1 181.86 161.314 173.72 162.978 163.663L172.71 156.045L163.84 151.615L157.596 157.176Z" fill="#22215B"/>
<path d="M163.752 151.534C177.915 140.357 184.997 133.118 184.997 129.815C184.997 124.861 195.182 133.319 195.182 136.902C195.182 140.485 188.251 159.795 178.152 161.647C171.419 162.882 166.619 159.511 163.752 151.534Z" fill="white"/>
<path d="M178.123 161.491C182.569 160.676 186.775 156.355 190.314 149.848C192.97 144.965 195.023 139.01 195.023 136.902C195.023 135.296 192.737 132.377 189.992 130.283C188.676 129.278 187.447 128.626 186.563 128.485C185.636 128.337 185.156 128.743 185.156 129.815C185.156 133.186 178.1 140.407 163.941 151.588C166.787 159.419 171.504 162.705 178.123 161.491ZM163.653 151.41C177.76 140.277 184.837 133.042 184.837 129.815C184.837 128.548 185.493 127.993 186.613 128.172C187.561 128.323 188.831 128.997 190.187 130.031C193.004 132.181 195.342 135.166 195.342 136.902C195.342 139.074 193.274 145.073 190.595 149.999C187.014 156.583 182.748 160.966 178.181 161.803C171.364 163.054 166.493 159.633 163.601 151.588C163.578 151.524 163.599 151.452 163.653 151.41Z" fill="black"/>
<path d="M163.786 151.593C159.172 158.706 154.439 161.076 149.586 158.706C142.306 155.149 147.103 144.535 148.516 140.24C149.93 135.944 156.126 133.204 157.451 134.804C157.708 135.115 155.966 135.755 157.839 140.24C159.087 143.229 161.069 147.014 163.786 151.593Z" fill="white"/>
<path d="M163.598 151.589C160.904 147.042 158.935 143.28 157.691 140.301C156.678 137.873 156.598 136.39 157.073 135.354C157.132 135.226 157.304 134.917 157.288 134.949C156.75 134.208 154.983 134.429 153.093 135.45C151.009 136.577 149.304 138.358 148.668 140.289C148.524 140.727 147.666 143.132 147.416 143.878C146.749 145.865 146.293 147.555 146.036 149.171C145.311 153.716 146.316 156.932 149.656 158.563C154.404 160.882 159.041 158.578 163.598 151.589ZM163.92 151.679C159.268 158.851 154.456 161.261 149.515 158.848C146.024 157.143 144.977 153.789 145.72 149.122C145.981 147.485 146.441 145.78 147.113 143.778C147.364 143.027 148.222 140.623 148.365 140.19C149.028 138.174 150.79 136.334 152.941 135.172C154.952 134.085 156.863 133.845 157.574 134.703C157.669 134.818 157.653 134.935 157.572 135.093C157.583 135.071 157.416 135.371 157.364 135.486C156.929 136.433 157.004 137.826 157.986 140.179C159.231 143.161 161.21 146.939 163.923 151.513C163.954 151.564 163.953 151.629 163.92 151.679Z" fill="black"/>
<path d="M196.984 160.033C196.285 159.409 196.145 158.374 196.652 157.588L229.211 107.112C230.217 105.553 232.205 104.939 233.921 105.659L270.404 120.949C271.113 121.246 271.575 121.938 271.575 122.704V125.075L236.418 173.695C235.92 174.383 235.026 174.661 234.223 174.378L199.195 162.009L196.984 160.033Z" fill="white"/>
<path d="M196.877 160.151C196.121 159.475 195.969 158.354 196.518 157.502L229.077 107.026C230.124 105.402 232.195 104.763 233.983 105.512L270.466 120.803C271.235 121.125 271.735 121.874 271.735 122.704V125.075C271.735 125.097 260.005 141.335 236.547 173.788C236.008 174.533 235.039 174.834 234.169 174.527L199.141 162.159L196.877 160.151ZM271.415 122.704C271.415 122.002 270.993 121.368 270.342 121.095L233.859 105.805C232.214 105.115 230.309 105.703 229.345 107.197L196.786 157.674C196.322 158.394 196.45 159.343 197.09 159.915L199.278 161.87L234.276 174.228C235.012 174.488 235.832 174.233 236.288 173.602L271.415 125.024V122.704Z" fill="black"/>
<path d="M198.877 161.713C198.766 161.669 198.659 161.614 198.557 161.549C197.667 160.981 197.409 159.803 197.98 158.918L230.168 109.016C231.174 107.457 233.162 106.844 234.878 107.563L270.393 122.447C270.505 122.494 270.613 122.552 270.715 122.62C271.594 123.206 271.828 124.389 271.24 125.262L237.399 175.478C236.896 176.226 235.935 176.52 235.095 176.185L198.877 161.713Z" fill="white"/>
<path d="M198.471 161.683C197.507 161.067 197.227 159.791 197.845 158.832L230.034 108.93C231.082 107.306 233.152 106.667 234.94 107.417L270.454 122.301C270.577 122.352 270.694 122.415 270.804 122.488C271.755 123.123 272.01 124.404 271.372 125.351L237.532 175.567C236.986 176.376 235.945 176.696 235.036 176.332L198.818 161.86C198.697 161.812 198.581 161.753 198.471 161.683ZM235.155 176.038C235.924 176.345 236.805 176.075 237.267 175.39L271.107 125.174C271.647 124.373 271.431 123.289 270.626 122.752C270.533 122.69 270.434 122.637 270.331 122.593L234.816 107.709C233.171 107.02 231.266 107.607 230.303 109.102L198.114 159.004C197.591 159.815 197.828 160.895 198.643 161.415C198.736 161.475 198.835 161.525 198.937 161.566L235.155 176.038Z" fill="black"/>
<path d="M234.857 114.032C235.738 114.032 236.452 113.321 236.452 112.445C236.452 111.569 235.738 110.858 234.857 110.858C233.976 110.858 233.261 111.569 233.261 112.445C233.261 113.321 233.976 114.032 234.857 114.032Z" fill="#22215B"/>
<path d="M237.371 138.497C234.656 136.676 230.971 137.388 229.14 140.088C227.309 142.788 228.025 146.454 230.74 148.275C232.672 149.571 235.155 149.609 237.11 148.442C235.822 146.945 235.674 144.749 236.805 143.082C237.46 142.116 238.453 141.462 239.572 141.225C239.138 140.124 238.38 139.174 237.371 138.497ZM239.815 141.502C238.703 141.688 237.712 142.312 237.069 143.26C235.986 144.858 236.167 146.978 237.472 148.368C237.54 148.441 237.526 148.556 237.442 148.61C235.358 149.945 232.653 149.941 230.561 148.538C227.701 146.619 226.946 142.756 228.875 139.911C230.805 137.065 234.688 136.315 237.549 138.234C238.668 138.985 239.494 140.054 239.938 141.292C239.972 141.385 239.913 141.486 239.815 141.502Z" fill="black"/>
<path d="M231.725 194.888L227.873 208.981L225.538 214.989C240.102 216.093 246.675 213.337 245.256 206.721C244.958 205.329 244.429 203.146 243.669 200.171L246.167 169.557C246.793 164.048 247.106 160.291 247.106 158.284C247.106 155.273 244.152 142.89 242.105 147.251C241.425 148.699 242.469 154.592 242.105 158.284C241.86 160.766 241.132 164.524 239.921 169.557C239.508 164.031 238.967 160.273 238.299 158.284C235.619 150.308 232.084 147.186 231.234 147.949C230.469 148.635 231.601 152.925 233.982 159.404C234.773 161.557 234.773 164.942 233.982 169.557C228.437 157.367 224.951 151.923 223.524 153.225C222.097 154.526 224.082 161.062 229.481 172.832C228.066 173.016 226.58 172.199 225.024 170.381C222.689 167.655 219.553 162.593 217.804 162.593C216.639 162.593 217.574 165.068 220.61 170.019L224.315 176.518C224.658 178.106 225.066 180.105 225.538 182.513C226.011 184.922 228.073 189.046 231.725 194.888Z" fill="white"/>
<path d="M225.382 182.543C224.912 180.148 224.506 178.158 224.164 176.575L220.474 170.101C218.951 167.618 217.955 165.754 217.483 164.505C216.981 163.176 217.05 162.434 217.805 162.434C218.832 162.434 220.087 163.719 222.372 166.714C222.492 166.872 222.618 167.038 222.769 167.238C224.281 169.234 224.553 169.587 225.146 170.278C226.589 171.964 227.955 172.763 229.243 172.695C223.863 160.94 221.911 154.48 223.417 153.107C224.252 152.346 225.544 153.434 227.344 156.246C229.046 158.904 231.234 163.16 233.911 169.015C234.611 164.688 234.583 161.5 233.832 159.458C231.291 152.545 230.31 148.564 231.127 147.831C231.691 147.325 232.903 148.088 234.206 149.741C235.725 151.67 237.223 154.582 238.45 158.233C239.082 160.114 239.598 163.544 240.002 168.531C241.071 163.999 241.719 160.577 241.946 158.268C242.052 157.193 242.047 155.897 241.958 154.14C241.935 153.691 241.91 153.258 241.868 152.584C241.641 148.935 241.631 147.885 241.961 147.184C242.489 146.059 243.178 145.878 243.866 146.603C244.417 147.182 244.98 148.349 245.525 149.952C246.467 152.726 247.266 156.647 247.266 158.284C247.266 160.298 246.952 164.06 246.326 169.569L243.83 200.157C244.587 203.121 245.114 205.297 245.413 206.688C246.864 213.456 240.182 216.258 225.526 215.147C225.42 215.139 225.351 215.03 225.39 214.931L227.719 208.939L231.553 194.913C227.914 189.086 225.858 184.969 225.382 182.543ZM245.1 206.754C244.802 205.365 244.274 203.183 243.515 200.21L246.008 169.539C246.634 164.036 246.947 160.283 246.947 158.284C246.947 156.686 246.155 152.798 245.222 150.054C244.692 148.491 244.144 147.357 243.634 146.82C243.113 146.271 242.689 146.383 242.25 147.318C241.956 147.943 241.967 149.024 242.186 152.564C242.228 153.24 242.254 153.673 242.277 154.124C242.367 155.896 242.372 157.204 242.264 158.299C242.019 160.791 241.289 164.554 240.077 169.593C240.034 169.77 239.776 169.749 239.762 169.568C239.35 164.055 238.811 160.307 238.148 158.334C236.932 154.716 235.45 151.835 233.955 149.937C232.763 148.424 231.693 147.751 231.341 148.066C230.69 148.651 231.685 152.693 234.132 159.349C234.935 161.535 234.935 164.943 234.139 169.583C234.113 169.738 233.902 169.765 233.837 169.622C231.067 163.533 228.813 159.131 227.075 156.416C225.389 153.784 224.224 152.802 223.632 153.341C222.291 154.564 224.279 161.109 229.626 172.766C229.671 172.863 229.608 172.976 229.502 172.989C228.023 173.181 226.49 172.339 224.903 170.484C224.304 169.785 224.031 169.432 222.514 167.428C222.364 167.229 222.238 167.064 222.117 166.906C219.927 164.034 218.674 162.751 217.805 162.751C217.394 162.751 217.348 163.247 217.781 164.393C218.245 165.619 219.233 167.469 220.749 169.94L224.454 176.44C224.814 178.074 225.222 180.073 225.695 182.483C226.163 184.866 228.219 188.978 231.86 194.804C231.876 194.829 230.596 199.573 228.022 209.038L225.765 214.846C240.086 215.9 246.479 213.185 245.1 206.754Z" fill="black"/>
<path d="M222.325 209.291C218.705 212.139 216.054 223.53 216.695 228.267C217.975 237.713 221.91 247.903 230.178 249.251C238.445 250.599 246.421 239.634 249.01 229.366C250.593 223.086 247.713 221.659 246.13 213.119C245.869 211.71 245.526 206.496 245.184 204.992C243.73 206.336 241.856 209.291 236.582 209.291C233.066 209.291 230.348 208.274 228.429 206.24L225.438 214.38" fill="white"/>
<path d="M225.588 214.435C225.558 214.517 225.466 214.559 225.384 214.529C225.301 214.499 225.258 214.408 225.288 214.326L228.279 206.186C228.32 206.075 228.464 206.046 228.545 206.132C230.432 208.131 233.108 209.132 236.582 209.132C239.488 209.132 241.493 208.282 243.251 206.697C243.699 206.293 244.909 205.029 245.075 204.875C245.165 204.792 245.312 204.837 245.339 204.957C245.491 205.651 245.627 206.811 245.84 209.013C246.151 212.227 246.182 212.524 246.287 213.09C246.608 214.824 246.998 216.358 247.483 217.895C247.678 218.515 249.022 222.295 249.272 223.284C249.768 225.245 249.764 227.024 249.164 229.405C247.841 234.654 245.156 239.957 241.844 243.768C238.206 247.955 234.108 250.053 230.152 249.408C222.76 248.203 218.106 239.872 216.537 228.288C215.814 222.943 218.844 211.826 222.226 209.166C222.295 209.112 222.395 209.123 222.45 209.192C222.504 209.261 222.493 209.361 222.424 209.415C219.144 211.995 216.143 223.001 216.853 228.245C218.405 239.706 222.994 247.919 230.203 249.095C234.032 249.719 238.03 247.672 241.602 243.561C244.881 239.788 247.543 234.53 248.855 229.328C249.442 226.997 249.446 225.272 248.963 223.361C248.717 222.389 247.378 218.623 247.178 217.99C246.69 216.441 246.297 214.895 245.973 213.148C245.865 212.567 245.835 212.282 245.522 209.043C245.336 207.119 245.209 205.992 245.086 205.314C244.681 205.725 243.833 206.601 243.465 206.932C241.651 208.568 239.572 209.449 236.582 209.449C233.132 209.449 230.431 208.478 228.491 206.533L225.588 214.435Z" fill="black"/>
<path d="M225.429 214.505C225.388 214.428 225.419 214.332 225.497 214.291C225.575 214.251 225.671 214.281 225.712 214.359C225.734 214.402 225.781 214.485 225.851 214.602C225.969 214.798 226.111 215.018 226.279 215.254C226.757 215.93 227.336 216.606 228.017 217.237C229.695 218.792 231.705 219.815 234.055 220.06C237.038 220.37 240.39 219.401 244.125 216.892C244.198 216.843 244.297 216.863 244.346 216.935C244.396 217.008 244.376 217.106 244.303 217.156C240.51 219.703 237.084 220.694 234.022 220.375C231.597 220.123 229.525 219.068 227.8 217.469C227.101 216.822 226.508 216.13 226.018 215.436C225.846 215.194 225.699 214.968 225.577 214.765C225.503 214.642 225.454 214.554 225.429 214.505Z" fill="black"/>
<path d="M69.5152 132.254C69.4285 132.238 69.371 132.156 69.3868 132.069C69.4025 131.983 69.4856 131.926 69.5723 131.942C74.1687 132.773 77.7965 132.773 80.4529 131.946C80.537 131.92 80.6265 131.967 80.6528 132.05C80.6791 132.134 80.6323 132.223 80.5482 132.249C77.8348 133.094 74.158 133.094 69.5152 132.254Z" fill="black"/>
<path d="M159.403 226.02C159.323 225.984 159.288 225.889 159.325 225.81C159.362 225.73 159.457 225.696 159.537 225.733C168.244 229.752 172.615 234.204 172.615 239.104V262.218C172.615 262.306 172.543 262.377 172.455 262.377C172.367 262.377 172.296 262.306 172.296 262.218V239.104C172.296 234.359 168.009 229.993 159.403 226.02Z" fill="black"/>
<path d="M84.1143 168.009C84.1149 167.921 84.1869 167.851 84.275 167.852C84.3631 167.852 84.434 167.924 84.4334 168.011C84.4021 172.313 84.0479 175.435 83.3671 177.383C83.3381 177.466 83.2472 177.51 83.164 177.481C83.0807 177.452 83.0367 177.362 83.0657 177.279C83.7325 175.371 84.0833 172.279 84.1143 168.009Z" fill="black"/>
<path d="M69.4339 87.5717C74.2116 91.1024 76.3829 93.5116 75.9478 94.7992C75.5127 96.0867 72.4683 94.8884 66.8145 91.2043C65.2113 90.1161 64.73 89.135 65.3707 88.2611C66.0114 87.3872 67.3658 87.1574 69.4339 87.5717Z" fill="white"/>
<path d="M65.4997 88.3546C64.9274 89.1353 65.3656 90.0287 66.902 91.0716C69.7206 92.9083 71.887 94.1243 73.3969 94.7186C74.8424 95.2875 75.6213 95.2675 75.7966 94.7487C76.1962 93.5663 74.056 91.1884 69.3675 87.7203C67.3739 87.3264 66.0909 87.5482 65.4997 88.3546ZM69.5291 87.4443C74.3761 91.0263 76.5689 93.4594 76.0991 94.8498C75.8393 95.6184 74.8785 95.6431 73.2795 95.0137C71.745 94.4098 69.5623 93.1846 66.7246 91.3355C65.0571 90.2035 64.5328 89.1348 65.2419 88.1676C65.9286 87.2309 67.3429 86.9909 69.4655 87.4161L69.5291 87.4443Z" fill="black"/>
<path d="M64.0091 93.8873C68.7868 96.8527 70.9581 98.876 70.523 99.9574C70.0879 101.039 67.0435 100.032 61.3897 96.9382C59.7865 96.0243 59.3052 95.2003 59.9459 94.4663C60.5866 93.7324 61.941 93.5394 64.0091 93.8873Z" fill="white"/>
<path d="M60.0663 94.5704C59.5154 95.2016 59.9403 95.9291 61.4666 96.7992C66.9845 99.819 70.005 100.817 70.3748 99.8984C70.7617 98.9368 68.6209 96.9394 63.9514 94.0386C61.9506 93.7061 60.6573 93.8935 60.0663 94.5704ZM64.0935 93.7527C68.9608 96.7736 71.1536 98.8171 70.6711 100.016C70.1707 101.26 67.1023 100.246 61.3103 97.0759C59.6326 96.1195 59.095 95.199 59.8254 94.3623C60.5129 93.5748 61.9179 93.3745 64.0357 93.7308L64.0935 93.7527Z" fill="black"/>
<path d="M66.2427 90.7455C71.0204 94.2763 73.1917 96.6855 72.7566 97.973C72.3215 99.2606 69.2771 98.0623 63.6233 94.3782C62.0201 93.2899 61.5389 92.3088 62.1796 91.4349C62.8203 90.561 64.1747 90.3312 66.2427 90.7455Z" fill="white"/>
<path d="M62.3085 91.5284C61.7362 92.3091 62.1745 93.2025 63.7108 94.2454C66.5294 96.0821 68.6958 97.2981 70.2058 97.8924C71.6512 98.4613 72.4301 98.4413 72.6055 97.9225C73.005 96.7401 70.8648 94.3622 66.1764 90.8941C64.1827 90.5002 62.8998 90.722 62.3085 91.5284ZM66.338 90.6181C71.1849 94.2001 73.3778 96.6332 72.9079 98.0236C72.6482 98.7922 71.6873 98.8169 70.0883 98.1875C68.5539 97.5836 66.3712 96.3584 63.5335 94.5093C61.8659 93.3773 61.3416 92.3086 62.0507 91.3414C62.7375 90.4047 64.1518 90.1647 66.2743 90.5899L66.338 90.6181Z" fill="black"/>
<path d="M212.545 120.048L168.219 172.938L131.919 131.275L92.0491 154.795L59.7014 98.4976L64.1104 95.1231L40.3114 85.4892V111.612L45.7166 108.458L90.088 169.581L130.695 142.165L166.943 179.475L211.17 124.14V135.391L211.983 134.043L212.545 120.048Z" fill="white"/>
<path d="M212.422 119.946C212.487 119.868 212.394 124.57 212.143 134.05C212.142 134.067 211.863 134.542 211.307 135.473C211.251 135.565 211.152 131.939 211.01 124.595L167.068 179.574C167.028 179.624 154.897 167.223 130.674 142.371L90.1777 169.712C90.1301 169.744 75.295 149.396 45.6723 108.668L40.3923 111.749C40.3214 111.79 40.2413 103.037 40.152 85.4891C40.152 85.414 48.1582 88.5763 64.1706 94.976C64.2467 95.0068 62.8262 96.1944 59.909 98.5388L92.1073 154.576L131.838 131.138C131.882 131.112 144.009 144.963 168.217 172.693L212.422 119.946ZM168.342 173.039C168.3 173.089 156.148 159.236 131.886 131.479L92.1307 154.931C92.0796 154.961 81.2237 136.176 59.563 98.5762C59.5366 98.5303 60.9466 97.3935 63.793 95.1658L40.4711 85.725V111.335L45.636 108.321C45.6833 108.294 60.5135 128.641 90.1268 169.363L130.605 142.034C130.648 142.005 142.757 154.405 166.932 179.235L211.045 124.042C211.107 123.963 211.202 127.556 211.329 134.819L211.825 133.997L212.367 120.508L168.342 173.039ZM211.846 133.962L211.824 134.037L211.825 133.997L211.846 133.962Z" fill="black"/>
<path d="M85 299.409L90.6432 296.873L127.307 299.409L132.546 338.867L127.307 341.624H85V299.409Z" fill="#FFC700"/>
<path d="M90.4246 296.557H132.546V338.451H90.4246V296.557Z" fill="white"/>
<path d="M90.5842 296.715V338.292H132.386V296.715H90.5842ZM90.4247 296.397H132.546C132.634 296.397 132.705 296.468 132.705 296.556V338.451C132.705 338.538 132.634 338.609 132.546 338.609H90.4247C90.3366 338.609 90.2651 338.538 90.2651 338.451V296.556C90.2651 296.468 90.3366 296.397 90.4247 296.397Z" fill="black"/>
</svg>
