<svg width="317" height="360" viewBox="0 0 317 360" fill="none" xmlns="http://www.w3.org/2000/svg">
<path d="M16.7555 219.857C16.5929 222.097 16.5101 224.358 16.5101 226.639C16.5101 276.973 56.7993 317.924 106.978 319.183L106.978 269.97C84.2162 268.654 66.1653 249.833 66.1653 226.809C66.1653 224.442 66.356 222.12 66.7229 219.857H16.7555Z" fill="#FFC700"/>
<path d="M44.332 226.306C43.4455 226.924 42.6711 227.622 42.028 228.395C37.2405 234.154 40.4077 242.654 52.0378 251.973C70.7866 266.996 80.2331 287.684 80.3857 314.081C72.0399 311.334 64.1484 307.408 56.9326 302.437C56.2817 293.288 54.4069 284.93 50.7134 276.99C46.023 266.908 38.6471 258.206 28.0603 251.154C24.5758 248.833 21.4326 246.397 18.6303 243.848C17.5622 238.215 17.0202 232.462 17.0202 226.639C17.0202 224.539 17.0907 222.447 17.2312 220.366H32.051L44.332 226.306ZM67.123 237.328C67.5102 237.515 67.9417 237.17 67.8419 236.753C67.0694 233.521 66.6754 230.191 66.6754 226.809C66.6754 226.02 66.6968 225.234 66.7395 224.451C66.7529 224.205 66.5885 223.985 66.3489 223.928C57.7209 221.869 49.2794 222.854 44.332 226.306L67.123 237.328ZM46.4644 226.206C51.1762 223.759 58.3294 223.146 65.6995 224.822C65.6699 225.482 65.6551 226.145 65.6551 226.809C65.6551 229.91 65.9788 232.969 66.615 235.952L46.4644 226.206ZM46.4644 226.206L32.3908 219.4C32.3214 219.366 32.2453 219.349 32.1682 219.349H16.7554C16.4879 219.349 16.2659 219.555 16.2466 219.821C16.0824 222.082 15.9999 224.355 15.9999 226.639C15.9999 232.583 16.5587 238.456 17.6597 244.204C17.6803 244.312 17.7351 244.41 17.816 244.484C20.689 247.111 23.9149 249.616 27.4935 252C37.9226 258.947 45.1753 267.503 49.7878 277.418C53.4561 285.304 55.3048 293.621 55.9318 302.751C55.9423 302.905 56.0225 303.045 56.1496 303.134C63.6942 308.36 71.9745 312.455 80.7415 315.267C81.0708 315.372 81.4078 315.128 81.4079 314.783C81.4198 287.751 71.8398 266.535 52.677 251.18C41.4322 242.17 38.4826 234.254 42.8135 229.044C43.7431 227.926 44.9831 226.976 46.4644 226.206ZM97.2142 268.806C97.6459 272.477 98.3678 276.476 99.5062 281.251C102.568 294.095 99.7665 315.639 94.2844 317.483C93.4154 317.341 92.5492 317.187 91.686 317.02C90.9281 316.547 90.1262 315.789 89.2885 314.739C87.3584 312.318 86.3721 307.935 86.1143 301.376C85.9166 296.347 86.0603 292.125 86.6787 280.339C86.8857 276.394 86.9951 274.161 87.094 271.705C87.1987 269.107 87.267 266.753 87.2977 264.529C90.4082 266.355 93.7364 267.794 97.2142 268.806ZM86.2877 263.63C86.2645 266.105 86.1929 268.727 86.0746 271.665C85.9759 274.115 85.8666 276.345 85.6598 280.286C85.0395 292.108 84.8954 296.343 85.0947 301.415C85.3605 308.176 86.3858 312.733 88.4898 315.372C89.4256 316.545 90.3394 317.398 91.2341 317.937C91.2853 317.968 91.3415 317.989 91.4002 318.001C92.343 318.184 93.2895 318.353 94.2393 318.507C94.314 318.519 94.3904 318.514 94.4631 318.493C97.7119 317.556 100.03 311.84 101.131 303.462C102.145 295.752 101.92 286.977 100.499 281.016C99.3347 276.133 98.611 272.076 98.1891 268.353C98.1658 268.148 98.0205 267.977 97.8212 267.921C94.0267 266.849 90.4109 265.259 87.0656 263.202C86.7276 262.994 86.2914 263.234 86.2877 263.63Z" fill="white"/>
<path d="M231.74 188.708V186.056L268.094 222.303H265.435L231.74 188.708ZM231.74 198.651V196L258.121 222.303H255.462L231.74 198.651ZM231.74 208.595V205.944L248.148 222.303H245.489L231.74 208.595ZM231.74 218.539V215.888L238.174 222.303H235.515L231.74 218.539ZM231.74 178.48V175.829L278.353 222.303H275.694L231.74 178.48ZM231.74 168.252V165.601L288.611 222.303H285.952L231.74 168.252ZM231.74 158.024V155.373L298.869 222.303H296.21L231.74 158.024ZM231.74 147.796V145.145L309.128 222.303H306.468L231.74 147.796ZM232.381 138.207H235.04L316.086 219.013V221.664L232.381 138.207ZM242.639 138.207H245.298L316.086 208.785V211.436L242.639 138.207ZM252.898 138.207H255.557L316.086 198.557V201.208L252.898 138.207ZM263.156 138.207H265.815L316.086 188.329V190.981L263.156 138.207ZM273.414 138.207H276.073L316.086 178.101V180.753L273.414 138.207ZM283.672 138.207H286.331L316.086 167.874V170.525L283.672 138.207ZM293.931 138.207H296.59L316.086 157.646V160.297L293.931 138.207ZM304.189 138.207H306.848L316.086 147.418V150.069L304.189 138.207ZM314.447 138.207H316.086V139.841L314.447 138.207Z" fill="black"/>
<path d="M240.243 212.808C212.443 212.808 189.907 190.339 189.907 162.622C189.907 134.905 212.443 112.436 240.243 112.436C268.042 112.436 290.578 134.905 290.578 162.622C290.578 190.339 268.042 212.808 240.243 212.808Z" fill="#233067"/>
<path d="M277.526 129.666C283.443 146.359 287.26 160.805 288.979 173.003C287.484 180.015 284.483 186.577 280.214 192.286C278.587 184.796 276.868 174.418 275.056 161.155L275.048 161.112C271.625 145.826 265.577 131.655 256.906 118.602L265.064 119.538C269.736 122.219 273.947 125.644 277.526 129.666ZM253.562 113.802C253.493 113.707 253.393 113.639 253.28 113.609C249.963 112.734 246.549 112.195 243.078 112.005C242.691 111.983 242.422 112.384 242.59 112.733C243.33 114.268 244.04 115.757 244.721 117.205L256.906 118.602C255.832 116.985 254.717 115.385 253.562 113.802ZM244.721 117.205C249.113 126.539 252.321 134.169 254.865 141.741C254.894 141.826 254.922 141.911 254.95 141.996C256.476 146.613 257.42 151.481 257.939 156.825C258.318 160.734 258.423 163.611 258.519 169.949C258.599 175.214 258.699 177.328 259.063 179.392C259.542 182.11 260.471 183.708 262.13 184.245C267.99 186.143 269.42 194.73 266.567 204.808C261.268 208.102 255.389 210.379 249.199 211.499C248.561 208.38 248.298 204.38 248.331 199.216C248.357 195.11 248.491 191.983 248.964 182.967C249.171 179.022 249.28 176.788 249.379 174.333C249.852 162.593 249.611 154.301 248.286 147.329C246.632 138.63 243.296 132.774 237.792 129.944C226.843 124.313 213.608 124.059 206.62 128.932C203.044 131.424 201.51 135.037 202.471 139.282C203.516 143.9 207.448 149.092 214.323 154.601C232.003 168.767 241.41 187.971 242.554 212.247C241.786 212.282 241.015 212.3 240.243 212.3C232.938 212.3 225.858 210.732 219.373 207.745C218.944 198.258 217.339 189.749 213.843 181.518C209.328 170.885 201.953 161.713 191.114 154.3C194.259 135.707 207.825 120.454 225.868 115.043L244.721 117.205ZM279.455 193.577C279.549 193.997 280.089 194.118 280.355 193.779C285.09 187.728 288.399 180.681 289.995 173.126C290.008 173.069 290.01 173.009 290.001 172.951C288.276 160.637 284.427 146.066 278.455 129.233C278.433 129.172 278.4 129.115 278.356 129.066C274.667 124.903 270.315 121.364 265.48 118.603C265.42 118.569 265.354 118.547 265.285 118.539L254.821 117.339C264.082 130.784 270.491 145.441 274.048 161.313C275.95 175.236 277.752 185.989 279.455 193.577ZM245.403 116.259C244.912 115.219 244.407 114.159 243.887 113.075C246.93 113.294 249.924 113.788 252.844 114.547C253.517 115.472 254.176 116.402 254.821 117.339L245.403 116.259ZM225.881 114.02C225.812 114.012 225.743 114.018 225.677 114.038C207.106 119.565 193.166 135.298 190.054 154.456C190.022 154.651 190.106 154.847 190.27 154.958C201.093 162.291 208.427 171.371 212.904 181.914C216.383 190.108 217.964 198.598 218.367 208.097C218.375 208.287 218.488 208.456 218.66 208.536C225.355 211.67 232.683 213.317 240.243 213.317C241.204 213.317 242.161 213.29 243.115 213.237C243.393 213.222 243.608 212.986 243.596 212.708C242.547 187.906 232.999 168.26 214.962 153.808C202.148 143.54 200.144 134.688 207.205 129.765C213.851 125.131 226.687 125.378 237.324 130.848C242.499 133.509 245.682 139.097 247.284 147.519C248.591 154.395 248.83 162.624 248.36 174.292C248.261 176.742 248.152 178.973 247.945 182.913C247.471 191.948 247.337 195.082 247.31 199.209C247.275 204.709 247.573 208.921 248.305 212.196C248.364 212.461 248.621 212.633 248.889 212.587C255.454 211.466 261.684 209.073 267.276 205.566C267.382 205.499 267.46 205.396 267.495 205.276C270.551 194.655 269.05 185.417 262.445 183.277C261.235 182.885 260.488 181.602 260.068 179.216C259.717 177.226 259.618 175.137 259.539 169.934C259.442 163.568 259.337 160.672 258.954 156.727C258.429 151.313 257.471 146.372 255.919 141.678C255.89 141.591 255.862 141.505 255.832 141.418C253.227 133.663 249.934 125.861 245.403 116.259L225.881 114.02Z" fill="white"/>
<path d="M28.3763 30.6265C28.3763 27.2825 27.9836 24.1248 27.2552 21.201L25.2358 21.1995C7.42869 19.8318 -1.05719 14.7958 0.105082 5.98897C0.972144 -0.580971 8.27347 -1.84519 15.641 2.69088C21.4363 6.25893 25.9185 12.3901 28.0435 20.1837H43.5507C43.8325 20.1837 44.0609 20.4115 44.0609 20.6924C44.0609 20.9733 43.8325 21.201 43.5507 21.201H28.3051C29.0152 24.1359 29.3966 27.2929 29.3966 30.6265V46.1562C29.3966 48.2415 28.11 49.4866 25.7588 50.0765C24.0754 50.4988 22.4296 50.5814 18.4796 50.5814C14.6245 50.5814 13.0181 50.662 11.4494 51.0556C9.50782 51.5427 8.58296 52.4378 8.58296 53.9893C8.58296 55.5471 9.51653 56.4759 11.4609 57.0121C13.0423 57.4482 14.7754 57.5726 18.4882 57.6349C18.621 57.6372 18.621 57.6372 18.7538 57.6394C22.6193 57.7035 24.224 57.8061 25.8594 58.2219C28.1446 58.8028 29.3966 59.9744 29.3966 61.9195C29.3966 63.8453 28.1686 65.0404 25.9179 65.6857C24.302 66.149 22.7058 66.3009 18.887 66.4813C18.6955 66.4903 18.6084 66.4944 18.504 66.4994C14.8376 66.6741 13.0647 66.8618 11.4792 67.3633C9.52823 67.9803 8.58296 68.9774 8.58296 70.5926C8.58296 72.2079 9.52945 73.192 11.4695 73.7633C13.085 74.2391 15.0948 74.3893 18.4809 74.3975C18.8194 74.3983 19.0923 74.3982 19.698 74.3972C23.2703 74.3913 24.7116 74.4449 26.179 74.7339C28.2488 75.1415 29.3966 76.032 29.3966 77.5937C29.3966 79.2617 28.0942 80.239 25.741 80.7407C24.069 81.0971 22.4024 81.2011 18.4443 81.2969C14.5925 81.39 12.9873 81.4885 11.4124 81.8198C9.48528 82.2251 8.58296 82.8951 8.58296 83.9296C8.58296 86.4656 9.59378 87.1276 12.5171 87.3854C12.6198 87.3944 12.6855 87.4 12.8943 87.4176C15.1215 87.6049 16.0098 87.8327 16.7371 88.7287C18.1267 90.4409 18.8672 103.746 19.1044 129.54C19.107 129.821 18.8807 130.051 18.599 130.054C18.3172 130.056 18.0867 129.831 18.0841 129.55C17.8535 104.475 17.0915 90.7825 15.9439 89.3687C15.4668 88.7808 14.7358 88.5934 12.8085 88.4313C12.5983 88.4136 12.5318 88.408 12.4273 88.3987C10.8518 88.2598 9.96373 88.063 9.16751 87.5415C8.10879 86.848 7.56265 85.6765 7.56265 83.9296C7.56265 82.2797 8.85901 81.3172 11.2018 80.8244C12.8629 80.475 14.4967 80.3747 18.4672 80.2787C22.3062 80.1859 23.9428 80.0837 25.5276 79.7459C27.4664 79.3325 28.3763 78.6498 28.3763 77.5937C28.3763 76.6353 27.6306 76.0567 25.9813 75.7319C24.607 75.4613 23.1947 75.4087 19.6997 75.4145C19.0926 75.4155 18.8188 75.4156 18.4784 75.4148C14.9964 75.4063 12.9197 75.2512 11.1804 74.7389C8.8458 74.0514 7.56265 72.7173 7.56265 70.5926C7.56265 68.4743 8.83481 67.1324 11.1707 66.3936C12.8722 65.8554 14.6952 65.6624 18.4553 65.4833C18.5599 65.4783 18.6471 65.4742 18.8387 65.4651C22.5685 65.2889 24.127 65.1406 25.6359 64.708C27.4945 64.1751 28.3763 63.317 28.3763 61.9195C28.3763 60.5171 27.4878 59.6857 25.6073 59.2077C24.0802 58.8194 22.5125 58.7191 18.7368 58.6565C18.604 58.6543 18.604 58.6543 18.471 58.6521C14.6651 58.5882 12.8855 58.4604 11.1889 57.9926C8.84492 57.3462 7.56265 56.0705 7.56265 53.9893C7.56265 51.904 8.84925 50.659 11.2004 50.0691C12.8839 49.6467 14.5296 49.5641 18.4796 49.5641C22.3347 49.5641 23.9411 49.4835 25.5098 49.0899C27.4514 48.6028 28.3763 47.7078 28.3763 46.1562V30.6265ZM25.2946 20.1837H26.9856C24.8998 12.7639 20.6116 6.94679 15.1049 3.55644C8.2747 -0.648812 1.86371 0.461244 1.11667 6.12168C0.0595786 14.1316 8.01002 18.853 25.2946 20.1837Z" fill="#22215B"/>
<path d="M18.8756 143.869C16.7155 143.869 14.9644 142.123 14.9644 139.969C14.9644 137.816 16.7155 136.07 18.8756 136.07C21.0356 136.07 22.7867 137.816 22.7867 139.969C22.7867 142.123 21.0356 143.869 18.8756 143.869ZM18.8756 142.852C20.4721 142.852 21.7664 141.561 21.7664 139.969C21.7664 138.378 20.4721 137.087 18.8756 137.087C17.279 137.087 15.9847 138.378 15.9847 139.969C15.9847 141.561 17.279 142.852 18.8756 142.852Z" fill="#22215B"/>
<path d="M54.2464 23.4896C52.0863 23.4896 50.3352 21.7437 50.3352 19.59C50.3352 17.4363 52.0863 15.6904 54.2464 15.6904C56.4065 15.6904 58.1576 17.4363 58.1576 19.59C58.1576 21.7437 56.4065 23.4896 54.2464 23.4896ZM54.2464 22.4723C55.843 22.4723 57.1373 21.1819 57.1373 19.59C57.1373 17.9982 55.843 16.7077 54.2464 16.7077C52.6498 16.7077 51.3555 17.9982 51.3555 19.59C51.3555 21.1819 52.6498 22.4723 54.2464 22.4723Z" fill="#22215B"/>
<path d="M230.535 89.2831C230.466 89.5556 230.19 89.7215 229.916 89.6536C229.643 89.5857 229.476 89.3097 229.545 89.0371C230.81 83.9738 231.981 80.3558 233.068 78.1688C234.261 75.7668 235.527 74.8482 236.767 75.8927C238.861 77.6566 239.884 81.2073 241.145 88.9143C241.188 89.1804 241.232 89.4523 241.291 89.8135C241.282 89.7608 241.403 90.5053 241.436 90.7081C242.134 95.0147 242.552 97.1033 243.166 98.9092C243.904 101.079 244.754 102.059 245.783 101.957C247.032 101.835 248.246 100.473 249.472 97.8728C250.46 95.7779 251.262 93.4536 252.727 88.7194C252.79 88.5153 253.012 87.798 253.011 87.8013C254.371 83.4025 255.084 81.2788 255.985 79.146C257.188 76.3017 258.397 74.4397 259.786 73.5327C260.948 72.7741 261.697 73.565 262.024 75.226C262.239 76.3201 262.317 77.5431 262.414 80.4633C262.445 81.373 262.452 81.5967 262.468 82.0191C262.673 87.3198 263.241 89.7901 264.466 89.7901C265.587 89.7901 266.613 88.5976 267.945 85.9039C268.323 85.1381 269.664 82.2202 269.85 81.8292C272.24 76.8041 274.32 74.1976 277.454 73.4631C281.085 72.6119 285.05 76.2755 289.472 84.2977C289.607 84.5439 289.517 84.8532 289.27 84.9884C289.023 85.1237 288.713 85.0338 288.578 84.7877C284.363 77.1418 280.692 73.7492 277.687 74.4534C274.962 75.092 273.034 77.5082 270.772 82.265C270.592 82.6443 269.246 85.5723 268.86 86.3537C267.356 89.3953 266.141 90.8074 264.466 90.8074C263.215 90.8074 262.461 89.7317 262.024 87.8313C261.705 86.4453 261.552 84.7246 261.449 82.0582C261.433 81.6334 261.425 81.4089 261.394 80.4972C261.299 77.6423 261.222 76.4393 261.022 75.4216C260.813 74.3543 260.651 74.184 260.345 74.3837C259.172 75.1499 258.055 76.8695 256.926 79.5411C256.042 81.6316 255.336 83.7355 253.986 88.1011C253.987 88.0976 253.765 88.8151 253.702 89.0194C252.223 93.8011 251.411 96.1519 250.396 98.3056C249.029 101.205 247.605 102.801 245.883 102.97C244.225 103.133 243.073 101.806 242.199 99.2358C241.56 97.356 241.136 95.2369 240.428 90.8704C240.395 90.6674 240.275 89.9227 240.284 89.9755C240.225 89.6149 240.181 89.3434 240.138 89.078C238.928 81.6801 237.925 78.1998 236.109 76.6697C235.598 76.2391 234.922 76.7295 233.982 78.6204C232.936 80.7263 231.784 84.2853 230.535 89.2831Z" fill="#22215B"/>
<path d="M61.6881 135.833H130.729C132.608 135.833 134.13 137.351 134.13 139.224V177.203C134.13 179.076 132.608 180.594 130.729 180.594H61.6881C59.8098 180.594 58.2871 179.076 58.2871 177.203V139.224C58.2871 137.351 59.8098 135.833 61.6881 135.833Z" fill="#22215B"/>
<path d="M64.0689 132.273H133.11C135.082 132.273 136.681 133.867 136.681 135.833V173.812C136.681 175.779 135.082 177.373 133.11 177.373H64.0689C62.0966 177.373 60.4978 175.779 60.4978 173.812V135.833C60.4978 133.867 62.0966 132.273 64.0689 132.273Z" fill="black"/>
<path d="M64.0689 132.612C62.2845 132.612 60.8379 134.054 60.8379 135.833V173.812C60.8379 175.591 62.2845 177.034 64.0689 177.034H133.11C134.894 177.034 136.341 175.591 136.341 173.812V135.833C136.341 134.054 134.894 132.612 133.11 132.612H64.0689Z" fill="white"/>
<path d="M71.6168 171.776C71.6673 171.501 71.6937 171.218 71.6937 170.928C71.6937 170.872 71.6927 170.816 71.6908 170.76H125.814C125.812 170.816 125.811 170.872 125.811 170.928C125.811 171.218 125.837 171.501 125.888 171.776C125.847 171.997 125.822 172.224 125.814 172.456H71.6908C71.6826 172.224 71.6575 171.997 71.6168 171.776ZM67.1296 166.402V145.614V166.402ZM130.049 166.402V145.614V166.402Z" fill="#22215B"/>
<path d="M67.2998 144.091V166.229C69.7059 166.233 71.684 168.15 71.8523 170.591H125.652C125.813 168.267 127.617 166.409 129.879 166.242V144.078C127.503 143.903 125.642 141.865 125.641 139.394H71.8639C71.863 141.984 69.8218 144.087 67.2998 144.091ZM71.6909 139.055H125.814C125.91 139.055 125.987 139.134 125.984 139.23C125.982 139.284 125.981 139.338 125.981 139.392C125.981 141.741 127.787 143.664 130.055 143.749C130.147 143.752 130.219 143.827 130.219 143.918V166.402C130.219 166.493 130.147 166.568 130.055 166.571C127.845 166.654 126.065 168.486 125.984 170.766C125.981 170.858 125.905 170.93 125.814 170.93H71.6909C71.5993 170.93 71.5242 170.858 71.5209 170.766C71.4382 168.426 69.5699 166.568 67.2928 166.568C67.0398 166.575 66.9597 166.498 66.9597 166.402V143.918C66.9597 143.822 67.0398 143.745 67.1362 143.749C69.6283 143.752 71.5238 141.801 71.5238 139.392C71.5238 139.338 71.5229 139.284 71.5209 139.23C71.5176 139.134 71.5946 139.055 71.6909 139.055Z" fill="black"/>
<path d="M98.4193 165.504C92.6891 165.504 88.0461 160.721 88.0461 154.823C88.0461 148.925 92.6891 144.141 98.4193 144.141C104.15 144.141 108.792 148.925 108.792 154.823C108.792 160.721 104.15 165.504 98.4193 165.504ZM98.4193 165.165C103.959 165.165 108.452 160.536 108.452 154.823C108.452 149.11 103.959 144.48 98.4193 144.48C92.8795 144.48 88.3862 149.11 88.3862 154.823C88.3862 160.536 92.8795 165.165 98.4193 165.165Z" fill="black"/>
<path d="M79.0335 159.061C76.8717 159.061 75.1223 157.238 75.1223 154.992C75.1223 152.747 76.8717 150.923 79.0335 150.923C81.1953 150.923 82.9447 152.747 82.9447 154.992C82.9447 157.238 81.1953 159.061 79.0335 159.061ZM79.0335 158.722C81.004 158.722 82.6046 157.054 82.6046 154.992C82.6046 152.931 81.004 151.262 79.0335 151.262C77.063 151.262 75.4624 152.931 75.4624 154.992C75.4624 157.054 77.063 158.722 79.0335 158.722Z" fill="black"/>
<path d="M118.826 159.061C116.664 159.061 114.914 157.238 114.914 154.992C114.914 152.747 116.664 150.923 118.826 150.923C120.987 150.923 122.737 152.747 122.737 154.992C122.737 157.238 120.987 159.061 118.826 159.061ZM118.826 158.722C120.796 158.722 122.397 157.054 122.397 154.992C122.397 152.931 120.796 151.262 118.826 151.262C116.855 151.262 115.254 152.931 115.254 154.992C115.254 157.054 116.855 158.722 118.826 158.722Z" fill="black"/>
<path d="M215.512 137.981C223.562 143.897 227.978 155.49 228.761 172.76C229.544 190.03 229.544 206.614 228.761 222.513C224.563 233.729 220.147 233.729 215.512 222.513C210.878 211.297 208.9 188.28 209.578 153.464L215.512 137.981Z" fill="white"/>
<path d="M209.748 153.497C209.072 188.274 211.049 211.264 215.67 222.449C220.242 233.516 224.452 233.524 228.593 222.478C229.374 206.593 229.373 190.023 228.591 172.768C227.817 155.673 223.478 144.172 215.591 138.251L209.748 153.497ZM215.613 137.845C223.712 143.797 228.146 155.437 228.931 172.752C229.714 190.027 229.714 206.617 228.931 222.521C224.668 233.935 220.048 233.935 215.355 222.578C210.709 211.333 208.73 188.3 209.409 153.46L215.354 137.921C215.394 137.816 215.523 137.778 215.613 137.845Z" fill="black"/>
<path d="M228.761 222.513C224.563 233.729 220.147 233.729 215.513 222.513C211.159 211.978 224.366 145.892 222.446 172.476C221.797 181.464 223.902 198.143 228.761 222.513Z" fill="#22215B"/>
<path d="M221.803 167.981C221.324 172.14 220.666 176.065 220.115 179.317C217.958 192.044 216.2 212.549 218.158 218.346C219.463 222.211 217.394 231.411 230.476 253.59C220.115 265.963 212.231 265.963 200.377 267.799C182.596 270.553 135.911 267.723 132.538 266.642C129.165 265.56 137.514 250.023 139.067 243.128C140.62 236.232 148.939 209.364 139.067 198.236C129.194 187.109 122.834 150.703 129.165 142.37C132.111 138.492 148.207 135.493 165.76 134.089V114.47H187.526V133.215C199.819 133.246 210.285 134.295 214.303 136.646C217.105 138.285 219.024 140.841 220.293 143.957" fill="white"/>
<path d="M220.598 232.417C219.895 230.034 219.408 227.85 219.061 225.689C218.926 224.847 218.816 224.033 218.71 223.133C218.652 222.643 218.492 221.177 218.478 221.054C218.328 219.739 218.203 219.011 217.997 218.4C216.228 213.164 217.407 194.278 219.948 179.289C220.792 174.309 221.237 171.409 221.634 167.962C221.915 167.823 221.982 167.907 221.972 168C221.574 171.455 221.128 174.359 220.283 179.345C217.753 194.275 216.576 213.13 218.319 218.292C218.535 218.932 218.664 219.678 218.816 221.016C218.83 221.14 218.99 222.605 219.048 223.093C219.153 223.989 219.263 224.798 219.397 225.635C219.741 227.783 220.225 229.952 220.924 232.321C222.722 238.417 225.808 245.342 230.623 253.504C226.79 258.256 223.177 261.306 219.345 263.327C215.397 265.41 211.914 266.278 204.812 267.316C204.422 267.373 202.97 267.584 202.651 267.63C201.787 267.756 201.089 267.86 200.403 267.967C192.442 269.2 178.01 269.419 161.049 268.828C147.553 268.358 134.325 267.393 132.486 266.803C131.371 266.445 131.32 264.837 132.084 262.043C132.653 259.961 133.472 257.755 135.282 253.224C137.645 247.311 138.431 245.177 138.901 243.09C138.98 242.742 140.572 236.404 141.159 233.789C142.351 228.476 143.153 223.635 143.486 219.053C144.158 209.831 142.824 202.726 138.94 198.349C129.054 187.206 122.621 150.703 129.03 142.268C131.81 138.608 146.382 135.48 165.59 133.932V114.47C165.59 114.408 172.902 114.351 187.527 114.301C187.589 114.301 187.646 120.549 187.697 133.046C200.825 133.089 210.577 134.269 214.389 136.499C217.103 138.087 219.101 140.58 220.451 143.893C220.27 144.149 220.171 144.107 220.136 144.02C218.813 140.773 216.862 138.339 214.217 136.792C210.46 134.594 200.677 133.418 187.526 133.385C187.464 133.385 187.407 127.136 187.357 114.64H165.93V134.089C146.619 135.79 132 138.92 129.301 142.472C123.003 150.762 129.405 187.091 139.194 198.124C143.153 202.586 144.503 209.773 143.825 219.078C143.49 223.679 142.686 228.535 141.491 233.863C140.903 236.484 139.31 242.822 139.233 243.165C138.757 245.277 137.969 247.415 135.685 253.133C133.793 257.867 132.976 260.067 132.412 262.132C131.698 264.745 131.744 266.209 132.59 266.48C134.384 267.055 147.614 268.021 161.061 268.489C178.001 269.079 192.417 268.86 200.351 267.631C201.038 267.525 201.737 267.421 202.602 267.294C202.921 267.248 204.373 267.038 204.763 266.981C211.828 265.948 215.282 265.087 219.186 263.028C222.951 261.042 226.508 258.048 230.269 253.573C225.476 245.432 222.397 238.515 220.598 232.417Z" fill="black"/>
<path d="M221.803 167.981C221.324 172.14 220.666 176.065 220.115 179.317C217.958 192.044 216.2 212.549 218.158 218.346C219.463 222.211 217.394 231.411 230.476 253.59C214.303 266.317 208.936 248.557 208.936 228.994C208.936 188.732 210.285 134.295 214.303 136.646C217.105 138.285 219.024 140.841 220.293 143.957L221.803 167.981Z" fill="black"/>
<path d="M221.803 167.981C221.324 172.14 220.666 176.065 220.115 179.317C217.958 192.044 216.2 212.549 218.158 218.346C219.463 222.211 217.394 231.411 230.476 253.59C214.303 266.317 208.936 248.557 208.936 228.994C208.936 188.732 210.285 134.295 214.303 136.646C217.105 138.285 219.024 140.841 220.293 143.957L221.803 167.981Z" fill="#22215B"/>
<path d="M185.486 135.318C189.919 135.318 199.749 112.703 199.749 100.062C199.749 87.421 187.111 79.5431 174.433 79.5431C161.754 79.5431 165.228 101.132 168.105 113.92C169.575 120.451 172.167 125.898 175.571 129.647C175.758 129.853 177.151 129.771 177.344 129.967C177.663 130.291 177.819 130.506 178.132 130.806C178.266 130.934 178.4 131.061 178.533 131.185C181.199 133.672 183.733 135.318 185.486 135.318Z" fill="white"/>
<path d="M160.179 271.701C142.399 274.455 135.911 270.56 132.538 266.641C129.165 262.723 137.514 250.023 139.067 243.127C140.62 236.232 148.939 209.364 139.067 198.236C129.194 187.109 122.834 150.703 129.165 142.37C132.111 138.492 148.207 135.493 165.76 134.089C177.722 147.736 184.297 160.599 185.486 172.679C186.776 185.788 185.541 199.813 183.025 213.062C177.109 244.22 164.105 271.092 160.179 271.701Z" fill="white"/>
<path d="M129.301 142.472C123.003 150.762 129.405 187.091 139.194 198.124C143.153 202.586 144.503 209.774 143.825 219.078C143.49 223.679 142.686 228.535 141.491 233.863C140.903 236.484 139.31 242.822 139.233 243.165C138.76 245.266 138.053 247.028 135.682 252.412C135.537 252.742 135.42 253.009 135.307 253.266C133.717 256.899 132.855 259.124 132.338 261.155C131.691 263.7 131.767 265.485 132.667 266.531C134.689 268.879 137.256 270.527 140.999 271.509C145.661 272.732 151.913 272.81 160.153 271.533C162.074 271.236 166.355 264.135 170.699 253.772C175.721 241.794 180.144 227.323 182.858 213.03C185.591 198.64 186.521 184.94 185.317 172.696C184.134 160.675 177.593 147.864 165.688 134.265C146.576 135.8 131.996 138.926 129.301 142.472ZM160.206 271.868C151.922 273.151 145.624 273.073 140.913 271.837C137.101 270.837 134.474 269.151 132.409 266.752C131.416 265.599 131.337 263.713 132.009 261.072C132.532 259.017 133.398 256.78 134.996 253.13C135.108 252.873 135.226 252.606 135.371 252.276C137.73 246.918 138.435 245.161 138.901 243.09C138.98 242.742 140.572 236.404 141.159 233.789C142.351 228.476 143.153 223.635 143.486 219.053C144.158 209.831 142.824 202.726 138.94 198.349C129.054 187.206 122.621 150.703 129.03 142.268C131.818 138.598 146.462 135.463 165.746 133.92C177.872 147.649 184.463 160.543 185.655 172.663C186.863 184.942 185.931 198.673 183.192 213.093C180.474 227.41 176.043 241.904 171.013 253.903C166.603 264.422 162.311 271.542 160.206 271.868Z" fill="black"/>
<path d="M139.067 243.128C140.62 236.232 148.939 209.364 139.067 198.236C129.195 187.109 137.046 175.989 143.377 167.656C144.854 164.776 146.43 192.882 153.961 206.125C159.401 215.694 185.231 193.961 179.861 204.518C163.022 237.62 137.514 250.023 139.067 243.128Z" fill="#22215B"/>
<path d="M148.875 136.209C147.655 136.402 147.36 136.965 147.829 138.083C148.275 139.146 149.382 140.632 151.419 142.979C152.37 144.075 156.979 149.203 158.234 150.63C161.398 154.231 164.084 157.475 166.655 160.88C167.669 162.223 168.646 163.567 169.588 164.919C169.938 165.421 170.765 165.72 172.88 166.239C172.95 166.256 172.95 166.256 173.019 166.273C175.38 166.853 176.277 167.189 176.682 167.877C177 168.417 176.452 169.002 174.352 170.812C172.569 172.348 171.927 173.039 172.093 173.34C178.94 185.794 182.853 198.335 183.174 211.326C185.661 197.558 186.474 184.455 185.317 172.696C184.134 160.674 177.593 147.863 165.688 134.265C159.678 134.747 153.939 135.409 148.875 136.209ZM148.822 135.874C153.919 135.069 159.697 134.404 165.746 133.92C165.8 133.915 165.853 133.937 165.888 133.977C177.872 147.649 184.463 160.543 185.655 172.662C186.863 184.941 185.931 198.673 183.193 213.093C183.154 213.296 182.855 213.268 182.855 213.062C182.855 199.512 178.921 186.464 171.794 173.503C171.491 172.952 172.067 172.332 174.106 170.575C175.927 169.007 176.557 168.334 176.389 168.048C176.055 167.482 175.171 167.151 172.938 166.602C172.868 166.585 172.868 166.585 172.799 166.568C170.568 166.021 169.731 165.718 169.309 165.113C168.369 163.764 167.395 162.423 166.383 161.084C163.818 157.687 161.137 154.449 157.978 150.854C156.726 149.429 152.116 144.299 151.162 143.201C149.101 140.826 147.98 139.322 147.515 138.214C146.962 136.897 147.38 136.102 148.822 135.874Z" fill="black"/>
<path d="M221.882 167.279C221.399 171.697 220.697 175.883 220.115 179.317C217.958 192.044 216.2 212.549 218.158 218.346C219.463 222.211 223.403 232.452 240.06 253.99C238.076 256.541 236.308 258.295 226.29 256.541C216.393 254.809 211.232 235.162 206.459 175.168C204.963 156.358 198.652 142.373 187.527 133.215C199.819 133.246 210.285 134.295 214.303 136.646C216.932 138.183 218.783 140.528 220.05 143.385C220.695 143.731 221.101 144.993 221.268 147.168C221.508 150.302 221.712 157.006 221.882 167.279Z" fill="white"/>
<path d="M223.203 229.623C220.542 224.897 219.053 221.528 217.997 218.4C216.228 213.164 217.407 194.278 219.948 179.289C220.844 173.999 221.313 170.918 221.712 167.26C221.723 167.167 221.807 167.1 221.9 167.11C221.993 167.12 222.061 167.204 222.051 167.297C221.65 170.964 221.18 174.049 220.283 179.345C217.752 194.275 216.576 213.13 218.319 218.292C219.368 221.4 220.849 224.75 223.5 229.457C227.259 236.133 232.699 244.194 240.194 253.886C238.854 255.817 237.942 256.57 236.233 257.043C234.134 257.625 231.031 257.543 226.261 256.708C216.079 254.926 211.001 234.401 206.29 175.182C204.797 156.414 198.505 142.472 187.418 133.346C187.295 133.245 187.367 133.045 187.527 133.046C200.741 133.079 210.56 134.26 214.389 136.499C216.943 137.993 218.863 140.289 220.206 143.317C220.033 143.578 219.933 143.539 219.895 143.454C218.58 140.488 216.705 138.248 214.217 136.792C210.505 134.621 200.911 133.446 187.998 133.386C198.936 142.58 205.145 156.507 206.629 175.155C211.321 234.134 216.393 254.636 226.32 256.374C231.045 257.201 234.102 257.282 236.142 256.716C237.732 256.276 238.59 255.587 239.844 253.989C232.381 244.331 226.958 236.29 223.203 229.623Z" fill="black"/>
<path d="M187.527 133.215C192.33 131.68 191.376 131.989 195.746 132.441C199.69 132.848 214.633 149.783 215.312 159.441C215.552 162.869 208.777 161.553 208.777 163.344C208.777 165.136 215.839 165.947 215.312 169.057C213.154 181.784 214.303 184.292 209.536 207.65C208.467 198.443 207.455 187.684 206.459 175.168C204.963 156.358 198.652 142.373 187.527 133.215Z" fill="white"/>
<path d="M206.629 175.155C207.598 187.346 208.572 197.711 209.583 206.568C211.93 194.979 212.699 189.625 213.672 180.219C213.705 179.897 213.732 179.637 213.759 179.387C214.18 175.362 214.531 172.644 215.144 169.029C215.357 167.773 214.365 166.897 211.986 165.772C211.849 165.707 211.71 165.643 211.521 165.555C211.405 165.502 211.405 165.502 211.29 165.449C211.199 165.406 211.13 165.374 211.063 165.343C210.699 165.174 210.439 165.049 210.2 164.926C209.126 164.373 208.607 163.916 208.607 163.344C208.607 162.606 209.253 162.344 211.076 162.024C211.141 162.013 211.455 161.958 211.542 161.943C211.725 161.911 211.873 161.884 212.016 161.857C214.255 161.431 215.238 160.817 215.142 159.453C214.836 155.1 211.519 148.814 206.619 142.577C202.305 137.084 197.621 132.805 195.729 132.609C195.265 132.561 194.842 132.513 194.362 132.455C194.323 132.451 193.537 132.354 193.345 132.332C192.683 132.255 192.298 132.23 191.913 132.246C191.121 132.281 190.554 132.428 187.874 133.282C198.889 142.475 205.14 156.436 206.629 175.155ZM191.898 131.908C192.306 131.89 192.706 131.916 193.385 131.995C193.578 132.018 194.364 132.114 194.403 132.119C194.882 132.177 195.302 132.224 195.764 132.272C197.787 132.481 202.511 136.796 206.887 142.368C211.825 148.654 215.169 154.991 215.481 159.429C215.594 161.034 214.473 161.735 212.079 162.19C211.935 162.217 211.785 162.245 211.602 162.277C211.514 162.292 211.2 162.347 211.135 162.358C209.519 162.642 208.947 162.874 208.947 163.344C208.947 163.735 209.395 164.13 210.356 164.625C210.59 164.745 210.847 164.869 211.206 165.036C211.273 165.067 211.342 165.099 211.433 165.141C211.548 165.194 211.548 165.194 211.664 165.248C211.854 165.335 211.993 165.401 212.131 165.466C214.649 166.655 215.729 167.61 215.479 169.086C214.868 172.692 214.517 175.404 214.097 179.422C214.071 179.672 214.044 179.932 214.01 180.254C213.007 189.95 212.22 195.349 209.703 207.684C209.664 207.873 209.389 207.862 209.367 207.67C208.312 198.578 207.299 187.867 206.29 175.182C204.797 156.414 198.505 142.472 187.418 133.346C187.315 133.261 187.347 133.095 187.475 133.054C190.448 132.103 191.034 131.945 191.898 131.908Z" fill="black"/>
<path d="M177.045 188.822C183.446 185.362 187.315 183.261 188.649 182.519C192.713 180.259 208.848 172.849 211.663 172.849C213.539 172.849 218.944 172.849 227.879 172.849L224.378 177.185L216.297 178.377L220.743 182.519C212.011 190.952 207.111 195.508 206.043 196.187C204.975 196.867 205.569 194.716 207.824 189.735L204.207 188.822C199.527 191.039 196.157 192.147 194.098 192.147C193.093 192.147 188.195 197.358 181.658 204.237C168.089 218.516 170.455 192.385 177.045 188.822Z" fill="white"/>
<path d="M211.663 173.018C209.315 173.018 194.317 179.562 188.732 182.667C187.396 183.409 183.528 185.51 177.126 188.971C174.092 190.612 171.663 197.687 171.962 203.211C172.109 205.942 172.933 207.751 174.337 208.192C175.971 208.705 178.395 207.425 181.535 204.12C191.26 193.887 193.173 191.977 194.097 191.977C196.124 191.977 199.475 190.875 204.134 188.669C204.158 188.658 205.402 188.958 207.865 189.57C207.968 189.596 208.022 189.708 207.979 189.804C206.855 192.288 206.145 194.064 205.851 195.129C205.712 195.635 205.67 195.973 205.716 196.115C205.731 196.162 205.765 196.164 205.952 196.045C206.999 195.378 211.863 190.856 220.496 182.521L216.181 178.5C216.077 178.404 216.132 178.23 216.272 178.209L224.288 177.027L227.523 173.018H211.663ZM224.353 177.017L224.246 177.078L224.288 177.027L224.353 177.017ZM194.097 192.317C193.337 192.317 191.072 194.577 181.782 204.354C178.561 207.743 176.031 209.08 174.235 208.515C172.657 208.019 171.776 206.086 171.622 203.23C171.317 197.588 173.788 190.39 176.964 188.673C183.365 185.213 187.232 183.112 188.567 182.37C194.212 179.232 209.231 172.679 211.663 172.679H227.879C228.021 172.679 228.101 172.844 228.011 172.955L224.511 177.291C224.493 177.313 221.88 177.714 216.671 178.493L220.859 182.395C220.93 182.461 220.931 182.573 220.861 182.64C212.11 191.092 207.218 195.641 206.135 196.33C205.788 196.551 205.495 196.539 205.392 196.218C205.319 195.992 205.366 195.608 205.523 195.039C205.816 193.98 206.503 192.251 207.585 189.849L204.225 189.002C199.551 191.211 196.181 192.317 194.097 192.317Z" fill="black"/>
<path d="M143.235 167.651C144.423 175.16 146.417 187.22 149.217 203.833C166.512 194.509 177.339 188.666 181.698 186.305C185.36 184.321 191.857 196.589 187.505 201.14C174.449 214.795 148.295 240.321 139.946 236.929C128.815 232.407 117.711 184.08 117.711 171.792C117.711 159.504 125.57 142.421 130.729 141.182C132.605 140.731 134.535 142.619 136.317 145.747" fill="white"/>
<path d="M181.617 186.156C183.467 185.154 186.071 187.478 187.761 191.202C189.543 195.126 189.666 199.125 187.628 201.257C178.994 210.287 169.993 218.967 162.069 225.558C151.46 234.383 143.762 238.662 139.882 237.086C134.786 235.016 129.337 223.814 124.491 207.32C120.511 193.775 117.541 178.301 117.541 171.792C117.541 159.87 125.218 142.331 130.689 141.017C132.561 140.567 134.519 142.249 136.465 145.663C136.319 145.94 136.215 145.912 136.169 145.83C134.292 142.537 132.439 140.946 130.769 141.347C125.496 142.613 117.881 160.009 117.881 171.792C117.881 178.262 120.846 193.708 124.817 207.225C129.63 223.603 135.056 234.76 140.01 236.772C143.713 238.276 151.358 234.025 161.851 225.297C169.763 218.716 178.756 210.045 187.382 201.023C189.301 199.016 189.182 195.154 187.452 191.342C185.834 187.778 183.379 185.587 181.779 186.454C177.42 188.815 166.593 194.658 149.298 203.982C149.195 204.038 149.069 203.976 149.049 203.861C146.249 187.248 144.255 175.187 143.067 167.677C143.301 167.469 143.388 167.532 143.403 167.625C144.585 175.097 146.566 187.08 149.345 203.571C166.518 194.313 177.275 188.508 181.617 186.156Z" fill="black"/>
<path d="M243.286 214.634C243.658 213.264 242.416 211.966 239.561 210.742C236.706 209.517 232.828 207.834 227.926 205.691L226.042 218.423H240.248L243.286 214.634Z" fill="#22215B"/>
<path d="M229.426 156.159C229.727 155.586 230.282 155.19 230.923 155.091L265.764 149.717C266.077 149.669 266.382 149.842 266.5 150.136L267.237 151.975L241.47 201.126L205.696 206.646L204.199 205.446C203.946 205.243 203.872 204.89 204.023 204.603L229.426 156.159ZM229.426 156.159C229.727 155.586 230.282 155.19 230.923 155.091L265.764 149.717C266.077 149.669 266.382 149.842 266.5 150.136L267.237 151.975L241.47 201.126L205.696 206.646L204.199 205.446C203.946 205.243 203.872 204.89 204.023 204.603L229.426 156.159Z" fill="white"/>
<path d="M229.276 156.08C229.601 155.46 230.203 155.03 230.897 154.923L265.738 149.549C266.13 149.489 266.511 149.706 266.658 150.073L267.395 151.912C267.407 151.942 258.816 168.373 241.621 201.204C241.604 201.236 229.638 203.106 205.722 206.814C205.69 206.819 205.147 206.407 204.093 205.578C203.777 205.324 203.684 204.883 203.872 204.524L229.276 156.08ZM266.342 150.198C266.254 149.979 266.025 149.848 265.79 149.885L230.949 155.258C230.362 155.349 229.852 155.712 229.577 156.237L204.174 204.682C204.061 204.897 204.116 205.161 204.306 205.314L205.744 206.467L241.359 200.971L267.05 151.965L266.342 150.198Z" fill="black"/>
<path d="M230.447 157.853C230.747 157.281 231.302 156.885 231.942 156.785L266.398 151.436C266.535 151.414 266.676 151.436 266.801 151.496C267.138 151.66 267.279 152.066 267.114 152.403L242.491 202.821L206.047 206.659C205.914 206.673 205.779 206.648 205.66 206.586C205.327 206.412 205.199 206.002 205.373 205.67L230.447 157.853Z" fill="white"/>
<path d="M230.297 157.775C230.622 157.155 231.222 156.726 231.916 156.618L266.372 151.268C266.543 151.242 266.719 151.268 266.875 151.344C267.297 151.549 267.473 152.056 267.267 152.477L242.644 202.895C242.626 202.931 230.434 204.241 206.065 206.828C205.898 206.845 205.73 206.813 205.581 206.736C205.165 206.519 205.004 206.007 205.222 205.592L230.297 157.775ZM242.473 202.653L242.338 202.747L242.379 202.663L242.473 202.653ZM266.961 152.329C267.085 152.076 266.979 151.772 266.726 151.649C266.633 151.603 266.527 151.587 266.424 151.603L231.968 156.953C231.381 157.044 230.873 157.407 230.598 157.932L205.523 205.749C205.393 205.998 205.489 206.305 205.739 206.435C205.828 206.482 205.929 206.501 206.029 206.49L242.379 202.663L266.961 152.329Z" fill="black"/>
<path d="M233.771 161.265C234.418 161.265 235.131 160.734 235.363 160.079C235.596 159.423 235.259 158.892 234.612 158.892C233.965 158.892 233.252 159.423 233.02 160.079C232.788 160.734 233.124 161.265 233.771 161.265Z" fill="black"/>
<path d="M230.322 203.479C227.012 207.339 224.869 210.159 223.893 211.937C222.43 214.605 222.157 232.889 232.41 222.413C239.245 215.429 243.86 209.118 246.257 203.479L251.263 191.559L255.728 178.122C253.991 177.12 252.502 177.76 251.263 180.042C250.024 182.325 248.355 184.901 246.257 187.771C245.727 172.282 244.948 164.538 243.921 164.538C242.895 164.538 241.669 171.35 240.245 184.974C237.072 173.117 234.997 167.286 234.02 167.481C233.043 167.676 233.318 174.134 234.845 186.855C230.057 177.882 227.237 173.633 226.386 174.107C225.109 174.819 230.322 190.072 230.322 191.559C230.322 193.046 221.698 185.064 220.819 186.216C220.233 186.985 222.089 190.304 226.386 196.174C226.384 197.023 226.821 198.26 227.697 199.886C228.573 201.512 229.448 202.71 230.322 203.479Z" fill="white"/>
<path d="M227.547 199.966C226.677 198.352 226.232 197.11 226.216 196.229C221.853 190.266 220.021 186.983 220.684 186.114C221.143 185.511 222.459 186.283 225.635 188.608C225.712 188.665 225.793 188.724 225.878 188.787C228.158 190.461 228.334 190.588 229.008 191.019C229.445 191.298 229.773 191.474 229.989 191.544C230.151 191.596 230.152 191.595 230.152 191.559C230.152 191.279 229.942 190.409 229.512 188.875C229.274 188.028 228.242 184.461 228.089 183.926C227.99 183.576 227.896 183.245 227.805 182.924C226.184 177.165 225.611 174.345 226.303 173.959C227.285 173.412 229.913 177.313 234.569 185.981C233.099 173.549 232.869 167.538 233.986 167.315C235.103 167.092 237.057 172.498 240.171 184.046C241.586 170.722 242.755 164.369 243.921 164.369C245.115 164.369 245.867 171.728 246.41 187.272C248.368 184.567 249.936 182.13 251.113 179.961C252.394 177.602 253.983 176.919 255.813 177.976C255.882 178.016 255.914 178.099 255.889 178.176L251.42 191.625L246.413 203.545C244.007 209.206 239.38 215.534 232.531 222.531C227.907 227.256 224.882 226.643 223.594 222.151C222.659 218.888 222.859 213.468 223.744 211.856C224.716 210.083 226.829 207.299 230.085 203.494C229.236 202.708 228.391 201.532 227.547 199.966ZM251.413 180.123C250.169 182.413 248.497 184.995 246.394 187.87C246.299 188.001 246.092 187.937 246.087 187.776C245.822 180.036 245.495 174.231 245.106 170.363C244.912 168.434 244.703 166.988 244.479 166.029C244.274 165.15 244.054 164.708 243.921 164.708C243.061 164.708 241.804 171.69 240.414 184.992C240.394 185.179 240.129 185.2 240.08 185.018C236.987 173.461 234.861 167.486 234.053 167.648C233.243 167.809 233.525 174.431 235.013 186.835C235.036 187.021 234.783 187.101 234.695 186.935C230.04 178.212 227.159 173.87 226.468 174.255C226.029 174.5 226.661 177.603 228.133 182.833C228.223 183.153 228.317 183.484 228.417 183.833C228.569 184.367 229.601 187.935 229.839 188.784C230.283 190.367 230.492 191.232 230.492 191.559C230.492 191.889 230.233 191.979 229.884 191.867C229.633 191.786 229.284 191.598 228.824 191.304C228.141 190.867 227.966 190.741 225.677 189.06C225.591 188.997 225.511 188.938 225.434 188.882C222.672 186.859 221.201 185.996 220.954 186.319C220.447 186.984 222.315 190.326 226.523 196.074C226.554 196.988 226.982 198.203 227.846 199.806C228.714 201.416 229.578 202.598 230.434 203.352C230.504 203.413 230.512 203.519 230.451 203.589C227.148 207.441 225.01 210.253 224.042 212.018C223.205 213.544 223.009 218.873 223.921 222.057C225.135 226.29 227.84 226.839 232.288 222.295C239.109 215.325 243.713 209.03 246.1 203.414L251.102 191.506L255.522 178.202C253.93 177.35 252.581 177.971 251.413 180.123Z" fill="black"/>
<path d="M227.665 205.666C223.026 209.552 217.636 213.989 217.636 215.716C217.636 219.756 223.399 230.947 225.036 231.83C228.087 231.161 235.282 227.808 243.311 214.684C244.003 213.553 240.189 218.45 233.863 217.185C226.517 215.716 228.108 205.295 227.665 205.666Z" fill="white"/>
<path d="M227.868 205.61C227.891 205.658 227.904 205.72 227.914 205.807C227.927 205.933 227.934 206.097 227.942 206.443C227.991 208.656 228.098 209.889 228.524 211.462C229.338 214.467 231.029 216.445 233.897 217.018C236.596 217.558 239.019 217.031 241.189 215.806C241.841 215.439 242.328 215.098 242.923 214.633C243.221 214.4 243.235 214.39 243.296 214.363C243.457 214.292 243.604 214.429 243.55 214.593C243.536 214.636 243.507 214.689 243.456 214.772C239.803 220.744 236.08 225.109 232.414 228.059C229.657 230.278 227.113 231.548 225.073 231.995C225.033 232.004 224.991 231.998 224.955 231.979C223.009 230.929 217.466 219.431 217.466 215.716C217.466 214.405 219.842 212.031 225.169 207.538C225.378 207.362 225.596 207.179 225.831 206.982C226.086 206.767 226.346 206.549 226.697 206.255C226.913 206.074 226.913 206.074 227.128 205.894C227.301 205.75 227.43 205.642 227.556 205.537C227.669 205.442 227.811 205.489 227.868 205.61ZM227.563 205.761C227.562 205.758 227.561 205.756 227.561 205.755C227.561 205.755 227.561 205.755 227.561 205.756L227.563 205.761ZM227.347 206.154C227.132 206.334 227.132 206.334 226.916 206.515C226.565 206.809 226.305 207.026 226.05 207.241C225.815 207.438 225.597 207.621 225.389 207.797C220.225 212.153 217.806 214.569 217.806 215.716C217.806 219.282 223.188 230.48 225.064 231.65C227.04 231.202 229.512 229.959 232.2 227.795C235.725 224.958 239.31 220.794 242.839 215.126C242.355 215.491 241.915 215.787 241.357 216.102C239.121 217.364 236.616 217.908 233.83 217.351C230.819 216.749 229.041 214.669 228.196 211.55C227.76 209.943 227.652 208.69 227.602 206.451C227.596 206.212 227.592 206.062 227.585 205.955C227.513 206.015 227.436 206.08 227.347 206.154ZM243.431 214.674C243.432 214.674 243.433 214.673 243.434 214.673C243.433 214.673 243.433 214.673 243.433 214.673L243.431 214.674ZM243.222 214.499C243.224 214.493 243.226 214.49 243.227 214.487C243.226 214.488 243.226 214.489 243.226 214.49L243.222 214.499Z" fill="black"/>
<path d="M188.565 133.44C184.706 133.44 177.215 128.102 170.361 120.672C162.962 112.652 158.108 104.231 158.108 98.363C158.108 85.6281 168.462 75.3044 181.235 75.3044C195.053 75.3044 206.722 84.0346 206.722 95.993C206.722 102.171 204.282 111.45 200.648 119.442C196.761 127.993 192.3 133.44 188.565 133.44Z" fill="black"/>
<path d="M188.565 133.101C192.11 133.101 196.506 127.732 200.339 119.302C203.954 111.35 206.381 102.117 206.381 95.993C206.381 84.2465 194.883 75.6435 181.235 75.6435C168.65 75.6435 158.448 85.8154 158.448 98.363C158.448 104.122 163.265 112.48 170.611 120.442C177.403 127.804 184.835 133.101 188.565 133.101Z" fill="white"/>
<path d="M183.615 113.283C178.545 113.283 174.433 109.261 174.433 104.297C174.433 99.3336 178.545 95.3111 183.615 95.3111C188.686 95.3111 192.798 99.3336 192.798 104.297C192.798 109.261 188.686 113.283 183.615 113.283ZM183.615 112.944C188.5 112.944 192.458 109.072 192.458 104.297C192.458 99.5224 188.5 95.6502 183.615 95.6502C178.731 95.6502 174.773 99.5224 174.773 104.297C174.773 109.072 178.731 112.944 183.615 112.944Z" fill="black"/>
<path d="M203.682 113.622C198.611 113.622 194.499 109.6 194.499 104.636C194.499 99.6727 198.611 95.6502 203.682 95.6502C208.752 95.6502 212.864 99.6727 212.864 104.636C212.864 109.6 208.752 113.622 203.682 113.622ZM203.682 113.283C208.566 113.283 212.524 109.411 212.524 104.636C212.524 99.8614 208.566 95.9893 203.682 95.9893C198.797 95.9893 194.839 99.8614 194.839 104.636C194.839 109.411 198.797 113.283 203.682 113.283Z" fill="black"/>
<path d="M194.839 104.636C194.839 104.73 194.763 104.806 194.669 104.806C194.575 104.806 194.499 104.73 194.499 104.636C194.499 104.168 194.118 103.789 193.648 103.789C193.179 103.789 192.798 104.168 192.798 104.636C192.798 104.73 192.722 104.806 192.628 104.806C192.534 104.806 192.458 104.73 192.458 104.636C192.458 103.981 192.991 103.449 193.648 103.449C194.306 103.449 194.839 103.981 194.839 104.636Z" fill="black"/>
<path d="M188.089 120.696C188.021 120.631 188.019 120.524 188.084 120.456C188.149 120.389 188.257 120.387 188.324 120.451C190.635 122.66 192.654 123.202 194.415 122.121C194.495 122.072 194.6 122.097 194.649 122.177C194.698 122.257 194.673 122.361 194.593 122.41C192.678 123.585 190.499 123 188.089 120.696Z" fill="black"/>
<path d="M193.372 106.73C193.339 106.643 193.384 106.545 193.472 106.512C193.56 106.479 193.658 106.524 193.691 106.611L197.689 117.263C197.726 117.363 197.663 117.472 197.557 117.49L192.656 118.3C192.563 118.315 192.476 118.253 192.46 118.16C192.445 118.068 192.508 117.981 192.6 117.965L197.298 117.189L193.372 106.73Z" fill="black"/>
<path d="M185.656 107.01C186.501 107.01 187.186 106.327 187.186 105.484C187.186 104.641 186.501 103.958 185.656 103.958C184.811 103.958 184.125 104.641 184.125 105.484C184.125 106.327 184.811 107.01 185.656 107.01Z" fill="black"/>
<path d="M200.961 108.027C201.806 108.027 202.491 107.344 202.491 106.501C202.491 105.659 201.806 104.975 200.961 104.975C200.115 104.975 199.43 105.659 199.43 106.501C199.43 107.344 200.115 108.027 200.961 108.027Z" fill="black"/>
<path d="M170.813 103.854L172.271 98.5662C173.239 98.9418 174.575 98.0197 176.28 95.7999C177.985 93.5802 179.059 90.4094 179.505 86.2875C189.811 89.7793 196.926 90.883 200.848 89.5985C204.771 88.314 206.716 90.7943 206.683 97.0395C214.512 83.1218 216.906 73.9312 213.866 69.4678C209.306 62.7726 199.98 66.5932 191.026 65.301C180.649 63.8037 162.083 63.2943 156.306 74.4331C149.131 88.2669 148.431 97.6029 154.207 102.441C147.32 97.8276 143.297 98.2986 142.137 103.854C140.978 109.41 142.325 116.256 146.179 124.393C138.721 126.208 136.339 131.165 139.034 139.265C141.729 147.365 145.241 153.602 149.57 157.975C145.947 160.355 145.947 163.495 149.57 167.397C155.004 173.25 146.179 176.321 148.086 182.799C149.992 189.277 166.328 181.308 166.979 174.353C167.413 169.716 165.895 165.851 162.425 162.757C168.648 159.179 171.444 155.665 170.813 152.215C170.182 148.765 167.386 144.174 162.425 138.443C168.017 137.323 170.813 134.701 170.813 130.578C170.813 126.455 168.017 121.09 162.425 114.485C162.891 115.306 163.615 115.913 164.594 116.304C165.574 116.695 166.369 116.695 166.979 116.304C163.799 103.461 163.005 97.0395 164.594 97.0395C166.184 97.0395 168.257 99.3111 170.813 103.854Z" fill="#22215B"/>
<path d="M167.465 100.519L166.72 111.005C164.837 111.431 163.115 110.643 161.553 108.643C159.211 105.642 160.566 99.0433 162.594 98.3333C163.946 97.8599 165.57 98.5884 167.465 100.519Z" fill="white"/>
<path d="M167.326 100.638C165.472 98.749 163.907 98.047 162.632 98.4933C161.728 98.81 160.887 100.523 160.585 102.653C160.258 104.96 160.621 107.196 161.67 108.539C163.194 110.491 164.852 111.249 166.664 110.84C166.756 110.819 166.847 110.876 166.868 110.968C166.889 111.059 166.831 111.15 166.74 111.171C164.786 111.612 163 110.795 161.401 108.747C159.172 105.891 160.148 99.0038 162.52 98.1733C163.949 97.6728 165.632 98.4279 167.569 100.4C167.635 100.467 167.634 100.575 167.566 100.64C167.499 100.706 167.392 100.704 167.326 100.638Z" fill="black"/>
<path d="M165.878 105.043C164.821 103.294 164.042 102.659 163.575 103.011C163.5 103.067 163.394 103.052 163.337 102.978C163.28 102.903 163.295 102.796 163.37 102.74C164.089 102.199 165.011 102.951 166.169 104.868C166.218 104.948 166.192 105.052 166.111 105.1C166.031 105.149 165.926 105.123 165.878 105.043Z" fill="black"/>
<path d="M164.295 101.814C163.1 102.794 162.956 104.574 163.898 107.186C163.93 107.274 163.884 107.371 163.795 107.403C163.707 107.435 163.61 107.389 163.578 107.301C162.593 104.569 162.749 102.643 164.079 101.552C164.151 101.493 164.258 101.503 164.318 101.576C164.378 101.648 164.367 101.755 164.295 101.814Z" fill="black"/>
<path d="M174.915 102.59C175.003 102.625 175.045 102.724 175.011 102.811C174.976 102.898 174.877 102.94 174.79 102.906L166.717 99.7075C166.63 99.6729 166.587 99.5743 166.622 99.4873C166.657 99.4003 166.756 99.3577 166.843 99.3923L174.915 102.59Z" fill="black"/>
<path d="M212.653 105.808C212.744 105.83 212.799 105.922 212.776 106.013C212.754 106.104 212.661 106.159 212.57 106.137L205.595 104.394C205.504 104.371 205.449 104.279 205.472 104.188C205.495 104.097 205.587 104.042 205.678 104.065L212.653 105.808Z" fill="black"/>
<path d="M192.46 139.907C194.263 140.548 198.283 145.374 203.431 157.926C201.829 149.261 195.105 140.567 194.484 139.907C193.864 139.247 187.494 133.206 187.494 133.206C187.494 133.206 188.211 137.826 189.228 138.706C190.245 139.587 190.657 139.266 192.46 139.907Z" fill="black"/>
<path d="M170.856 140.567C170.776 140.519 170.751 140.414 170.8 140.334C170.849 140.254 170.953 140.229 171.033 140.278C171.065 140.297 171.129 140.335 171.223 140.388C171.38 140.476 171.563 140.575 171.771 140.682C172.364 140.987 173.031 141.292 173.757 141.577C176.419 142.621 179.12 143.118 181.633 142.768C182.991 142.578 184.252 142.141 185.396 141.432C185.476 141.382 185.581 141.407 185.63 141.486C185.68 141.566 185.656 141.67 185.576 141.72C184.39 142.455 183.084 142.908 181.68 143.103C179.1 143.463 176.344 142.956 173.633 141.892C172.895 141.603 172.218 141.293 171.615 140.983C171.403 140.875 171.216 140.774 171.056 140.683C170.958 140.628 170.891 140.589 170.856 140.567Z" fill="black"/>
<path d="M187.154 140.889C187.072 140.933 186.969 140.902 186.924 140.819C186.88 140.736 186.911 140.634 186.994 140.59C188.59 139.74 189.376 138.974 189.376 138.329C189.376 138.235 189.452 138.159 189.546 138.159C189.64 138.159 189.716 138.235 189.716 138.329C189.716 139.143 188.854 139.984 187.154 140.889Z" fill="black"/>
<path d="M169.086 127.497C169.007 127.446 168.984 127.341 169.035 127.262C169.085 127.184 169.191 127.161 169.27 127.211C169.31 127.237 169.388 127.286 169.5 127.355C169.686 127.47 169.899 127.598 170.135 127.736C170.809 128.131 171.529 128.525 172.266 128.894C172.992 129.256 173.696 129.574 174.362 129.833C176.072 130.498 177.427 130.737 178.27 130.444C178.358 130.414 178.455 130.461 178.486 130.549C178.517 130.637 178.47 130.734 178.381 130.765C177.438 131.091 176.02 130.841 174.238 130.149C173.562 129.885 172.849 129.564 172.114 129.197C171.37 128.825 170.643 128.427 169.963 128.029C169.725 127.889 169.51 127.76 169.321 127.644C169.207 127.574 169.128 127.524 169.086 127.497Z" fill="black"/>
<path d="M135.333 143.711C135.241 143.732 135.15 143.674 135.13 143.583C135.109 143.492 135.166 143.401 135.258 143.38L146.675 140.807C146.766 140.787 146.857 140.844 146.878 140.935C146.899 141.027 146.841 141.117 146.75 141.138L135.333 143.711Z" fill="black"/>
<path d="M210.162 186.095C210.12 186.012 210.154 185.91 210.238 185.868C210.322 185.826 210.424 185.86 210.466 185.944L212.044 189.09C212.086 189.174 212.052 189.276 211.968 189.318C211.884 189.36 211.782 189.326 211.74 189.242L210.162 186.095Z" fill="black"/>
<path d="M212.215 183.404C212.161 183.328 212.18 183.222 212.256 183.168C212.333 183.114 212.439 183.133 212.493 183.209L213.949 185.278C214.003 185.354 213.985 185.46 213.908 185.514C213.831 185.568 213.725 185.549 213.671 185.473L212.215 183.404Z" fill="black"/>
<path d="M214.252 181.025C214.201 180.947 214.224 180.842 214.302 180.791C214.381 180.74 214.486 180.762 214.538 180.841L215.72 182.656C215.772 182.735 215.749 182.84 215.67 182.891C215.592 182.942 215.486 182.92 215.435 182.841L214.252 181.025Z" fill="black"/>
<path d="M95.4198 121.074V113.014C87.497 112.208 79.6551 109.387 73.5918 105.034L80.8678 94.3134C86.0418 97.9406 90.8925 100.117 95.9048 100.923V91.2504C82.8889 88.268 76.2597 83.8347 76.2597 73.8397V73.6785C76.2597 64.1671 83.2123 57.5575 95.5815 56.6708V52.0764H103.989V56.9127C110.619 57.6381 116.197 59.895 121.047 63.1998L114.418 74.0009C111.104 71.6634 107.223 70.0513 103.585 69.1646V78.5148C116.439 81.4972 122.907 86.0917 122.907 96.0867V96.2479C122.907 106.082 115.307 112.127 103.828 113.175V121.074H95.4198ZM95.9857 77.1445V68.4392C92.0243 68.7616 90.4883 70.3737 90.4883 72.4694V72.6306C90.4883 74.7264 91.6201 75.9354 95.9857 77.1445ZM103.504 101.407C107.223 101.004 108.921 99.6333 108.921 97.2958V97.1346C108.921 94.9582 107.708 93.7492 103.504 92.5401V101.407Z" fill="#22215B"/>
<path d="M94.0593 118.023V109.962C86.1366 109.156 78.2947 106.335 72.2313 101.982L79.5073 91.262C84.6814 94.8892 89.532 97.0656 94.5444 97.8716V88.199C81.5284 85.2166 74.8992 80.7833 74.8992 70.7883V70.6271C74.8992 61.1157 81.8518 54.5061 94.221 53.6195V49.025H102.629V53.8613C109.258 54.5867 114.836 56.8437 119.687 60.1485L113.058 70.9495C109.743 68.612 105.863 66.9999 102.225 66.1132V75.4634C115.079 78.4458 121.546 83.0403 121.546 93.0353V93.1965C121.546 103.03 113.947 109.076 102.467 110.124V118.023H94.0593ZM94.6252 74.0931V65.3878C90.6638 65.7102 89.1278 67.3223 89.1278 69.418V69.5792C89.1278 71.675 90.2596 72.8841 94.6252 74.0931ZM102.144 98.3552C105.863 97.9522 107.56 96.5819 107.56 94.2444V94.0832C107.56 91.9068 106.348 90.6978 102.144 89.4887V98.3552Z" fill="white"/>
<path d="M94.2294 117.853H102.297V110.123C102.297 110.035 102.364 109.962 102.452 109.954C114.175 108.884 121.376 102.683 121.376 93.196C121.376 83.6169 115.741 78.7729 102.186 75.6281C102.109 75.6102 102.055 75.5418 102.055 75.4629V66.1127C102.055 66.0028 102.158 65.9219 102.265 65.948C106.09 66.8803 109.869 68.525 113.007 70.7065L119.457 60.1973C114.416 56.792 108.873 54.7147 102.61 54.0293C102.524 54.0199 102.459 53.9472 102.459 53.8608V49.194H94.3911V53.619C94.3911 53.7079 94.3222 53.7817 94.2332 53.7881C82.1649 54.6532 75.0693 61.0312 75.0693 70.6266C75.0693 80.1472 80.7396 84.8614 94.5825 88.0333C94.6597 88.051 94.7145 88.1195 94.7145 88.1985V97.8711C94.7145 97.9755 94.6207 98.0551 94.5173 98.0385C89.5818 97.2448 84.7555 95.1251 79.5513 91.4993L72.465 101.94C78.438 106.187 86.178 108.99 94.0766 109.793C94.1634 109.802 94.2294 109.875 94.2294 109.962V117.853ZM102.637 110.277V118.022C102.637 118.116 102.561 118.192 102.467 118.192H94.0593C93.9654 118.192 93.8893 118.116 93.8893 118.022V110.115C85.9266 109.279 78.1342 106.428 72.132 102.12C72.0573 102.066 72.039 101.963 72.0905 101.887L79.3665 91.1665C79.4198 91.0879 79.5273 91.0683 79.6052 91.1228C84.7542 94.7325 89.5173 96.8545 94.3743 97.6713V88.3334C80.4906 85.1302 74.7292 80.3103 74.7292 70.7878C74.7292 60.8813 81.9118 54.383 94.051 53.4615V49.0245C94.051 48.9308 94.1271 48.8549 94.221 48.8549H102.629C102.723 48.8549 102.799 48.9308 102.799 49.0245V53.7091C109.112 54.4237 114.701 56.5456 119.783 60.008C119.858 60.0589 119.879 60.1594 119.832 60.2365L113.203 71.0375C113.151 71.1212 113.04 71.1441 112.96 71.0875C109.886 68.92 106.168 67.2756 102.395 66.3295V75.3284C115.991 78.5061 121.716 83.4579 121.716 93.0348C121.716 102.836 114.43 109.152 102.637 110.277ZM94.7953 74.0926C94.7953 74.2048 94.6881 74.286 94.5797 74.256C90.3469 73.0837 88.9578 71.8845 88.9578 69.5788V69.4175C88.9578 67.0309 90.834 65.5257 94.6114 65.2183C94.7104 65.2102 94.7953 65.2882 94.7953 65.3873V74.0926ZM94.4552 65.5723C90.9623 65.8983 89.2979 67.2702 89.2979 69.4175V69.5788C89.2979 71.6589 90.5234 72.7538 94.4552 73.8689V65.5723ZM102.162 98.5233C102.062 98.5342 101.974 98.4556 101.974 98.3547V89.4882C101.974 89.3754 102.082 89.294 102.191 89.3253C106.334 90.5168 107.73 91.7395 107.73 94.0827V94.2439C107.73 96.715 105.911 98.1171 102.162 98.5233ZM107.39 94.2439V94.0827C107.39 91.9651 106.157 90.8469 102.314 89.7143V98.1647C105.779 97.7509 107.39 96.4702 107.39 94.2439Z" fill="black"/>
<path d="M58.3879 201.987C58.3879 201.987 83.3083 191.445 96.259 191.445C109.21 191.445 134.13 201.987 134.13 201.987C134.13 240.594 121.506 265.564 96.259 276.898C71.0116 265.564 58.3879 240.594 58.3879 201.987Z" fill="#22215B"/>
<path d="M60.7688 198.258C60.7688 198.258 85.6891 187.716 98.6399 187.716C111.591 187.716 136.511 198.258 136.511 198.258C136.511 236.864 123.887 261.834 98.6399 273.168C73.3925 261.834 60.7688 236.864 60.7688 198.258Z" fill="white"/>
<path d="M98.6399 272.982C123.748 261.675 136.316 236.816 136.341 198.37C135.931 198.199 135.659 198.087 135.351 197.961C134.468 197.601 133.463 197.2 132.353 196.768C129.182 195.533 125.809 194.299 122.378 193.147C112.583 189.858 104.282 187.885 98.6399 187.885C94.7971 187.885 89.6631 188.812 83.5584 190.488C80.7987 191.246 77.8966 192.141 74.9021 193.147C71.4709 194.299 68.0978 195.533 64.9268 196.768C63.817 197.2 62.8119 197.601 61.9293 197.961C61.6205 198.087 61.349 198.199 61.1173 198.295C60.9634 236.816 73.532 261.675 98.6399 272.982ZM60.9864 197.982C61.2188 197.886 61.491 197.774 61.8005 197.647C62.6847 197.287 63.6916 196.885 64.8031 196.452C67.9788 195.216 71.3569 193.979 74.7935 192.825C77.7937 191.818 80.7018 190.92 83.4681 190.161C89.5998 188.478 94.7602 187.546 98.6399 187.546C104.33 187.546 112.658 189.526 122.486 192.825C125.923 193.979 129.301 195.216 132.477 196.452C133.588 196.885 134.595 197.287 135.479 197.647C135.789 197.774 136.061 197.886 136.293 197.982C136.538 198.084 136.538 198.084 136.559 198.093C136.681 236.925 124.026 261.958 98.7097 273.322C73.2542 261.958 60.5988 236.925 60.5988 198.257C60.7514 198.08 60.8468 198.04 60.9864 197.982Z" fill="black"/>
<path d="M68.592 205.046C68.6916 235.53 78.7443 255.262 98.75 264.243C101.766 262.889 104.556 261.291 107.12 259.448C104.191 261.725 100.948 263.663 97.3896 265.26C77.2837 256.235 67.2308 236.35 67.2308 205.605C67.2308 205.605 67.7228 205.397 68.592 205.046Z" fill="#22215B"/>
<path d="M98.7501 264.057C118.716 255.058 128.714 235.284 128.739 204.7C128.433 204.573 128.217 204.484 127.972 204.384C127.269 204.097 126.469 203.778 125.585 203.434C123.06 202.451 120.375 201.468 117.643 200.551C109.846 197.933 103.238 196.362 98.7501 196.362C95.6936 196.362 91.6078 197.1 86.7491 198.434C84.552 199.037 82.2415 199.75 79.8575 200.551C77.1256 201.468 74.4399 202.451 71.9152 203.434C71.0316 203.778 70.2312 204.097 69.5286 204.384C69.2827 204.484 69.0667 204.573 68.8822 204.65C68.7859 235.284 78.7837 255.058 98.7501 264.057ZM68.7513 204.337C68.9364 204.26 69.1532 204.171 69.3998 204.07C70.1041 203.783 70.9061 203.463 71.7915 203.118C74.3209 202.133 77.0116 201.149 79.7489 200.229C82.1387 199.427 84.4552 198.712 86.6588 198.107C91.5445 196.766 95.6567 196.023 98.7501 196.023C103.286 196.023 109.921 197.6 117.751 200.229C120.489 201.149 123.179 202.133 125.709 203.118C126.594 203.463 127.396 203.783 128.1 204.07C128.347 204.171 128.564 204.26 128.749 204.337C128.86 204.383 128.936 204.415 128.975 204.432C129.079 235.393 118.994 255.341 98.8199 264.397C78.5059 255.341 68.4213 235.393 68.4213 204.588C68.564 204.415 68.64 204.383 68.7513 204.337Z" fill="black"/>
<path d="M87.9772 225.928V221.566C87.9772 215.266 92.741 210.096 98.7057 210.096C104.67 210.096 109.434 215.266 109.434 221.566V226.02C109.102 225.918 108.749 225.864 108.383 225.864H105.8V221.566C105.8 217.181 102.584 213.691 98.7057 213.691C94.8269 213.691 91.611 217.181 91.611 221.566V225.864H88.6574C88.4248 225.864 88.1974 225.886 87.9772 225.928Z" fill="#22215B"/>
<path d="M88.6574 226.203C86.873 226.203 85.4264 227.645 85.4264 229.424V236.884C85.4264 242.783 90.2229 247.566 96.1397 247.566H100.901C106.818 247.566 111.614 242.783 111.614 236.884V229.424C111.614 227.645 110.168 226.203 108.383 226.203H88.6574ZM88.6574 225.864H108.383C110.356 225.864 111.955 227.458 111.955 229.424V236.884C111.955 242.971 107.006 247.905 100.901 247.905H96.1397C90.0351 247.905 85.0863 242.971 85.0863 236.884V229.424C85.0863 227.458 86.6851 225.864 88.6574 225.864Z" fill="black"/>
<path d="M97.242 237.669C96.1848 237.16 95.4594 236.11 95.4594 234.897C95.4594 233.186 96.9059 231.798 98.6903 231.798C100.475 231.798 101.921 233.186 101.921 234.897C101.921 236.11 101.196 237.16 100.139 237.669V240.242C100.139 241.009 99.4903 241.632 98.6903 241.632C97.8904 241.632 97.242 241.009 97.242 240.242V237.669Z" fill="#22215B"/>
<path d="M292.693 358.644C292.693 357.894 293.302 357.287 294.054 357.287C294.805 357.287 295.414 357.894 295.414 358.644C295.414 359.393 294.805 360 294.054 360C293.302 360 292.693 359.393 292.693 358.644ZM292.693 349.149C292.693 348.4 293.302 347.792 294.054 347.792C294.805 347.792 295.414 348.4 295.414 349.149C295.414 349.898 294.805 350.505 294.054 350.505C293.302 350.505 292.693 349.898 292.693 349.149ZM292.693 339.654C292.693 338.905 293.302 338.298 294.054 338.298C294.805 338.298 295.414 338.905 295.414 339.654C295.414 340.403 294.805 341.011 294.054 341.011C293.302 341.011 292.693 340.403 292.693 339.654ZM292.693 330.159C292.693 329.41 293.302 328.803 294.054 328.803C294.805 328.803 295.414 329.41 295.414 330.159C295.414 330.909 294.805 331.516 294.054 331.516C293.302 331.516 292.693 330.909 292.693 330.159ZM292.693 320.665C292.693 319.916 293.302 319.308 294.054 319.308C294.805 319.308 295.414 319.916 295.414 320.665C295.414 321.414 294.805 322.021 294.054 322.021C293.302 322.021 292.693 321.414 292.693 320.665ZM292.693 311.17C292.693 310.421 293.302 309.814 294.054 309.814C294.805 309.814 295.414 310.421 295.414 311.17C295.414 311.919 294.805 312.526 294.054 312.526C293.302 312.526 292.693 311.919 292.693 311.17ZM283.17 358.644C283.17 357.894 283.78 357.287 284.531 357.287C285.282 357.287 285.891 357.894 285.891 358.644C285.891 359.393 285.282 360 284.531 360C283.78 360 283.17 359.393 283.17 358.644ZM273.648 358.644C273.648 357.894 274.257 357.287 275.008 357.287C275.759 357.287 276.368 357.894 276.368 358.644C276.368 359.393 275.759 360 275.008 360C274.257 360 273.648 359.393 273.648 358.644ZM283.17 349.149C283.17 348.4 283.78 347.792 284.531 347.792C285.282 347.792 285.891 348.4 285.891 349.149C285.891 349.898 285.282 350.505 284.531 350.505C283.78 350.505 283.17 349.898 283.17 349.149ZM273.648 349.149C273.648 348.4 274.257 347.792 275.008 347.792C275.759 347.792 276.368 348.4 276.368 349.149C276.368 349.898 275.759 350.505 275.008 350.505C274.257 350.505 273.648 349.898 273.648 349.149ZM283.17 339.654C283.17 338.905 283.78 338.298 284.531 338.298C285.282 338.298 285.891 338.905 285.891 339.654C285.891 340.403 285.282 341.011 284.531 341.011C283.78 341.011 283.17 340.403 283.17 339.654ZM273.648 339.654C273.648 338.905 274.257 338.298 275.008 338.298C275.759 338.298 276.368 338.905 276.368 339.654C276.368 340.403 275.759 341.011 275.008 341.011C274.257 341.011 273.648 340.403 273.648 339.654ZM283.17 330.159C283.17 329.41 283.78 328.803 284.531 328.803C285.282 328.803 285.891 329.41 285.891 330.159C285.891 330.909 285.282 331.516 284.531 331.516C283.78 331.516 283.17 330.909 283.17 330.159ZM273.648 330.159C273.648 329.41 274.257 328.803 275.008 328.803C275.759 328.803 276.368 329.41 276.368 330.159C276.368 330.909 275.759 331.516 275.008 331.516C274.257 331.516 273.648 330.909 273.648 330.159ZM283.17 320.665C283.17 319.916 283.78 319.308 284.531 319.308C285.282 319.308 285.891 319.916 285.891 320.665C285.891 321.414 285.282 322.021 284.531 322.021C283.78 322.021 283.17 321.414 283.17 320.665ZM273.648 320.665C273.648 319.916 274.257 319.308 275.008 319.308C275.759 319.308 276.368 319.916 276.368 320.665C276.368 321.414 275.759 322.021 275.008 322.021C274.257 322.021 273.648 321.414 273.648 320.665ZM283.17 311.17C283.17 310.421 283.78 309.814 284.531 309.814C285.282 309.814 285.891 310.421 285.891 311.17C285.891 311.919 285.282 312.526 284.531 312.526C283.78 312.526 283.17 311.919 283.17 311.17ZM273.648 311.17C273.648 310.421 274.257 309.814 275.008 309.814C275.759 309.814 276.368 310.421 276.368 311.17C276.368 311.919 275.759 312.526 275.008 312.526C274.257 312.526 273.648 311.919 273.648 311.17ZM264.125 358.644C264.125 357.894 264.734 357.287 265.485 357.287C266.236 357.287 266.845 357.894 266.845 358.644C266.845 359.393 266.236 360 265.485 360C264.734 360 264.125 359.393 264.125 358.644ZM254.602 358.644C254.602 357.894 255.211 357.287 255.962 357.287C256.713 357.287 257.323 357.894 257.323 358.644C257.323 359.393 256.713 360 255.962 360C255.211 360 254.602 359.393 254.602 358.644ZM264.125 349.149C264.125 348.4 264.734 347.792 265.485 347.792C266.236 347.792 266.845 348.4 266.845 349.149C266.845 349.898 266.236 350.505 265.485 350.505C264.734 350.505 264.125 349.898 264.125 349.149ZM254.602 349.149C254.602 348.4 255.211 347.792 255.962 347.792C256.713 347.792 257.323 348.4 257.323 349.149C257.323 349.898 256.713 350.505 255.962 350.505C255.211 350.505 254.602 349.898 254.602 349.149ZM264.125 339.654C264.125 338.905 264.734 338.298 265.485 338.298C266.236 338.298 266.845 338.905 266.845 339.654C266.845 340.403 266.236 341.011 265.485 341.011C264.734 341.011 264.125 340.403 264.125 339.654ZM254.602 339.654C254.602 338.905 255.211 338.298 255.962 338.298C256.713 338.298 257.323 338.905 257.323 339.654C257.323 340.403 256.713 341.011 255.962 341.011C255.211 341.011 254.602 340.403 254.602 339.654ZM264.125 330.159C264.125 329.41 264.734 328.803 265.485 328.803C266.236 328.803 266.845 329.41 266.845 330.159C266.845 330.909 266.236 331.516 265.485 331.516C264.734 331.516 264.125 330.909 264.125 330.159ZM254.602 330.159C254.602 329.41 255.211 328.803 255.962 328.803C256.713 328.803 257.323 329.41 257.323 330.159C257.323 330.909 256.713 331.516 255.962 331.516C255.211 331.516 254.602 330.909 254.602 330.159ZM264.125 320.665C264.125 319.916 264.734 319.308 265.485 319.308C266.236 319.308 266.845 319.916 266.845 320.665C266.845 321.414 266.236 322.021 265.485 322.021C264.734 322.021 264.125 321.414 264.125 320.665ZM254.602 320.665C254.602 319.916 255.211 319.308 255.962 319.308C256.713 319.308 257.323 319.916 257.323 320.665C257.323 321.414 256.713 322.021 255.962 322.021C255.211 322.021 254.602 321.414 254.602 320.665ZM264.125 311.17C264.125 310.421 264.734 309.814 265.485 309.814C266.236 309.814 266.845 310.421 266.845 311.17C266.845 311.919 266.236 312.526 265.485 312.526C264.734 312.526 264.125 311.919 264.125 311.17ZM254.602 311.17C254.602 310.421 255.211 309.814 255.962 309.814C256.713 309.814 257.323 310.421 257.323 311.17C257.323 311.919 256.713 312.526 255.962 312.526C255.211 312.526 254.602 311.919 254.602 311.17ZM245.079 358.644C245.079 357.894 245.688 357.287 246.439 357.287C247.191 357.287 247.8 357.894 247.8 358.644C247.8 359.393 247.191 360 246.439 360C245.688 360 245.079 359.393 245.079 358.644ZM235.556 358.644C235.556 357.894 236.165 357.287 236.916 357.287C237.668 357.287 238.277 357.894 238.277 358.644C238.277 359.393 237.668 360 236.916 360C236.165 360 235.556 359.393 235.556 358.644ZM245.079 349.149C245.079 348.4 245.688 347.792 246.439 347.792C247.191 347.792 247.8 348.4 247.8 349.149C247.8 349.898 247.191 350.505 246.439 350.505C245.688 350.505 245.079 349.898 245.079 349.149ZM235.556 349.149C235.556 348.4 236.165 347.792 236.916 347.792C237.668 347.792 238.277 348.4 238.277 349.149C238.277 349.898 237.668 350.505 236.916 350.505C236.165 350.505 235.556 349.898 235.556 349.149ZM245.079 339.654C245.079 338.905 245.688 338.298 246.439 338.298C247.191 338.298 247.8 338.905 247.8 339.654C247.8 340.403 247.191 341.011 246.439 341.011C245.688 341.011 245.079 340.403 245.079 339.654ZM235.556 339.654C235.556 338.905 236.165 338.298 236.916 338.298C237.668 338.298 238.277 338.905 238.277 339.654C238.277 340.403 237.668 341.011 236.916 341.011C236.165 341.011 235.556 340.403 235.556 339.654ZM245.079 330.159C245.079 329.41 245.688 328.803 246.439 328.803C247.191 328.803 247.8 329.41 247.8 330.159C247.8 330.909 247.191 331.516 246.439 331.516C245.688 331.516 245.079 330.909 245.079 330.159ZM235.556 330.159C235.556 329.41 236.165 328.803 236.916 328.803C237.668 328.803 238.277 329.41 238.277 330.159C238.277 330.909 237.668 331.516 236.916 331.516C236.165 331.516 235.556 330.909 235.556 330.159ZM245.079 320.665C245.079 319.916 245.688 319.308 246.439 319.308C247.191 319.308 247.8 319.916 247.8 320.665C247.8 321.414 247.191 322.021 246.439 322.021C245.688 322.021 245.079 321.414 245.079 320.665ZM235.556 320.665C235.556 319.916 236.165 319.308 236.916 319.308C237.668 319.308 238.277 319.916 238.277 320.665C238.277 321.414 237.668 322.021 236.916 322.021C236.165 322.021 235.556 321.414 235.556 320.665ZM245.079 311.17C245.079 310.421 245.688 309.814 246.439 309.814C247.191 309.814 247.8 310.421 247.8 311.17C247.8 311.919 247.191 312.526 246.439 312.526C245.688 312.526 245.079 311.919 245.079 311.17ZM235.556 311.17C235.556 310.421 236.165 309.814 236.916 309.814C237.668 309.814 238.277 310.421 238.277 311.17C238.277 311.919 237.668 312.526 236.916 312.526C236.165 312.526 235.556 311.919 235.556 311.17Z" fill="black"/>
<path d="M266.846 301.332L260.831 298.623L221.754 301.332L216.17 343.49L221.754 346.436H266.846V301.332Z" fill="#4CE364"/>
<path d="M261.064 298.285H216.17V343.046H261.064V298.285Z" fill="white"/>
<path d="M260.894 298.454V342.876H216.34V298.454H260.894ZM261.064 298.115H216.17C216.076 298.115 216 298.191 216 298.284V343.045C216 343.139 216.076 343.215 216.17 343.215H261.064C261.158 343.215 261.234 343.139 261.234 343.045V298.284C261.234 298.191 261.158 298.115 261.064 298.115Z" fill="black"/>
</svg>
