<svg width="25" height="29" viewBox="0 0 25 29" fill="none" xmlns="http://www.w3.org/2000/svg">
<path d="M24.1133 15.5789H21.4949V8.6446C21.4949 8.15548 21.0984 7.75892 20.6092 7.75892H14.2744L9.17405 0.381678C8.82216 -0.127254 8.06878 -0.127198 7.717 0.381678L0.158143 11.3151C-0.246722 11.9008 0.172424 12.7044 0.886667 12.7044H3.50506V19.6387C3.50506 20.1278 3.90162 20.5244 4.39073 20.5244H10.7256L15.8259 27.9016C16.1778 28.4106 16.9312 28.4105 17.283 27.9016L24.8418 16.9682C25.2468 16.3825 24.8276 15.5789 24.1133 15.5789ZM5.27647 18.753V11.8188C5.27647 11.3296 4.8799 10.9331 4.39079 10.9331H2.57576L8.44558 2.44276L14.3154 10.9331H12.5004C12.0113 10.9331 11.6147 11.3296 11.6147 11.8188V15.5789H8.99564C8.28356 15.5789 7.86098 16.3808 8.26712 16.9682L9.50103 18.753H5.27647ZM16.5544 25.8406L10.6846 17.3503H12.5003C12.9894 17.3503 13.386 16.9537 13.386 16.4646V12.7045H16.0044C16.7177 12.7045 17.1383 11.9015 16.7329 11.3151L15.499 9.53033C15.5045 9.53476 15.3173 9.53033 19.7236 9.53033V16.4646C19.7236 16.9537 20.1201 17.3503 20.6092 17.3503H22.4243L16.5544 25.8406Z" fill="#FFC700"/>
</svg>
