<svg width="30" height="27" viewBox="0 0 30 27" fill="none" xmlns="http://www.w3.org/2000/svg">
<path d="M27.0437 3.73575C26.8821 1.6489 25.1336 0 23.006 0H4.05128C1.8174 0 0 1.8174 0 4.05128V22.7956C0 25.0295 1.8174 26.8469 4.05128 26.8469H25.9487C28.1826 26.8469 30 25.0295 30 22.7956V7.63539C29.9999 5.78103 28.7471 4.21481 27.0437 3.73575ZM4.05128 1.89257H23.0061C24.036 1.89257 24.8991 2.61772 25.1133 3.58417H4.05128C3.25812 3.58417 2.51806 3.81418 1.89257 4.20972V4.05128C1.89257 2.86097 2.86097 1.89257 4.05128 1.89257ZM25.9487 24.9544H4.05128C2.86097 24.9544 1.89257 23.9859 1.89257 22.7956V7.63539C1.89257 6.44508 2.86097 5.47668 4.05128 5.47668H25.9487C27.139 5.47668 28.1074 6.44508 28.1074 7.63539V10.9378H22.0733C19.6822 10.9378 17.7369 12.8832 17.7369 15.2743C17.7369 17.6655 19.6822 19.6109 22.0733 19.6109H28.1074V22.7956C28.1074 23.9859 27.139 24.9544 25.9487 24.9544ZM28.1074 17.7183H22.0733C20.7258 17.7183 19.6294 16.622 19.6294 15.2743C19.6294 13.9267 20.7258 12.8304 22.0733 12.8304H28.1074V17.7183Z" fill="#22215B"/>
<path d="M22.4246 16.3314C22.9687 16.3314 23.4098 15.8903 23.4098 15.3462C23.4098 14.8021 22.9687 14.361 22.4246 14.361C21.8805 14.361 21.4394 14.8021 21.4394 15.3462C21.4394 15.8903 21.8805 16.3314 22.4246 16.3314Z" fill="#22215B"/>
</svg>
